<?xml version="1.0" encoding="utf-8"?>
<!-- Generator: Adobe Illustrator 22.1.0, SVG Export Plug-In . SVG Version: 6.00 Build 0)  -->
<svg version="1.1"
	 id="svg8" inkscape:version="1.0beta2 (2b71d25, 2019-12-03)" sodipodi:docname="Icone_ARCHEOFOSS.svg" xmlns:cc="http://creativecommons.org/ns#" xmlns:dc="http://purl.org/dc/elements/1.1/" xmlns:inkscape="http://www.inkscape.org/namespaces/inkscape" xmlns:rdf="http://www.w3.org/1999/02/22-rdf-syntax-ns#" xmlns:sodipodi="http://sodipodi.sourceforge.net/DTD/sodipodi-0.dtd" xmlns:svg="http://www.w3.org/2000/svg"
	 xmlns="http://www.w3.org/2000/svg" xmlns:xlink="http://www.w3.org/1999/xlink" x="0px" y="0px" viewBox="0 0 146.8 150"
	 style="enable-background:new 0 0 146.8 150;" xml:space="preserve">
<sodipodi:namedview  bordercolor="#666666" borderopacity="1.0" id="base" inkscape:current-layer="layer1" inkscape:cx="463.87343" inkscape:cy="444.18605" inkscape:document-rotation="0" inkscape:document-units="mm" inkscape:pageopacity="0.0" inkscape:pageshadow="2" inkscape:window-height="809" inkscape:window-maximized="0" inkscape:window-width="1440" inkscape:window-x="0" inkscape:window-y="23" inkscape:zoom="0.7136804" pagecolor="#ffffff" showgrid="false">
	</sodipodi:namedview>
<path id="path34" inkscape:connector-curvature="0" inkscape:export-xdpi="300" inkscape:export-ydpi="300" d="M94.9,130.8
	c-2.1-1.8-2.4-2.7-2.7-7.5c-0.3-5.2-0.2-5.6,2.3-8.1c2.3-2.3,3-2.6,5.7-2.1c4.6,0.7,6,3,6,9.7s-1.4,8.9-5.9,9.7
	C97.8,132.7,96.8,132.4,94.9,130.8L94.9,130.8z M100.9,127.5c1.4-1.4,1.3-8.5-0.2-9.8c-2.5-2-3.7-0.4-3.7,4.8c0,2.7,0.2,5.1,0.6,5.4
	C98.4,128.8,99.8,128.6,100.9,127.5L100.9,127.5z M32.2,124.4c0-6.9-0.1-7.5-1.7-7.5c-1.2,0-1.7-0.6-1.7-2.1c0-1.9,0.3-2.1,3.7-2.1
	h3.7v9.5v9.5h-2.1C32.2,131.8,32.2,131.8,32.2,124.4L32.2,124.4z M81.2,124.4c0-6.9-0.1-7.5-1.7-7.5c-1.2,0-1.7-0.6-1.7-2.1
	c0-1.9,0.3-2.1,3.7-2.1h3.7v9.5v9.5h-2.1C81.2,131.8,81.2,131.8,81.2,124.4L81.2,124.4z M128.5,124.4c0-6.9-0.1-7.5-1.7-7.5
	c-1.2,0-1.7-0.6-1.7-2.1c0-1.9,0.3-2.1,3.7-2.1h3.7v9.5v9.5h-2.1C128.5,131.8,128.5,131.8,128.5,124.4L128.5,124.4z M10.6,107.8
	c-2.2-2.2-2.4-3-2.4-7.8c0-6.6,1.4-8.8,6.4-9.4c3-0.4,3.8-0.2,5.6,1.7c1.8,1.8,2.1,2.9,2.1,7.1c0,5.9-1.1,8.7-3.9,9.9
	C15.1,110.8,13.1,110.4,10.6,107.8L10.6,107.8z M16.8,100.3c0-4.8-0.2-5.4-1.7-5.4c-1.4,0-1.7,0.6-1.9,4.5c-0.3,5.4,0.2,7,2.1,6.6
	C16.6,105.7,16.8,104.7,16.8,100.3L16.8,100.3z M59.5,107.8c-2.2-2.2-2.4-3-2.4-7.8c0-6.6,1.4-8.8,6.4-9.4c3-0.4,3.8-0.2,5.6,1.7
	c1.8,1.8,2.1,2.9,2.1,7.1c0,5.9-1.1,8.7-3.9,9.9C64.1,110.8,62.1,110.4,59.5,107.8L59.5,107.8z M65.8,100.3c0-4.8-0.2-5.4-1.7-5.4
	c-1.4,0-1.7,0.6-1.9,4.5c-0.3,5.4,0.2,7,2.1,6.6C65.6,105.7,65.8,104.7,65.8,100.3L65.8,100.3z M32.2,101.9c0-6.9-0.1-7.5-1.7-7.5
	c-1.2,0-1.7-0.6-1.7-2.1c0-1.9,0.3-2.1,3.7-2.1h3.7v9.5v9.5h-2.1C32.2,109.4,32.2,109.4,32.2,101.9L32.2,101.9z M47.1,101.9
	c0-6.9-0.1-7.5-1.7-7.5c-1.2,0-1.7-0.6-1.7-2.1c0-1.9,0.3-2.1,3.7-2.1h3.7l0.3,9.5l0.3,9.5h-2.3h-2.3V101.9z M81.2,101.9
	c0-6.9-0.1-7.5-1.7-7.5c-1.2,0-1.7-0.6-1.7-2.1c0-1.9,0.3-2.1,3.7-2.1h3.7v9.5v9.5h-2.1C81.2,109.4,81.2,109.4,81.2,101.9
	L81.2,101.9z M98.6,101.9c0-6.9-0.1-7.5-1.7-7.5c-1.2,0-1.7-0.6-1.7-2.1c0-2,0.2-2.1,3.9-1.9l3.9,0.3l0.2,9.3l0.2,9.3h-2.5h-2.5
	L98.6,101.9z M113.6,101.9c0-6.9-0.1-7.5-1.7-7.5c-1.2,0-1.7-0.6-1.7-2.1c0-1.9,0.3-2.1,4.2-2.1h4.2v9.5v9.5h-2.5h-2.5V101.9z
	 M128.5,101.9c0-6.9-0.1-7.5-1.7-7.5c-1.2,0-1.7-0.6-1.7-2.1c0-1.9,0.3-2.1,3.7-2.1h3.7v9.5v9.5h-2.1
	C128.5,109.4,128.5,109.4,128.5,101.9L128.5,101.9z M14.8,79.4c0-6.9-0.2-7.6-1.7-8c-0.9-0.2-1.7-1.1-1.7-2c0-1.3,0.6-1.6,3.7-1.6
	h3.7v9.5V87h-2.1C14.8,87,14.8,86.9,14.8,79.4L14.8,79.4z M27.8,85c-1.9-1.8-2.2-2.7-2.2-7.4c0-4.1,0.4-5.8,1.6-7.4
	c2-2.6,5-3.4,8-2.2c3.6,1.4,4.4,3.2,4.5,9.3c0,4.9-0.2,5.9-2,7.7C34.9,87.7,30.7,87.7,27.8,85L27.8,85z M34.3,77
	c0-4.8-0.2-5.4-1.7-5.4c-1.4,0-1.7,0.6-1.9,4.5c-0.3,5.4,0.2,7,2.1,6.6C34,82.5,34.3,81.5,34.3,77L34.3,77z M47.1,79.1
	c0-7.3-0.1-7.9-1.7-7.9c-1.1,0-1.7-0.6-1.7-1.7c0-1.4,0.6-1.7,3.9-1.7h3.9l-0.3,9.5c-0.3,9.5-0.3,9.5-2.3,9.5
	C47.2,87,47.1,86.9,47.1,79.1L47.1,79.1z M63.8,79.4c0-6.9-0.2-7.6-1.7-8c-0.9-0.2-1.7-1.1-1.7-2c0-1.3,0.6-1.6,3.7-1.6h3.7v9.5V87
	h-2.1C63.8,87,63.8,86.9,63.8,79.4L63.8,79.4z M76.6,85c-1.7-1.7-2-2.8-2-7.3c0-3.1,0.5-5.9,1.1-6.8c1-1.3,0.9-1.9-0.5-4.3l-1.6-2.8
	H41.3H9l-0.6-3c-0.8-4,0.1-9.7,2.1-13.5c2.3-4.5,8.4-9.6,12.9-10.9c4.5-1.3,12.4-0.7,15.9,1.1l2.5,1.3l0.9-3.5
	c1.2-4.4,5.1-9.1,10-12c5.2-3.1,14.4-3.3,20.1-0.4c3.4,1.7,3.8,1.8,4.6,0.5c4.3-7.2,6.2-9.2,10.4-11.5c3.8-2.1,5.5-2.5,10.4-2.5
	s6.5,0.4,10.2,2.4c4.8,2.6,8.8,7.4,10.2,12.1c0.8,2.5,1.5,3.2,5,4.4c13.1,4.7,18,21.3,9.8,33c-1.7,2.4-1.8,2.4-10.4,2.4
	c-7.7,0-8.7,0.2-9.5,1.6c-1.3,2.4-1.1,2.5,2,2.5h2.9v9.5V87h-2.5h-2.5v-7.9c0-7.4-0.1-7.9-1.7-7.9c-0.9,0-2.6,0.6-3.7,1.3
	c-1.8,1.2-2,2-2,6.2s-0.3,5-2.2,6.5c-5.1,4-11,1-12.1-6.2c-0.1-0.9-0.9-1.8-1.7-1.9c-1.2-0.2-1.4,0.3-1.4,2.7c0,4.1-3,7.1-7.1,7.1
	C79.5,87,78,86.4,76.6,85L76.6,85z M83.5,78.8c0.2-2.7-0.1-3.9-1.2-4.7c-2.4-1.8-2.7-1.4-2.7,3.2c0,4.8,0.4,5.7,2.5,5.3
	C82.9,82.5,83.3,81.3,83.5,78.8z M101.4,81.5c0.3-0.7,0.5-2.3,0.5-3.4c0-1.6-0.3-2-1.3-1.6c-0.7,0.3-1.8,0.5-2.5,0.5
	c-1.2,0-1.7,4.2-0.6,5.3C98.5,83.3,100.9,82.9,101.4,81.5L101.4,81.5z M101,69.2c3.2-1.7,5.9-4.9,7.2-8.5l1.1-3.2l9.5-0.2l9.5-0.2
	l1.3-2.8c4.4-9.3-2.7-20.3-13.2-20.5l-3.7-0.1v-3.9c0-4.6-2.3-8.5-6.5-11.4c-6-4-13.1-3.2-18.5,2.1c-4.2,4.2-5.1,8-3.6,15.2
	c0.7,3.2,1.2,5.9,1.2,6.1c0,0.2-1.5,0.4-3.3,0.4c-3.4,0-3.6-0.2-4.5-4.3c-0.7-3-5.2-8.1-8.5-9.5c-5.9-2.5-12.2-0.9-16.6,4.1
	c-6.1,7-4.9,16.8,2.9,22.2C58,56.6,59.2,56.8,69,57c10,0.3,10.7,0.4,10.7,1.9c0,2.2,1.9,5.7,4.4,8.1C88.4,71.1,95.6,72,101,69.2
	L101,69.2z M44.3,52.3c-3.9-6.7-7.7-9.5-13.2-10c-7-0.6-12.4,2.7-15.1,9.2c-2.4,5.8-3.1,5.6,14.9,5.6h16.2L44.3,52.3z M125.5,86
	c-2.5-1.2-3.6-4.2-3.6-9.3c0-7.4,5-11.4,10.6-8.5c3.1,1.6,3.5,2.7,3.5,9.3c0,4.6-0.3,5.7-2,7.4C131.8,87.1,128.6,87.5,125.5,86
	L125.5,86z M131.3,81.5c1.7-4.4-0.4-11.1-3.1-10.1c-1.1,0.4-1.4,1.6-1.4,5.4c0,2.7,0.2,5.1,0.6,5.4
	C128.4,83.3,130.8,82.9,131.3,81.5z"/>
</svg>
