<?xml version="1.0" encoding="utf-8"?>
<!-- Generator: Adobe Illustrator 22.1.0, SVG Export Plug-In . SVG Version: 6.00 Build 0)  -->
<svg version="1.1"
	 id="svg8" inkscape:version="1.0beta2 (2b71d25, 2019-12-03)" sodipodi:docname="Icone_ARCHEOFOSS.svg" xmlns:cc="http://creativecommons.org/ns#" xmlns:dc="http://purl.org/dc/elements/1.1/" xmlns:inkscape="http://www.inkscape.org/namespaces/inkscape" xmlns:rdf="http://www.w3.org/1999/02/22-rdf-syntax-ns#" xmlns:sodipodi="http://sodipodi.sourceforge.net/DTD/sodipodi-0.dtd" xmlns:svg="http://www.w3.org/2000/svg"
	 xmlns="http://www.w3.org/2000/svg" xmlns:xlink="http://www.w3.org/1999/xlink" x="0px" y="0px" viewBox="0 0 146.8 150"
	 style="enable-background:new 0 0 146.8 150;" xml:space="preserve">
<sodipodi:namedview  bordercolor="#666666" borderopacity="1.0" id="base" inkscape:current-layer="layer1" inkscape:cx="463.87343" inkscape:cy="444.18605" inkscape:document-rotation="0" inkscape:document-units="mm" inkscape:pageopacity="0.0" inkscape:pageshadow="2" inkscape:window-height="809" inkscape:window-maximized="0" inkscape:window-width="1440" inkscape:window-x="0" inkscape:window-y="23" inkscape:zoom="0.7136804" pagecolor="#ffffff" showgrid="false">
	</sodipodi:namedview>
<g id="g85" transform="translate(2.224385,86.009554)" inkscape:export-xdpi="300" inkscape:export-ydpi="300">
	<path id="path68" inkscape:connector-curvature="0" sodipodi:nodetypes="cccsssccssssssscccccccccccscssccccscc" d="M33.3,45.3
		c-4-1.1-9.2-2.6-11.4-3.2l-4.1-1.2l1.3-5.7c2.4-10,2-11.4-5.5-22.7C3.4-2.8,1.7-10.4,3.7-30.9c1.4-14,2.2-18.1,3.8-18.6
		c2.1-0.7,5.1,1.9,6.3,5.2c0.5,1.6,1.2,8,1.5,14.2c0.5,11.2,0.5,11.5,3.2,16.9c2.9,5.9,9.3,14.7,9.3,12.9c0-0.6-0.5-3.8-1.1-7.1
		C25.4-14,25.2-18.8,26-21.3c0.6-2,3.6-3.3,5.4-2.3c0.8,0.4,4.4,8.4,9.2,20.6c7.6,19.3,7.9,20.2,8.3,26.6c0.3,5.1,0,7.6-0.9,10.6
		c-1.8,5.4-5.6,13.1-6.5,13C41,47.4,37.3,46.4,33.3,45.3z M99.2,42.2C95.7,35.1,95,32.1,95,25c0-6,0.1-6.3,8-26.7
		c4.4-11.3,8.6-21,9.3-21.5c1.4-1.1,3.8-0.5,5.1,1.1c1.2,1.6,1.1,7.2-0.2,15c-0.6,3.6-1,6.7-0.9,7.1c0.4,1.1,6.3-7.4,9.2-13.2
		c2.7-5.4,2.7-5.5,3.2-16.8c0.5-12.5,1.4-16.3,4.4-18.5c3.4-2.5,4.7-1.3,5.7,5.1c2.6,18.3,2.9,29,0.9,36.9
		c-1.7,6.7-3.6,10.6-9.5,19.4c-7.2,10.8-7.6,12.3-5.2,22.3c1,4.1,1.1,5.8,0.5,6c-1.7,0.6-22.8,6.2-23.2,6.2
		C102,47.5,100.7,45.1,99.2,42.2L99.2,42.2z"/>
	<path id="path81" inkscape:connector-curvature="0" sodipodi:nodetypes="ccccsssccccccccccssssccccccccccccsscccsccc" d="
		M87.7-61.5l14.4,8.4v16.9v16.9l-14.2,8.2c-7.8,4.5-14.4,8.2-14.7,8.2s-6.8-3.7-14.7-8.2l-14.2-8.2v-17v-17l13-7.5
		c7.1-4.1,13.6-7.9,14.4-8.4C73.1-69.8,74.9-68.9,87.7-61.5L87.7-61.5z M61.8-55L51-48.7v12.6v12.6l9.1,5.3c5,2.9,9.3,5.3,9.5,5.3
		s0.4-4.9,0.4-11c0-6-0.2-11-0.4-11s-2.7,1.8-5.6,4.1l-5.3,4.1l-1.9-1.9l-1.9-1.9l9.1-9.1l9.1-9.1l9.1,9.1l9.1,9.1l-1.9,1.9
		l-1.9,1.9l-5.2-4c-2.8-2.2-5.4-3.8-5.6-3.6c-0.5,0.5-0.6,21.4,0,21.4c0.2,0,4.5-2.4,9.5-5.3l9.1-5.3v-12.6v-12.6L84.5-55
		c-5.9-3.4-11.1-6.3-11.4-6.3C72.9-61.2,67.8-58.4,61.8-55L61.8-55z"/>
</g>
</svg>
