<?xml version="1.0" encoding="utf-8"?>
<!-- Generator: Adobe Illustrator 22.1.0, SVG Export Plug-In . SVG Version: 6.00 Build 0)  -->
<svg version="1.1"
	 id="svg8" inkscape:version="1.0beta2 (2b71d25, 2019-12-03)" sodipodi:docname="Icone_ARCHEOFOSS.svg" xmlns:cc="http://creativecommons.org/ns#" xmlns:dc="http://purl.org/dc/elements/1.1/" xmlns:inkscape="http://www.inkscape.org/namespaces/inkscape" xmlns:rdf="http://www.w3.org/1999/02/22-rdf-syntax-ns#" xmlns:sodipodi="http://sodipodi.sourceforge.net/DTD/sodipodi-0.dtd" xmlns:svg="http://www.w3.org/2000/svg"
	 xmlns="http://www.w3.org/2000/svg" xmlns:xlink="http://www.w3.org/1999/xlink" x="0px" y="0px" viewBox="0 0 146.8 150"
	 style="enable-background:new 0 0 146.8 150;" xml:space="preserve">
<sodipodi:namedview  bordercolor="#666666" borderopacity="1.0" id="base" inkscape:current-layer="layer1" inkscape:cx="463.87343" inkscape:cy="444.18605" inkscape:document-rotation="0" inkscape:document-units="mm" inkscape:pageopacity="0.0" inkscape:pageshadow="2" inkscape:window-height="809" inkscape:window-maximized="0" inkscape:window-width="1440" inkscape:window-x="0" inkscape:window-y="23" inkscape:zoom="0.7136804" pagecolor="#ffffff" showgrid="false">
	</sodipodi:namedview>
<path id="path66" inkscape:connector-curvature="0" inkscape:export-xdpi="300" inkscape:export-ydpi="300" d="M16.8,134.1
	c-5.1-5.1,12.7-44.4,26.8-59.3c8.1-8.5,11.1-9.1,19.7-4.1c6.6,3.9,6.4,5.8-1.3,13.5l-5.2,5.2l5.6-3.2c7.9-4.5,9.7-7.6,11.1-19.4
	c1.4-11.5,3.6-17.5,9-24.3c1-1.3,10.3-7.9,20.6-14.8c16.2-10.8,19.5-12.5,24-12.5c5.5,0,7.1,1.2,8.6,6.1c1.2,3.9-5.7,10.7-22.6,22
	C95.9,54.8,93.1,56.2,87,55.7c-5.1-0.4-5.2-0.4-6.8,5.3c-1.9,6.5-1.1,15.4,1.8,20c1.1,1.7,6.8,5.4,12.8,8.2
	c17.5,8.4,18.8,10.9,9.2,18c-15.8,11.7-38.1,19.8-68.7,25C18.6,135.3,18,135.3,16.8,134.1L16.8,134.1z"/>
</svg>
