<?xml version="1.0" encoding="utf-8"?>
<!-- Generator: Adobe Illustrator 22.1.0, SVG Export Plug-In . SVG Version: 6.00 Build 0)  -->
<svg version="1.1" id="Layer_1" xmlns="http://www.w3.org/2000/svg" xmlns:xlink="http://www.w3.org/1999/xlink" x="0px" y="0px"
	 viewBox="0 0 492 333.7" style="enable-background:new 0 0 492 333.7;" xml:space="preserve">
<style type="text/css">
	.st0{fill:#FFFFFF;}
</style>
<path d="M373.3,227.6c-0.1-1.2-0.2-2.4-0.2-3.6c0.1-2.9,0.2-5.8,0.3-8.7c0.1-3.1-0.2-3.4-2.5-3.4c-2.2-1.6-3.9-2.7-6.1-4.3
	c-0.1,2.5-0.2,4.3-0.2,6.1c-0.1,1.6-0.2,3.1-0.3,4.7c-0.3-0.3-0.7-0.6-1-0.9c0-2.9,0-5.8,0.1-8.7c0.1-1.5,0-2.7-2.1-3
	c-0.2,3-0.4,6-0.6,9c-0.2-0.2-0.3-0.3-0.5-0.5c-0.1-1.9-0.3-3.9-0.2-5.8c0.2-2.8-0.6-5-3-6.7c-1.9-1.4-3.5-3.3-5.2-5
	c-0.7-0.7-1.5-1.3-2.8-1.8c0,1.9,0.1,3.8,0,5.7c0,0.7-0.5,1.3-0.8,2c-0.2,0.5-0.3,1-0.2,1.5c1.2,7.7,1.1,15.5,1,23.2
	c-0.2,11.7-0.5,23.4-0.6,35.1c-0.1,7.9-0.1,15.8-0.2,23.7c-0.1,13.4-0.3,26.9-0.4,40.3c0,1.7,0.2,3.5,0.1,5.2c0,0.7-0.6,1.3-0.9,1.9
	c-0.4-0.6-0.9-1.3-1-1.9c-0.1-1.7-0.1-3.5-0.1-5.2c0.1-10.8,0.2-21.5,0.3-32.3c0-3.1,0-6.3,0.1-9.4c0.1-7.9,0.3-15.7,0.4-23.6
	c0.1-9.3,0.1-18.7,0.2-28c0.1-11.1,0.4-22.1,0.6-33.1c0-2.5,0.6-5,0.2-7.3c-0.3-1.6-1.7-3-2.7-4.5c-0.2,0-0.4,0.1-0.5,0.1
	c-0.1,0.7-0.3,1.5-0.3,2.2c-0.1,12.9-0.1,25.9-0.2,38.8c-0.1,11.4-0.3,22.8-0.4,34.1c-0.1,5.8,0,11.6-0.1,17.5
	c0,4.1-0.3,8.2-0.3,12.2c-0.1,4.1-0.1,8.3-0.1,12.4c-0.1,6.8-0.2,13.6-0.2,20.4c0,1.9,0,3.8,0.4,5.6c0.4,2-0.3,2.2-2.1,2
	c0.2-2.3,0.4-4.6,0.5-6.8c0.1-3.5,0.1-7.1,0.1-10.6c0.1-14.2,0.2-28.4,0.3-42.6c0.1-6.6,0.4-13.1,0.5-19.6
	c0.1-13.3,0.2-26.5,0.3-39.8c0-9.2,0-18.3,0-27.5c0-0.8-0.3-1.6-0.6-2.3c-2.4-5.1-4.9-10.2-7.1-15.4c-0.7-1.7-1.5-1.7-2.6-0.9
	c-2.5,1.9-3.9,4.3-3.9,7.6c0,6.1-0.5,12.3-0.5,18.4c-0.1,5.4,0.3,10.8,0.2,16.2c0,7.1-0.3,14.2-0.4,21.3
	c-0.2,12.6-0.3,25.2-0.5,37.8c-0.2,11.4-0.4,22.8-0.5,34.3c-0.1,8.9-0.1,17.8-0.2,26.7c0,0.7,0.2,1.5,0.1,2.2
	c-0.1,0.6-0.5,1.5-0.8,1.5c-1,0.1-1.4-0.5-1.4-1.6c0.3-5.8,0.5-11.5,0.6-17.3c0.1-8.2,0.1-16.3,0.2-24.5c0.1-8.4,0.3-16.8,0.4-25.2
	c0.1-13.3,0.1-26.5,0.2-39.8c0.1-9.2,0.5-18.3,0.7-27.5c0.1-5.8-0.1-11.6,0-17.4c0.1-3.2,0.2-6.5,0.8-9.6c0.2-1.3,1.8-2.4,2.8-3.4
	c0.6-0.6,1.4-1,2.3-1.3c1.1-0.4,1.2-1.1,0.9-2c-0.2-0.8-0.6-1.5-0.6-2.3c-0.1-1.2-0.8-1.6-1.8-1.6c-2.8-0.1-5.6-0.2-8.4-0.3
	c-7.4-0.1-14.7-0.2-22.1-0.3c-5.5-0.1-10.9-0.1-16.4,0c-2.6,0-5.1,0.4-7.7,0.5c-1.2,0-2.4-0.4-3.6-0.4c-6.6-0.1-13.2-0.1-19.9-0.1
	c-6.3,0-12.7-0.1-19-0.1c-0.8,0-1.5,0.6-2,0.8c-1.2-0.3-2.1-0.8-3.1-0.8c-13.1-0.1-26.1,0-39.2-0.1c-7.2,0-14.4,0-21.7-0.1
	c-1.7,0-2.7,0.4-2.8,2.2c0,0.5-0.3,1-0.5,1.5c-0.7,2-0.6,3.5,1.5,4.7c2.9,1.7,3.4,4.9,3.5,7.9c0.3,8.3,0.3,16.6,0.3,24.8
	c0,6.8-0.1,13.5-0.2,20.3c-0.1,14.3-0.3,28.7-0.4,43c-0.1,12.9-0.3,25.7-0.4,38.6c-0.1,5.1-0.3,10.3-0.3,15.4
	c0,4.2,0.1,8.4,0.3,12.7c0,0.8,0.5,1.5,0.9,2.6c-1-0.1-2.1-0.2-2.8-0.3c0.2-3.6,0.4-7.1,0.4-10.6c0.1-8.3,0.2-16.6,0.3-24.8
	c0-4.7,0-9.4,0.1-14c0.1-9.4,0.4-18.9,0.5-28.3c0.1-6.7,0-13.4,0.1-20.1c0.1-6.2,0.4-12.3,0.4-18.5c0-7.1-0.1-14.2-0.2-21.3
	c0-4.1-0.3-8.3,0-12.4c0.3-3.1,0.4-6.2-0.5-9.1c-0.6-1.8-1.5-3.5-2.7-5c-1.1-1.4-2-1-2.8,0.6c-2.5,5.1-5.2,10.1-7.5,15.3
	c-0.8,1.9-0.7,4.3-0.7,6.5c0,20.2,0,40.3,0,60.5c0,11.1-0.3,22.2-0.3,33.3c-0.1,14.1,0,28.1,0,42.2c0,1.9,0,3.7,0,6
	c-2,0-4,0-5.9-0.1c-0.2,0-0.6-0.9-0.6-1.4c0.2-5.9,0.7-11.8,0.8-17.6c0.1-12.5,0-25,0.1-37.5c0.1-6.8,0.4-13.7,0.5-20.5
	c0.1-2.3,0-4.7,0.3-7.1c0.1,0.6,0.3,1.2,0.3,1.8c-0.1,18.9-0.3,37.8-0.4,56.7c0,7.2,0.1,14.3,0.1,21.5c0,0.7,0,1.5,0.3,2
	c0.4,0.6,1.1,1.1,1.8,1.2c0.3,0.1,1-0.7,1.2-1.3s0.2-1.3,0.2-2c0.1-11.1,0-22.1,0.1-33.2c0.1-13.3,0.3-26.5,0.5-39.8
	c0.1-6.4,0.4-12.9,0.1-19.3c-0.3-6.2,0.1-12.3,0.1-18.4c0-1.1-0.3-2.1-0.2-3.2c0-1.7-1.1-1.8-2.3-1.9c-1.4,0-1.4,0.9-1.4,2.1
	c0,4.7,0,9.4-0.1,14.1c0,0.8-0.4,1.6-0.6,2.4l0,0c-0.1-12.4-0.2-24.7-0.3-37.1c-0.3-0.1-0.5-0.2-0.8-0.2c-2.1,2.1-4.1,4.3-6.3,6.3
	c-0.6,0.6-1.7,1-2.5,1c-1.3,0-1.8,0.4-1.9,1.7c-0.4,3-0.8,5.9-1.6,8.9c0-2.1,0-4.1,0-6.3c-1.6,0-2.5,0.7-2.5,2.1
	c-0.1,2.5,0.1,5,0.1,7.5c0,0.6-0.4,1.1-0.6,1.7c-0.2-0.1-0.4-0.1-0.7-0.2c0-2.3,0-4.6,0-6.9c0-0.6-0.4-1.2-0.6-1.8
	c-0.5,0.2-1,0.5-1.5,0.7c-1.5,0.8-2.9,1.6-4.4,2.2c-0.5,0.2-1.3-0.4-1.9-0.7c0.1-0.3,0.1-0.5,0.2-0.5c3.6-2.1,7.4-4.1,10.9-6.4
	c2.6-1.7,4.7-4.1,7.1-6.1c1.3-1.1,2.7-2.1,3.9-3.4c1.7-1.9,3.3-4,4.8-6.1c7.9-10.8,12.6-23.1,14.8-36.2c1.3-7.7,1.1-15.5-1.7-22.9
	c-1.6-4.4-3.2-8.9-5-13.3c-1.6-4-5-6.7-7.8-9.9c-4-4.6-8.8-8.3-13.8-11.5c-7.2-4.6-14.9-7.9-23.5-8.6c-3.8-0.3-7.6-0.4-11.4-0.5
	c-1,0-2,0.4-3,0.7c0,0.2,0,0.4,0,0.6c1.3,0,2.6,0,4,0c2,0,4,0,6,0.1c0.4,0,0.8,0.5,1.2,0.7v0.1c-0.4,0.1-0.9,0.3-1.3,0.3
	c-3.7,0-7.4-0.2-11,0.1c-5,0.4-9.9,1.2-14.5,3.5C82.5,92,81.2,92,80,92.2c-1,0.1-2.1-0.3-2.9,0.1C72.7,94,69,96.6,65.6,100
	c-3.8,3.8-7,7.8-9.6,12.4c-1.5,2.6-2.8,5.3-4.2,8c-0.2,0-0.3-0.1-0.5-0.1c0.2-1,0.3-2.1,0.7-3.1c0.7-1.7,1.7-3.3,2.5-5
	c3-6,7.2-10.9,12.2-15.2c5.6-4.6,12-7.7,18.9-9.8c4.9-1.5,9.7-3.1,14.7-4.2c2.7-0.7,5.7-0.8,8.5-0.8c7.8-0.2,15.6-0.3,23.4-0.3
	c4.2,0,8.4,0.3,12.6,0.7c3.7,0.3,7.4,0.9,11.1,1.4c7.5,1,15,2,22.6,3.1c4.1,0.6,8.3,1.4,12.4,2.2c4.6,0.8,9.1,1.8,13.7,2.6
	c6.2,1,12.5,2,18.8,2.7c3.7,0.5,7.5,0.5,11.2,0.8c2.4,0.2,4.7,0.5,7.1,0.8c0.4,0.5,0.9,0.9,1.3,1.4c-0.6,0.1-1.3,0.3-1.9,0.3
	c-8.5-0.8-17.1-1.5-25.6-2.6c-8-1.1-15.9-2.6-23.9-4c-0.3,0.5-0.6,1-0.7,1.2c-1.2-0.8-2.2-1.6-3.4-2c-1.1-0.4-2.4-0.3-3.6-0.5
	c-7.3-1.1-14.5-2.2-21.8-3.2c-4.2-0.6-8.5-1.1-12.7-1.6c-4.4-0.5-8.8-0.9-13.2-1.4c-0.8-0.1-1.7,0.1-2.5,0.1
	c0.2,0.6,0.3,0.8,0.5,0.8c3.3,0.6,6.8-0.1,10,1.2c0.4,0.2,0.9-0.1,1.4,0c1,0,2,0,3,0.2c3.1,0.6,6.1,1.4,9.2,1.9
	c7.5,1.4,14.9,2.7,22.4,4c6.9,1.2,13.8,2.5,20.7,3.7c6.3,1.1,12.6,2.2,19,3.1c11.3,1.7,22.6,2.4,34,2.1c7.3-0.2,14.6-0.3,21.9-1
	c8-0.8,16-2.1,24-3.4c5.2-0.8,10.3-2.1,15.5-3.2c8.9-1.9,17.8-4,26.7-5.5c9.9-1.7,19.9-2.9,29.9-4.3c2.8-0.4,5.7-0.6,8.5-0.8
	c0.4,0.4,0.8,0.9,1.2,1.3c-0.9,0.6-1.7,1.3-2.7-0.1c-0.3-0.4-2.8,0.1-3,0.6c-0.8,2.4-3.2,2-4.7,2.8c-3.9,2.1-8.3,3.5-11.9,6
	c-5.1,3.5-10,7.4-13.6,12.6c-2.7,3.8-5.6,7.5-7.4,11.7c-2.2,5.1-3.7,10.6-5,16c-1.7,7.5-1.4,15.2,0.1,22.7c1,5.1,3.2,10,4.5,15.1
	c1.7,6.4,5.5,11.7,8.9,17.1c2.1,3.3,4.9,6.2,7.8,8.8c4.3,3.8,8.7,7.6,13.5,10.6c4.5,2.8,9.6,4.4,14.4,6.6c5.4,2.5,11.2,2.6,16.8,3.2
	c4.9,0.5,9.9,0.1,14.8,0.1c0.7,0,1.5,0,2.4,0c-0.9,1.9-2.1,2.7-4.2,2.8c-9,0.2-17.8-0.9-26.5-3c-1.7-0.4-3.4-1.2-5.1-1.8
	c-0.6-0.2-1.2-0.3-2.2-0.6c0,10.5,0,20.7,0,30.9c-0.2,0.1-0.4,0.2-0.7,0.4c-0.4-0.5-1-1-1-1.6c0-4.5,0.1-9,0.2-13.4
	c0.1-5,0.3-10,0.4-15c0-1.2-0.1-2.5-2-2.6c-0.1,0.8-0.3,1.5-0.3,2.3c-0.1,3.6-0.1,7.1-0.2,10.7c0,0.5-0.2,1-0.3,1.5
	C373.6,227.9,373.5,227.8,373.3,227.6z M226,123.2c0.7,3.2,1.2,6.4,2.2,9.5c1.1,3.4,2.5,6.7,3.8,10.1c0.3-0.1,0.6-0.1,0.9-0.2
	c-0.3-1.8-0.2-3.9-0.9-5.5c-3-6.1-3.8-12.5-3.4-19.2c0.2-2.9-0.1-3.2-3.3-2.2c0,0.7-0.1,1.6,0,2.3
	C225.5,119.7,225.8,121.5,226,123.2c-0.4-0.3-1-0.6-1-1c-0.4-1.9-0.5-3.8-0.9-5.6c-0.1-0.5-0.8-1-1.2-1.4c-0.3,0.5-0.8,1.1-0.8,1.6
	c0,0.8,0.4,1.7,0.7,2.5c2.3,6.1,2.8,12.4,2.9,18.9c0,0.6,0.1,1.5,0.5,1.9c2,2,4.1,4,6.1,5.9c-0.9-2.9-2.3-5.6-3.2-8.4
	c-1.4-4.3-2.5-8.6-3.7-13C225.3,124.2,225.8,123.7,226,123.2z M207.1,141.6c-0.4-0.1-0.9-0.1-1-0.4c-1.8-2.5-4-4.8-5.1-7.6
	c-1.5-4-2.2-8.3-3.1-12.5c-0.3-1.4-0.2-2.8-0.6-4.2c-0.2-0.6-1-1-1.6-1.4c-0.4,0.5-1.1,1-1.1,1.5c-0.2,5.7,1.4,11,4.2,15.9
	c2,3.5,4.5,6.8,6.7,10.2c-1.3-1-2.6-2-3.8-3c-0.6-0.5-1.2-1.2-1.8-1.8c-0.2,0.1-0.5,0.2-0.7,0.3c0,2.2-0.1,4.5,0.1,6.7
	c0,0.7,0.8,1.8,1.2,1.8c3,0.2,6.1,0.1,9.6,0.1c-0.9-0.7-1.5-1.1-2-1.6c-0.9-0.8-1.7-1.7-2.5-2.6c0.4,0.2,0.9,0.3,1.3,0.6
	c3,1.8,5.8,3.9,9.6,3.9c3.8,0.1,5.7-0.9,6.9-4.6c1.1-3.5,0.8-6.9,0.6-10.5c-0.3-5.4-2.3-10.4-3.7-15.5c-0.3-1.1-0.9-2-2.1-1.4
	c-0.3,0.1-0.1,1.5,0.1,2.2c0.9,3.4,1.9,6.7,2.8,10.1c-0.2,0.2-0.3,0.4-0.5,0.5c-0.1-0.4-0.3-0.7-0.4-1.1c-1-3.2-2-6.4-3.2-9.5
	c-0.4-1-1.5-2.4-2.3-2.4c-3.5-0.2-7,0-10.4,0.2c-0.7,0-1.8,0.8-1.9,1.4c-1,6.2-0.1,12,3.5,17.3c1.2,1.8,2.4,3.5,3.6,5.3
	C208.6,140.2,207.9,140.9,207.1,141.6z M250.2,105.2c0.2-0.2,0.3-0.5,0.5-0.5c1.5-0.1,3-0.2,4.5-0.2c4.1-0.2,8.3-0.4,12.4-0.7
	c3.1-0.3,6.2-0.7,9.3-1.2c0.4-0.1,0.7-0.6,1-0.9c-0.4-0.3-0.8-0.6-1.2-0.7c-0.4-0.1-0.9,0-1.4,0c-4.1,0.4-8.3,1-12.4,1.1
	c-6,0.2-12,0.2-18,0.2c-9.3-0.1-18.6-0.6-27.7-2.5c-4.3-0.9-8.7-1.4-13-2.2c-3.9-0.7-7.8-1.8-11.7-2.5c-5.4-1-10.8-1.8-16.2-2.8
	c-8.8-1.5-17.6-3.3-26.5-4.6c-6.5-1-13.2-1.4-19.8-1.9c-2.5-0.2-5,0-7.4,0c0,0.2-0.1,0.4-0.1,0.6c1,0.3,2.1,0.7,3.1,0.8
	c3.3,0.3,6.7,0.3,10,0.7c6.2,0.6,12.4,1.2,18.5,2.1c5.7,0.9,11.3,2.2,16.9,3.4c7.4,1.6,14.7,3.4,22.1,4.8c7.1,1.4,14.3,2.6,21.5,3.6
	c6.5,0.9,13,1.4,19.5,2.1c3.2,0.3,6.4,0.8,9.7,1.2c-0.5,0.5-0.9,0.9-1.4,1.4c-1.9,0.1-3.8,0.4-5.7,0.2c-7.9-0.9-15.8-2-23.6-3.1
	c-5-0.7-10-1.6-15-2.4c-1.2-0.2-2.4-0.3-3.9-0.4c0.2,0.6,0.3,1,0.5,1.2c1.8,3.6,1.5,4.1-2.5,5c-2,0.5-4,0.8-6.1,1.2
	c0.3,1,0.6,1.6,0.7,2.4c0.2,1.1-0.1,2.8,0.5,3.1c0.9,0.5,2.3,0,3.5,0c7.9,0,15.9-0.1,23.8,0c13.4,0.1,26.9,0.2,40.3,0.3
	c7.5,0.1,15,0,22.5,0c8.8,0,17.7,0,26.5,0.1c5.4,0,10.7,0.2,16.1,0.3c0.6,0,1.1-0.1,1.9-0.3c-0.4-0.9-0.6-1.6-0.9-2.3
	c-1.3,0.6-2.4,1.1-3.5,1.5c-2.8,1-4.9-0.1-5.7-2.8c-0.4-1.2-0.6-2.4-0.8-3c-2.3,0-4.4,0.3-6.4,0c-2.1-0.4-3-2.1-3-4.2
	c0-0.5-1-1.3-1.4-1.3c-3.5,0.4-7,0.9-10.5,1.4c-5,0.7-10,1.5-15.1,2.1c-4.4,0.5-8.8,1-13.2,1.2c-3.4,0.2-6.9-0.1-10.3-0.1
	C250.8,105.9,250.5,105.6,250.2,105.2z M331.2,156.5c-0.2-1.6-0.3-2.7-0.4-3.8c-0.1-3.1-0.4-3.5-3.5-3.5c-7.8,0-15.5,0.1-23.3,0.1
	c-3.3,0-6.5,0-9.8-0.1c-2.7,0-5.4-0.2-8.2-0.2c-3.5,0.1-6.9,0.4-10.4,0.4c-6,0-12-0.1-18-0.3c-4.5-0.1-9.1-0.3-13.6-0.4
	c-14-0.1-28-0.1-41.9-0.2c-10.4-0.1-20.9-0.2-31.3-0.3c-3.9,0-3.7-0.3-3.9,3.2c-0.1,0.8-0.2,1.6-0.4,2.4c-0.5,1.5,0,2.1,1.5,2.1
	c4.4,0.1,8.8,0.3,13.2,0.3c10.6,0.1,21.3,0,31.9,0c12.3,0,24.5,0,36.8,0c9,0,18,0,27.1,0c12.7,0,25.5-0.1,38.2-0.1
	c2.8,0,5.6,0.2,8.4,0.2C326,156.6,328.5,156.5,331.2,156.5z M244.9,115c0,0.1,0,0.2-0.1,0.3c-1.3,0-2.6-0.1-3.8,0.1
	c-0.7,0.1-1.6,0.7-1.8,1.2c-1.3,4.9-2.6,9.8-1.4,15c0.3,1.3,1.1,2.5,1.3,3.8c0.4,2.6,1.7,4.5,3.8,5.8c2.4,1.6,4.4,1.2,6.7-0.6
	c1.8-1.4,2.4-3.4,3.4-5.3c3-5.7,3-11.8,2-17.9c-0.4-2.1-1.2-2.4-3.2-1.4c-0.3,0.1-0.6,0.3-0.9,0.2
	C248.9,115.8,246.9,115.4,244.9,115z M275.2,138.1c0,1.1-0.1,2.2,0,3.2c0.3,2.5,1.5,3.5,4,3.4c3.6,0,5.9-2.1,7.4-5
	c3.6-6.4,6.3-13.1,6.5-20.5c0.1-2.8-0.3-3.4-3.1-3.5c-0.4,0-0.8-0.1-1.2-0.1c-2,0.1-3.8,0.3-5.4,2
	C278.1,123.4,276.2,130.5,275.2,138.1z M320.5,115.8c-4.5,0.2-4.1-1-5.4,4.6c-1,4.3-2.6,8.4-3.9,12.6c-0.9,2.7-2,5.2-2.6,7.9
	c-0.4,1.8,0.9,3.2,2.7,3.1c1.4-0.1,3-0.5,4.1-1.4c3.3-2.5,5.2-6.2,6.4-10c1.3-4,1.9-8.3,2.5-12.5C325,115.7,324.8,115.7,320.5,115.8
	z M179.8,115.3c-2.5,0-4.6,0-6.7,0c-1.9,0-2.6,1-2.5,2.8c0.1,1.6,0.2,3.2,0.4,4.8c0.8,5.8,2.3,11.4,6.1,16c1.1,1.4,2.6,2.5,4.1,3.4
	c1.4,0.9,2.9,0.5,4-0.7c1-1,1-2.2,0.3-3.5c-0.9-1.7-1.6-3.5-2.2-5.3c-1.6-4.8-3.9-9.4-3.5-14.6C179.9,117.4,179.8,116.5,179.8,115.3
	z M129,88.1c0,0.2,0,0.4,0,0.6c4.6,2.4,9.2,4.9,13.8,7.3c0.3,0.2,0.7,0.4,1,0.7c2.7,2.6,5.4,5.2,7.9,8c1.7,1.9,3.9,1.7,5.7,0.9
	c1.1-0.5,2.2-2.3,2.3-3.6c0.1-2.1-0.5-4.2-1.1-6.2c-0.8-3-3.2-4.3-6.1-4.7c-4-0.5-7.9-1.2-11.9-1.7C136.6,88.9,132.8,88.5,129,88.1z
	 M365.8,87.9c-0.1-0.2-0.1-0.4-0.2-0.6c-1,0.2-1.9,0.5-2.9,0.7c-6,1.2-11.9,2.3-17.9,3.5c-2,0.4-3.9,0.9-5.8,1.3
	c-2.8,0.6-5.2,4.3-4.7,7.3s3.1,4.5,6.5,4.2c3.2-0.4,5.2-2.5,7.3-4.5c4.5-4.3,9.4-7.9,14.9-10.9C363.9,88.4,364.9,88.2,365.8,87.9z
	 M279.9,100.3c0,0.3-0.1,0.6-0.1,0.9c0.7,0.2,1.4,0.6,2.1,0.6c2.4-0.2,4.8-0.5,7.2-0.8c4-0.5,8.1-0.8,12.1-1.5s7.9-1.8,11.9-2.7
	c2.9-0.7,5.8-1.5,8.7-2.1c2.8-0.6,5.6-0.8,8.3-1.5c4.4-1.2,9-1.9,13.5-2.8c5.2-1,10.4-2.1,15.6-2.9c3-0.5,6-0.4,8.9-0.9
	c1.8-0.3,3.6-1.1,5.3-1.6c-0.4-0.6-0.7-0.8-1-0.7c-4.5,0.5-9.1,0.8-13.6,1.5c-5.6,0.9-11.2,2.1-16.7,3.1c-5.5,1.1-11,2.1-16.5,3.2
	c-4.7,1-9.3,2.3-14,3.2c-6.3,1.2-12.6,2.2-18.9,3.4c-0.9,0.2-1.7,0.6-2.6,0.7C286.7,99.6,283.3,99.9,279.9,100.3z M331.7,116
	c-3.1-0.4-3.3-0.2-3.6,2.3c-0.3,2.1-0.4,4.3-0.8,6.4c-1.1,5.6-2.4,11-5.8,15.8c-2.1,3-4.9,4.3-8,4.4c-4.3,0.2-7.4-1.1-5.6-6.6
	c0.8-2.3,2-4.5,2.7-6.9c1.3-4.5,2.4-9.1,3.5-13.7c0.1-0.5-0.5-1.7-1-1.9c-1.3-0.4-1.5,0.8-1.6,1.7c-0.3,2.1-0.2,4.2-0.6,6.2
	c-0.9,5-2.3,9.9-4.5,14.5c-0.5,1-0.7,2.1-1.3,3.1c-0.8,1.3-0.5,3.5,0.9,4.2c6.8,3.3,14.3,0.9,18.4-5.3c3.8-5.9,5.7-12.5,7.1-19.2
	C331.8,119.3,331.6,117.6,331.7,116z M233.7,115.5c-2.6-0.7-3.6-0.1-3.5,2.9c0.1,3.7-0.1,7.3,0.6,11c1.2,5.6,3.3,10.5,7.4,14.4
	c4.1,3.9,8.3,4.8,13.4,1.4c2.7-1.8,4.7-4,6.4-6.8c3.8-6.1,5.8-12.6,6-19.8c0-0.8-0.1-1.8-0.5-2.5c-0.2-0.4-1.1-0.7-1.6-0.7
	c-0.3,0-1,0.6-1,0.9c0.3,2.8-0.9,5.8,0.8,8c-0.5,1-1.1,1.7-1.3,2.6c-1.4,5-2.9,10-6.2,14.2c-3.6,4.5-7.8,5.9-12.6,3.2
	c-2.9-1.6-4.8-4.6-6-7.7C232.9,129.8,232.2,122.7,233.7,115.5z M158.2,92.3c0.7,1,1.3,1.5,1.4,2.1c0.4,2.1,1.8,2.7,3.6,2.8
	c7.7,0.8,14.8,3.7,21.7,7.2c2.3,1.2,5.4,0.7,8.2,0.8c0.5,0,1.5-1.1,1.4-1.3c-0.8-1.5-1.6-3.6-2.8-4c-4.5-1.5-9.1-2.5-13.7-3.5
	c-4.2-1-8.4-1.8-12.7-2.7C163,93.2,160.8,92.8,158.2,92.3z M311.7,105.4c0.1,0.2,0.2,0.5,0.3,0.7c0.1,0.6,0,1.3,0.3,1.9
	c0.5,1.2,0.9,2.7,1.8,3.3c1.8,1,5.7-0.3,7.1-2.1c2.8-3.6,6.2-6.7,10.2-8.9c1.5-0.9,1.9-2.1,1.7-4c-1.8,0.3-3.6,0.2-5.1,0.9
	C322.5,99.8,317.1,102.7,311.7,105.4z M181.9,115.1c-0.2,0-0.5,0-0.7-0.1c-0.2,0.6-0.6,1.3-0.5,1.9c0.5,3.2,0.8,6.5,1.7,9.6
	c1.2,4.2,3.1,8.2,4.4,12.5c1.1,3.6-0.7,5.9-4.4,6.2c-3.1,0.3-5.7-1-7.6-3.3c-4-4.7-6.2-10.3-7-16.4c-0.4-3.3-0.5-6.7-0.7-10.2
	c-1.4-0.4-2.2,0.3-2.1,1.7c0.1,2.3,0.2,4.6,0.7,6.8c1.6,6.8,3.5,13.4,8.2,18.9c3.1,3.6,6.6,5.2,11.3,4.5c2.6-0.4,4.1-1.9,4-4.6
	c-0.1-1.6-0.4-3.3-0.9-4.9s-1.5-3-2-4.6c-1.9-5.4-3.6-10.9-3.8-16.7C182.4,116,182.1,115.5,181.9,115.1z M164,98.5
	c0,0.1-0.1,0.2-0.1,0.3c-0.3,0-0.6-0.1-0.8,0c-0.5,0.2-1.1,0.5-1.6,0.7c0.4,0.5,0.7,1,1.2,1.4c0.3,0.2,0.8,0.2,1.1,0.4
	c3.8,1.4,7.2,3.3,10.3,6c2.9,2.5,5.3,5.9,10.1,5.5c1.5-0.1,1.8-0.4,1.7-1.5c-0.3-2.1-1.3-3.8-3-5.2c-2.8-2.5-6.6-2.7-9.7-4.9
	C170.8,99.5,167.1,99.4,164,98.5z M296.5,145.4c5.7-2.8,11.2-22.9,9.5-29.6c-1.9-0.6-2.7,0.1-2.8,2.1c-0.2,5-1.3,9.8-3.9,14.2
	c-2.1,3.5-3.6,7-2.8,11.2C296.6,144,296.5,144.6,296.5,145.4z M197.7,145c0.3-3.2,0.6-5.8,0.8-8.3c0-0.6-0.3-1.2-0.5-1.7
	c-2.6-5.9-5.4-11.8-4.9-18.6c0-0.4-0.7-1.1-1.2-1.1c-1-0.1-2.1,0.1-3.2,0.2C188.8,126.1,192.9,135.3,197.7,145z M234,121
	c0.2,5.9,0.6,11.3,2.8,16.4c1.8,4.2,6,7.2,10.4,7c3.2-0.1,4.9-2.7,6.6-4.7c4.9-6.1,5.7-13.5,6-21c0-0.7-0.1-1.6-0.5-2.1
	s-1.3-0.7-1.9-1c-0.2,0.5-0.7,1.1-0.6,1.6c0.1,1.4,0.4,2.8,0.5,4.2c0.4,7.3-0.7,14.2-6,19.5c-3.3,3.2-7.1,4.3-10.2,0.3
	c-1.7-2.1-3.1-4.6-4-7.1c-1.8-5.5-1.2-11.2,0-16.8c0.1-0.6-0.2-1.6-0.6-1.8c-1.1-0.5-1.8,0.2-2,1.3C234.3,118.3,234.2,119.9,234,121
	z M282,146.7c-1.1-0.1-2.2-0.2-3.3-0.3c-2.8-0.4-5.6-1.2-6.3-4.3c-0.5-2.2-0.8-4.7-0.3-6.9c1.4-6.8,3.7-13.2,7.5-19.1
	c0.1-0.1,0-0.2,0-0.4c-1.9-0.6-3.1,0.2-3.7,2c-0.6,1.5-1.2,3-1.8,4.5c-2.3,6.5-4.3,13.1-3.7,20.1c0,0.4-0.2,0.7-0.3,1
	c-0.5-0.2-1.2-0.6-1.4-0.5c-1.7,1.4-3.4,2.9-5.5,4.8c3.3,0,5.9,0,8.6,0c-0.7-1.2-1.2-2.2-1.7-3.2c0.1-0.1,0.2-0.2,0.4-0.3
	C273.3,148.7,277.6,148,282,146.7z M334.6,94.7c0-0.2-0.1-0.5-0.1-0.7c-1.1,0.1-2.2,0.1-3.3,0.3c-3.7,0.8-7.3,1.7-11,2.5
	c-0.6,0.1-1.3,0.2-2,0.3c-2.4,0.7-4.8,1.4-7.2,2.1c-2.2,0.6-4.4,1-6.5,1.8c-0.7,0.3-1.5,1.6-1.5,2.4c0,0.6,1.2,1.7,1.9,1.8
	c2.8,0.4,5.6,0,8.1-1.6c5.8-3.9,12-6.8,19-8C332.8,95.4,333.7,95,334.6,94.7z M187.5,115c-1.1,0.4-2.9,0.7-3,1.2
	c-0.3,1.9-0.5,4,0.1,5.7c2,5.9,4,11.7,6.6,17.4c1,2.2,3.2,3.8,4.9,5.7c0.3-0.2,0.5-0.3,0.8-0.5C190.8,135.7,188.8,125.8,187.5,115z
	 M263,145.3c3.3-1.9,5.6-4.3,6.1-8.1c0.3-2.4,0.6-4.9,1.2-7.3c1.3-4.7,2.8-9.4,4.3-14.2c-0.4,0-1,0-1.6,0c-2.6-0.1-2.9,0.2-3.2,2.8
	c-0.3,2-0.5,4-0.9,5.9c-1.1,4.9-2.3,9.7-3.6,14.5C264.6,141.1,263.7,143.1,263,145.3z M261.5,145.4c0.3-0.4,0.6-0.9,0.8-1.4
	c1.5-4.8,3.3-9.5,4.4-14.4c1-4.1,1.4-8.4,1.9-12.6c0-0.4-0.4-1-0.7-1.2c-1.7-0.9-2.5-0.3-2.4,1.9c0.3,7.4-1.7,14.2-5.4,20.6
	c-0.2,0.4-0.4,1-0.3,1.4C260.4,141.5,260.9,143.3,261.5,145.4z M298.5,115.8c-0.7,4-0.9,7.8-2,11.4s-2.7,7.2-4.7,10.5
	c-1.8,2.9-4.4,5.4-6.7,8.2c6.2-2.9,9.2-8.4,12.3-13.6c2.5-4.1,3.3-9,4.1-13.7c0.5-2.7,0.3-3.1-2.5-2.9
	C298.7,115.8,298.4,115.8,298.5,115.8z M170.9,113.4c3.3,0.2,4.1-0.8,2.8-3.4c-2.1-4.2-5.9-6.4-10.3-7.5c-0.4-0.1-1.2,0.3-1.3,0.6
	c-0.1,0.6-0.1,1.3,0.2,1.8c1.2,1.9,2.6,3.7,3.8,5.6C167.3,112.4,168.7,113.7,170.9,113.4z M149.7,212.5c3-1.3,3.5-3.3,3.4-5.7
	c-0.1-4.3,0.1-8.7,0-13c0-1.6-0.2-3.2-0.3-4.8c-0.2,0-0.4,0-0.6-0.1c-1.4,1.6-2.6,3.2-2.6,5.5c-0.1,4.7-0.1,9.4-0.2,14
	C149.4,209.7,149.6,211,149.7,212.5z M325.4,114.6c0.9-0.6,2-1.1,2.7-2c2-2.8,3.9-5.7,5.7-8.6c0.3-0.5,0-1.6-0.4-2.2
	c-0.2-0.4-1.4-0.5-1.8-0.2c-1.6,1.1-3.2,2.4-4.7,3.7c-2,1.7-3.3,3.8-3.9,6.4C322.6,113.5,323.1,114.2,325.4,114.6z M298.3,145.6
	c0.2,0.2,0.5,0.3,0.7,0.5c0.4-0.3,0.8-0.7,1.2-1c3.4-3.2,4.8-7.4,6.3-11.6c0.9-2.5,1.6-5.2,2.1-7.9c0.5-2.7,0.8-5.4,1-8.1
	c0.1-1.7-0.7-2.1-2.3-1.5C306.8,126.6,305.5,137,298.3,145.6z M289.9,158c0,0.3,0,0.6,0,0.9c13.8,0,27.6,0,41.4,0c0-0.2,0-0.5,0-0.7
	C317.4,157.3,303.6,158.3,289.9,158z M338.4,106.3c-0.7-0.4-1.4-1.1-2.3-1.3c-0.6-0.2-1.7,0.1-2,0.6c-1,1.7-1.8,3.5-2.7,5.3
	c-0.6,1.2-0.1,2.2,1,2.6c0.9,0.3,2.5,0.2,2.8-0.3C336.4,111.1,337.2,108.9,338.4,106.3z M289.2,138.9c3.1-2.7,4.7-6.2,5.7-9.8
	c1.1-4,1.3-8.1,1.8-12.2c0-0.3-0.6-0.8-0.9-1.2c-0.3,0.4-0.7,0.7-0.9,1.1c-0.2,0.4,0,0.9,0,1.4c0.2,5.4-1,10.5-3.4,15.3
	C290.7,135.2,290,137.1,289.2,138.9z M157.3,107.8c0.3,3.1,3.3,5.8,6.3,5.5c0.5,0,1.4-1.1,1.3-1.4c-1-2.3-1.7-4.9-4.2-6.1
	C159.4,106.5,158.4,107.1,157.3,107.8z M286.6,147.6c0.3,0,0.6,0.1,1,0.1c0.5,0,0.9-0.1,1.4-0.1c6.2,0.2,6.3,0.5,6.4-6.1
	c0-0.5-0.1-1-0.2-2C292.2,142.4,289.4,145,286.6,147.6z M325.6,141c-2.6,2.3-5,4.5-7.6,6.7c0.6,0.1,0.9,0.2,1.2,0.2
	c1.3,0,2.7-0.1,4-0.2c3.1-0.3,3.6-0.7,3.6-3.8C326.7,143,326,142.1,325.6,141z M222.6,147.4c3.2,0,6.1,0,9,0
	c0.1-0.2,0.2-0.3,0.2-0.5c-1.9-1.7-3.9-3.5-6-5.4C224.7,143.4,223.7,145.2,222.6,147.4z M251.7,147.6c1.8,0,3.3,0,4.8,0
	c3.2-0.1,3.7-0.6,3.4-3.9c-0.1-1-0.3-1.9-0.5-3.2C256.7,142.9,254.3,145.1,251.7,147.6z M330.8,136.2L330.8,136.2
	c0-0.7,0.1-1.5,0.1-2.2c0-0.3-0.4-0.9-0.6-0.9c-0.4,0-0.9,0.2-1.1,0.6c-0.8,1.7-1.7,3.3-2.2,5.1c-0.3,0.9,0,2.1,0.4,3
	c0.2,0.4,1.3,0.7,2,0.6c0.4,0,0.9-0.9,0.9-1.4C330.6,139.4,330.7,137.8,330.8,136.2z M330,131.8c0.2,0.1,0.4,0.3,0.6,0.4
	c0.4-0.5,0.9-1,1.1-1.6c0.9-2.8,1.7-5.7,2.6-8.6c0.5-1.5,1.2-3,1.6-4.5s-0.5-1.9-1.6-1.4c-0.5,0.2-1,1.1-1.1,1.8
	c-0.6,3.1-1.1,6.1-1.8,9.2C331.1,128.7,330.5,130.2,330,131.8z M170.4,140.3c-0.2,0-0.4,0-0.6,0c0,1.9,0,3.8,0,5.8
	c0,0.3,0.6,0.9,0.9,0.9c1.8,0.1,3.6,0,5.7,0C174.2,144.6,172.3,142.5,170.4,140.3z M166.2,130.2c-0.2,0.1-0.3,0.1-0.5,0.2
	c0.3,1.8,0.7,3.7,0.9,5.5c0.3,1.9,0.5,3.8,0.7,5.7c0.2,1.7-0.6,3.6,0.7,5.2c0.5-2.9,0.9-5.6,1.4-8.3c0-0.2,0-0.4-0.1-0.6
	C168.4,135.3,167.3,132.8,166.2,130.2z M191.6,141.1c-0.8,2.5-1.4,4.3-2,6.1c2.4,0,4.8,0,7.2,0c0.1-0.2,0.1-0.3,0.2-0.5
	C195.3,144.9,193.6,143.1,191.6,141.1z M326.6,116.1c-0.9,7.5-2.1,14.8-5.1,21.7C324.4,135,327.6,122.7,326.6,116.1z M260.3,158.3
	c-9.3,0-18.6,0-27.9,0c0,0.2,0,0.3,0,0.5C241.7,158.5,251,159.3,260.3,158.3z M280.6,118c-3.6,2.1-8.9,18.6-7,22.1
	C274.3,132,276.6,125,280.6,118z M287.5,158.6c0-0.1,0-0.2,0-0.4c-8.6,0-17.2,0-25.7,0c0,0.1,0,0.2,0,0.4
	C270.4,158.6,278.9,158.6,287.5,158.6z M164.7,125.2c0.1,0,0.2,0,0.2-0.1c0-0.4-0.1-0.7-0.1-1.1c-0.3-2.1-0.6-4.2-0.9-6.3
	c-0.1-0.9,0-2.2-0.5-2.5c-0.6-0.4-1.8-0.1-3.2-0.1C161.9,118.9,163.3,122.1,164.7,125.2z M169,116.1c-2.1,4.2,1.1,19.3,5,21.6
	C170.2,130.6,168.4,123.6,169,116.1z M201.4,131.3c-0.6-5.1-1.3-10.3-1.9-15.4c-0.2,0-0.5,0.1-0.7,0.1
	C198.7,121.3,198.8,126.6,201.4,131.3z M234,141.6c0.4,2.1,0.2,4.3,1.2,5.3c0.9,0.9,3.1,0.6,4.7,0.8c0-0.2,0.1-0.4,0.1-0.6
	C238.3,145.5,236.4,143.8,234,141.6z M342.3,106.3c-0.1-0.1-0.2-0.3-0.2-0.4c-1,0.6-2.3,1-2.8,1.9c-1.1,1.6-1.7,3.4-2.5,5.2
	c-0.1,0.3,0,0.8,0.1,1.2c0.4-0.2,0.9-0.3,1.1-0.6C339.4,111.1,340.9,108.7,342.3,106.3z M306.4,148c0-0.2,0.1-0.3,0.1-0.5
	c-0.7-0.6-1.6-1.2-2.1-1.9c-0.8-1.1-1.5-1.2-2.4-0.3c-0.7,0.6-1.3,1.2-2,1.9c0,0.2,0.1,0.4,0.1,0.6
	C302.3,147.8,304.4,147.9,306.4,148z M331.1,145.9c-1-1-1.6-2.1-2.2-2.2c-1.6-0.1-1.5,1.4-1.5,2.5s0.2,2,1.5,1.7
	C329.6,147.7,330.1,146.9,331.1,145.9z M192.4,158.6c0-0.2,0-0.3,0-0.5c-3.2,0-6.5,0-9.7,0c0,0.2,0,0.3,0,0.5
	C185.8,158.6,189.1,158.6,192.4,158.6z M126.8,83c0,0.3,0,0.5-0.1,0.8c1.7,0,3.4,0,5.2,0c0-0.2,0-0.4,0-0.5
	C130.2,83.2,128.5,83.1,126.8,83z M121,83.7c0-0.3,0-0.6-0.1-0.9c-2,0.3-4,0.6-6.1,0.9C117,83.7,119,83.7,121,83.7z"/>
<path d="M439.2,162.8c2.9-2.3,4.4-5.7,5.5-9c2.1-5.8,3.3-11.8,3.3-18c0-1-0.2-2-0.5-2.9c-0.7,4.5-0.1,9.2-2.1,13.6
	c0.2-2.2,0.3-4.4,0.5-6.6c0.8-10.8-2.4-20.6-8.2-29.6c-3.4-5.3-8-9.6-12.9-13.3c-4.6-3.5-9.8-6.3-15.5-7.7c-1-0.3-1.9-1.1-2.9-1.7
	l0,0c3,0.9,6.1,1.8,9.1,2.8c4.6,1.6,8.6,4.5,12.3,7.5c2.4,1.9,4.5,4.1,6.4,6.5c2.2,2.7,4,5.8,6.1,8.6c2.6,3.6,3.8,7.7,5,11.9
	c0.6,2.1,1.1,4.3,1.7,6.5c0.2,0,0.5-0.1,0.7-0.1c-0.4-2.4-0.7-4.9-1.3-7.3c-2.8-11.2-9.6-19.8-18.4-26.9c-2.7-2.2-5.5-4.4-8.5-6
	c-3.5-1.9-7.3-3.1-11-4.6c-0.2-0.1-0.3-0.2-0.4-0.4c0.4-0.4,0.8-0.8,1.1-1.1c0.4,0.1,0.8,0.1,1.2,0.2c5.3,1.6,10,4.4,14.7,7.3
	c5.7,3.5,9.8,8.6,14.2,13.4c0.7,0.7,1.5,1.4,1.9,2.2c1.6,3.3,3.1,6.6,4.5,10c2.8,6.7,4.1,13.6,3.8,20.9
	c-0.5,10.8-3.8,20.4-10.7,28.7c-0.8,1-1.4,2.2-2.2,3.4c-0.6,0.3-1.5,0.6-2.2,1.1c-3.4,2.4-6.6,5-10.1,7.1c-2.8,1.7-5.8,3.1-8.9,3.9
	c-4.4,1.2-9,1.7-13.7,1.7c-5.5,0-10.6-1.6-15.5-3.6c-3.3-1.3-6.1-3.7-9.1-5.8c-4.3-3-7.1-7.3-9.9-11.7c-2-3.2-2.6-6.8-3.7-10.3
	c-1.9-5.9-1.2-11.8-0.6-17.7c0.4-3.9,2.2-7.7,5.4-10.4c0.4-0.3,0.8-0.6,1.3-0.9c-0.1,0.4-0.3,0.7-0.4,1.1c-1.4,2.9-3.2,5.7-4.1,8.7
	c-1.8,6.3-1.6,12.7-0.1,19c1.9,8.1,6,15,12.5,20.3c1,0.8,2.2,1.4,3.3,2.1c0.1-0.6-0.1-0.8-0.3-1.1c-2.8-2.9-6.1-5.5-8.4-8.8
	c-2.2-3.2-3.6-7.1-5.1-10.8c-2.1-5.2-1.9-10.7-1.3-16.2c0.5-4.8,1.8-9.3,5-13.1c2-2.4,4.5-4.5,6.8-6.7c0.8-0.8,1.6-1.5,2.4-2.2
	c-0.1-0.2-0.2-0.3-0.4-0.5c-0.9,0.6-1.9,1.1-2.7,1.7c-0.9,0.6-1.7,1.3-2.6,2c1.2-1.4,2.4-2.9,3.6-4.3c1.7-1.2,3.2-2.6,5.1-3.6
	c10.3-5.1,20.7-4.7,30.7,0.8c7.6,4.2,12.2,10.8,13.5,19.6c0.1,0.4,0.1,0.8,0.2,1.2c0.9,4.8,0.5,9.6-1.4,14
	c-2.9,6.3-7.8,11.2-13.8,14.6c-4.9,2.7-10.4,3.1-16,2.1c-1.2-0.2-2.5,0-3.8,0c-0.4-0.5-1-1.4-1.8-1.9c-2.2-1.4-4.6-2.5-6.7-3.9
	c-3.3-2.3-6-5.4-7.1-9.2c-2.4-8.2-2-16.1,3.1-23.4c0.6-0.8,0.9-1.9,1.4-2.9c15.4-11.1,29.1-10,40.7,6.2c0-0.5,0-1,0-1.5
	c0.2,0,0.3-0.1,0.5-0.1c0.8,2.6,1.6,5.2,2.5,7.8c0.1-12.9-11.1-22.4-22.7-22.5c3.4,1.3,7.4,2.5,11,4.3c3.8,1.9,6.6,5,8,9.1
	c-0.6-0.2-1-0.6-1.3-1.1c-2.4-3.9-5.7-6.8-9.9-8.6c-4.9-2.1-10-2.7-15.1-2.4c-4.8,0.3-9.4,2.2-13.1,5.5c-2.2,2-4.4,4-6.5,6.2
	c-1.4,1.5-3.1,3.1-3.8,4.9c-1.4,3.5-2.4,7.2-2.5,11.1c-0.1,9,1.8,17.1,8.1,24c3.5,3.9,7.6,6.9,12.2,9c3.4,1.6,7.2,2.3,10.9,2.8
	c5.7,0.7,11.5,0.5,16.8-2.2c2.4-1.2,4.8-2.5,6.8-4.1c3.8-2.9,7.8-5.7,10.9-9.3c5.1-6.1,7.9-13.5,8.9-21.4c0.3-2.1,1.2-4.6-0.3-6.1
	c0.1-1.5,0.4-2.7,0.2-3.7c-1.1-5.5-2.5-10.9-5.4-15.6c-3.9-6.5-8.8-12.2-15.1-16.6c-5.8-4.1-12.2-6.6-18.9-8.5
	c-7.5-2.1-15.1-1.7-22.6,0c-7.7,1.8-15,5-21.2,9.9c-3.5,2.7-6.9,5.8-9.7,9.2c-5.6,6.6-9,14.3-10.2,22.9c-0.3,2.2-0.4,3.2,2,3
	c0.1,0,0.3,0.3,0.7,0.7c-1.2,0.5-2.2,0.9-3.3,1.4c-0.6,4.1-0.1,13.9,1.2,18.3c0.5,1.5,1.3,3,1.4,4.6c0.3,5.7,3.2,10.5,5.9,15.2
	c2.4,4.3,5.7,8.2,8.5,12.3c0.3,0.5,0.4,1.2,0.5,1.8c-0.3,0.1-0.7,0.3-1,0.4c-6-6.9-10.7-14.6-14-23.2s-4.3-17.7-5.1-26.9
	c-0.5,0.7-0.7,1.3-0.7,2c0.3,7.6,0.9,15.3,3,22.6c1.3,4.5,3,8.9,5.2,13c3.6,6.8,8.5,12.9,14.2,18.1c4.1,3.7,7.9,8.5,14.2,8.8
	c0.2,0,0.4,0.2,0.5,0.3c0.1,0.1,0.1,0.3,0.2,0.6c-0.5,0-1,0-1.6,0c0.2,0.3,0.2,0.6,0.4,0.7c1,0.5,2.1,0.9,3.1,1.4
	c6.6,3.3,13.7,4.8,21,5.8c6.1,0.8,12.1,0.4,18.2-0.2c6.5-0.6,12.6-2.8,18.4-5.3c11.1-4.6,20.5-11.8,28-21.2c3.9-5,7.6-10.4,10.6-16
	c2.8-5.3,4.9-11,6.6-16.7c1.5-5,2-10.2,2.9-15.3c0.1-0.7-0.3-1.9-0.7-2c-1.1-0.3-2.3-0.2-2.5,1.5c-0.4,2.8-0.8,5.7-1.3,8.5
	c-0.2,1-0.5,1.9-0.7,2.9c-0.3,0-0.5,0-0.8-0.1c-0.1-0.8-0.4-1.6-0.3-2.3c0.8-6.5,2.4-13,1.5-19.7c-0.5-3.6-0.3-7.3-0.8-10.9
	c-1.2-8.2-3.6-16-7.3-23.4c-1.9-3.8-4.3-7.4-6.3-11.1c-3.8-6.8-9.2-12.3-14.9-17.4c-3.1-2.7-6.6-4.9-10-7.4c0.2-0.2,0.3-0.4,0.5-0.5
	c0.4,0.1,0.8,0,1.1,0.2c4.4,3.1,8.8,6.3,13.2,9.4c0.8,0.6,1.9,0.9,3.1,1.4c-1.3,2,1.3,2.7,2.3,4.2c2.9,4.3,6,8.4,8.7,12.7
	c4.1,6.5,7.3,13.5,9.1,20.9c0.9,3.7,1.6,7.5,2.4,11.2c0.3,1.3,0.6,2.5,2.3,2.6c0.2,0,0.4,0.4,0.9,1c-2.8,0.3-2.3,2.2-2.3,3.9
	c0,3.5,0,7,0,10.4c3.1,0.9,2.9,0.9,3.2-1.9c1.1-10-1.3-19.6-3.9-29.2c-1.4-5.4-3.5-10.6-5.6-15.8c-1.1-2.8-2.7-5.4-4.4-7.8
	c-3.6-4.8-7.1-9.7-11.3-14c-3.8-3.9-8.2-7.3-12.7-10.4c-3.9-2.6-8.3-4.5-12.5-6.6c-6.2-3.2-12.7-4.9-19.7-5
	c-8.2-0.1-16.4-0.1-24.6-0.1c-6.6-0.1-13.3-0.2-19.9-0.3c-4.1,0-8.2,0.2-12.3,0.2c-9.1-0.1-18.2-0.4-27.2-0.5
	c-6.8-0.1-13.6-0.2-20.4-0.2c-7.3,0-14.6,0-21.9,0c-10.3,0.1-20.6,0.2-30.9,0.2c-9.4,0-18.7-0.2-28.1-0.2c-6,0-11.9,0.2-17.9,0.1
	c-7.2-0.1-14.4-0.4-21.6-0.4c-10.2-0.1-20.3-0.1-30.5,0c-10.3,0.1-20.6,0.3-30.9,0.3c-6.8,0-13.5-0.1-20.3,0
	c-6.9,0.1-13.8-0.3-20.6,0.6c-6,0.8-11.9,3-17.8,4.5c-0.3,0.1-0.6,0.1-0.9,0.1c-0.1-0.2-0.1-0.3-0.2-0.5c2.1-0.9,4.1-1.8,6.2-2.6
	c9-3.6,18.5-3.6,28.1-3.6c8.1,0,16.2,0,24.3,0c10.6,0,21.3,0,31.9,0c4.2,0,8.4,0,12.6,0c0.6,0,1.2-0.4,1.8-0.6
	c0.4-0.1,0.7-0.2,1.1-0.2c2,0.2,4,0.8,6,0.8c10,0.1,20.1,0.2,30.2,0.2c8.7,0,17.4,0.1,26.1,0.1c12.2,0,24.4,0.1,36.6,0.1
	c0.7,0,1.3-0.4,1.9-0.7c0.8,0.2,1.7,0.7,2.5,0.7c9.3,0.1,18.6,0.1,27.9,0.1c6.4,0,12.8-0.1,19.1,0c7.6,0.1,15.1,0.3,22.7,0.3
	c9,0.1,18.1,0.1,27.1,0c13.7,0,27.5-0.2,41.2-0.1c5.1,0,10.1,1.4,14.7,3.6c7.3,3.5,14.5,7.2,21.2,11.5c5.9,3.8,11,8.7,15.2,14.4
	c5.9,7.9,10.4,16.5,13.5,25.8c0.3,0.9,1,1.6,1.3,2.1c0,1.1-0.2,2,0,2.9c1.3,6,3.1,11.9,3.8,18c0.6,5.2,0.3,10.5,0,15.8
	c-0.3,4.4-0.8,8.8-1.7,13.1c-0.6,3.4-1.6,6.7-2.9,9.9c-1.9,4.8-4,9.4-6.3,14c-3.7,7.3-8.6,13.9-14.6,19.5c-4,3.7-8,7.6-12.6,10.4
	c-8.9,5.5-18.5,9.5-28.9,10.8c-6.1,0.7-12.4,0.4-18.6,0c-4.2-0.3-8.4-1.3-12.5-2.4c-7.2-2-14-4.9-19.8-9.7c-3.7-3-7.3-6.2-10.7-9.6
	c-5.7-5.7-9.9-12.5-12.8-20c-4.8-11.9-6.4-24.4-5.3-37.1c0.2-2.5,0.1-5.1,0.6-7.6c0.4-2.1,1.7-4,2.4-6c2.8-9.3,8.9-16.3,16-22.7
	c4.6-4.2,9.7-7.6,15.4-9.9c3.7-1.5,7.8-1.9,11.7-2.9c0.1,0.2,0.2,0.4,0.2,0.6c-0.4,0.3-0.8,0.7-1.3,1.1c0.2,0.1,0.4,0.2,0.5,0.2
	c3-0.3,6.1-1,9.1-0.8c5.6,0.4,11.4,0.7,16.8,2.2c9.4,2.6,17.7,7.5,24.3,14.9c4.7,5.2,8.7,10.8,10.8,17.6c0.9,3,2,6.1,2.5,9.2
	c0.9,5.3,0.7,10.6-0.8,15.8c-1.9,6.5-4.9,12.4-9.4,17.3c-3,3.3-6.6,6.1-10.3,8.6c-3.4,2.3-7.2,4-10.9,5.8c-1.3,0.6-2.8,1-4.2,1.1
	c-5.4,0.2-10.8-0.2-16.1-1.5c-7.2-1.8-12.4-6.5-18-11c0.5,0.7,1.1,1.3,1.6,2c3.5,4.3,7.8,7.4,13,9.1c4.1,1.3,8.3,2.4,12.8,2.9
	c7.5,0.7,13.8-2.1,20-5.5c3.6-2,6.8-4.6,10.3-6.7c-4.5,6-11.4,8.7-17.7,12.3c0.2,0,0.5,0.1,0.6,0c4.1-2.2,8.7-3.3,12.3-6.5
	c2.6-2.3,5.5-4.1,8-6.5c1.4-1.4,2.1-3.4,3.1-5.2C439,162.9,439.1,162.8,439.2,162.8z M400.5,117c-13.5-0.7-24.2,10.1-24.2,22.8
	c-0.1,13.3,9.4,22.7,23.1,23.2c13.9,0.5,23-7.7,23.7-22.4C423.7,129.6,412.9,116.6,400.5,117z M379.7,88.5c-0.2-0.4-0.3-0.8-0.5-1.2
	c-1.9,0.7-3.7,1.5-5.6,2.2c-2.5,1-5.1,1.7-7.4,2.9c-3.8,2.1-7.8,4.1-10.9,7c-4.3,4.1-7.8,9-11.5,13.6c-0.9,1.1-1.4,2.5-2.1,3.7
	c0.2,0.1,0.4,0.3,0.7,0.4c4.4-6.8,9.4-13.2,15.7-18.2C364.4,93.9,371.8,90.7,379.7,88.5z M367.4,148.8c-0.1-6.8,0.3-12.8,3.1-18.7
	c2.8-5.9,8.4-8.8,12.9-13.5C372.4,120.8,363.4,138.8,367.4,148.8z M342.1,119.2c-2.7,0.8-6.5,16.1-5.4,19.9c0.2-0.1,0.7-0.1,0.7-0.3
	C338.7,132.4,338.5,125.6,342.1,119.2z M384.1,116.4c4.9-2.7,10.2-3.1,15.6-3.3C394.1,112.2,388.9,113.5,384.1,116.4z M380.7,116.1
	c4.1-1.7,8-3.3,12.1-5.1C389.9,110.8,382.5,113.9,380.7,116.1z M390.1,180.8c0.1-0.2,0.2-0.5,0.3-0.7c-2.3-1.1-4.7-2.3-7-3.4
	c-0.1,0.3-0.2,0.5-0.4,0.8C385.4,178.6,387.8,179.7,390.1,180.8z M393.9,181.2c0,0.3,0,0.6,0,0.9c2.8,0.2,5.5,0.4,8.3,0.7
	c0-0.2,0-0.4,0-0.5C399.5,181.9,396.7,181.5,393.9,181.2z M368.8,154.2c-0.2,0.1-0.4,0.2-0.6,0.2c0.9,2.3,1.8,4.6,2.7,6.9
	c0.2-0.1,0.5-0.2,0.7-0.3C370.6,158.8,369.7,156.5,368.8,154.2z M401.3,110.9c0,0.2-0.1,0.5-0.1,0.7c1.7,0.3,3.4,0.6,5.2,0.8
	c0-0.1,0.1-0.3,0.1-0.4C404.7,111.6,403,111.3,401.3,110.9z"/>
<path d="M118.6,230.9c-0.2-1-0.6-2-0.6-3c-0.1-3.5,0-7.1,0-10.6c0-1.8-0.4-2.2-2.1-1.6c-7.5,2.7-15.4,4.1-23.3,4.9
	c-4.6,0.5-9.3-0.2-13.9-0.8c-3.8-0.5-7.5-1.7-11.2-2.5c-1.4-0.3-2.9-0.4-4.3-0.9c-3.1-1.2-6.1-2.5-9.1-3.8c-2.4-1.1-4.6-2.3-7-3.5
	c-0.1,0-0.1-0.1-0.2-0.1c-1.1-3.8-5.3-3.9-7.6-6.3c-3.7-3.9-7.5-7.8-11-11.9c-2.4-2.8-4.7-5.7-6.7-8.8c-2.5-4.1-4.7-8.5-6.9-12.8
	c-1-2-2-4-2.7-6c-1.2-3.2-2.1-6.4-3.2-9.6c-0.8-2.4-1.8-4.7-2.5-7.1c-0.2-0.8,0.3-1.7,0.2-2.5c-0.6-3.4-1.3-6.7-1.9-10
	c-0.1-0.3-0.2-0.5-0.1-0.8c1.1-4.6,0.1-9.4,0.8-14c0.4-2.5,0.6-4.9,0.9-7.4c0.1-0.6,0.5-1.2,0.8-1.7c0.4-0.8,1.2-1.5,1.3-2.3
	C10,98,14,89.2,19.2,80.9c2.5-4,4.9-8.1,7.8-11.9c1.9-2.5,4.4-4.5,6.7-6.6c4.7-4.5,9.8-8.5,15.4-11.9c3.8-2.3,7.5-4.9,11.6-6.7
	c4.5-2,9.2-3.4,13.9-5c2.1-0.7,4.3-1,6.4-1.6c0.6-0.2,1.3-1,1.4-1.7c0.1-0.5-0.6-1.4-1.1-1.7c-5.3-3.1-8.7-7.6-9.9-13.7
	c-0.5-2.6,0.5-3.8,3.2-3.8c5.9,0.1,11.8,0,17.7,0.1c1.9,0,3.9,0.3,5.8,0.2c1.2-0.1,2.4-0.6,3.8-0.9c1.2,2,3.6,0.9,5.7,1
	c7,0.3,14,0.4,21,0.5c0.1,0,0.2,0.1,0.8,0.6c-7.6,0-14.7,0-21.3,0c-1.2,1.4-2.1,2.5-3,3.6c-0.3-0.2-0.6-0.4-0.8-0.6
	c0.6-0.9,1.1-1.8,1.8-2.9c-11.1,0-22.1,0-33.4,0c-0.2,4.4,1,7.9,4,10.9c3.2,3.2,7.2,4.7,11.2,6.3c1.3,0.5,2.8,0.5,4.2,0.5
	c10.4,0,20.8-0.2,31.2-0.2c6.7,0,13.5,0.3,20.2,0.3c7,0,13.9-0.3,20.9-0.3c6.9,0,13.8,0.3,20.7,0.3c7.3,0,14.6-0.2,21.9-0.2
	c7.4,0,14.8,0.2,22.3,0.2c13.2,0,26.4-0.1,39.6-0.1c8.9,0,17.8,0.2,26.7,0.2c3.6,0,7.2-0.3,10.8-0.2c9,0.1,18,0.4,27,0.4
	c7.2,0,14.4-0.2,21.6-0.2c3.7,0,7.4,0.2,11,0.2c7.8,0.1,15.6,0.1,23.4,0.1c4.1,0,8.3,0,12.4,0c5.3,0,10.6-0.6,15.1-3.7
	c3.6-2.5,6.3-5.9,7.5-10.3c0.5-1.9-0.2-2.5-2.2-2.5c-11.8-0.1-23.6-0.2-35.3-0.3c-5,0-9.9,0.2-14.9,0.2c-8,0-16.1,0-24.1-0.2
	c-8.2-0.1-16.3-0.4-24.5-0.5c-5.4-0.1-10.8,0.1-16.2,0.1c-8.2,0-16.5-0.1-24.7-0.2c-4.1,0-8.2-0.1-12.3-0.1
	c-10.5-0.1-21-0.2-31.5-0.3c-0.3,0-0.6-0.1-0.9-0.7c1.3-0.1,2.6-0.3,3.9-0.2c7.3,0.1,14.6,0.2,21.9,0.3c4.7,0,9.5-0.1,14.2,0
	c10.3,0.1,20.6,0.3,30.9,0.4c3.5,0,7.1-0.1,10.6-0.1c6.7,0.1,13.5,0.2,20.2,0.3c5.9,0.1,11.8,0.3,17.6,0.3
	c6.2,0.1,12.4,0.1,18.7-0.1c1,0,1.9-1,3-1.6c0.4,2.1,2.2,1.7,3.8,1.7c5.3-0.1,10.6-0.2,15.8-0.2c7.4,0,14.8,0,22.2-0.1
	c1.3,0,2.5-0.2,3.8-0.3c1.7-0.2,2.6,0.6,2.1,2.2c-1.2,4.7-3,9.1-7,12.3c-0.8,0.6-1.5,1.9-1.5,2.9c-0.1,1.4,1.3,1.8,2.6,2.3
	c6,2.4,11.9,5,17.8,7.6c2.7,1.2,5.4,2.3,8,3.7c1.1,0.6,1.9,1.8,3,2.5c6.1,3.6,11.2,8.5,15.9,13.7c6.2,7,10.7,15.2,14.3,23.8
	c2.7,6.6,5,13.5,6.8,20.5c1.1,4.3,1.2,8.8,1.6,13.3c0.3,3.3,0.5,6.5,0.4,9.8c-0.1,2.8-0.9,5.5-1.1,8.3c-0.2,2.3-1.6,4.6-0.5,7
	c0.1,0.2,0,0.5-0.1,0.8c-3,5.3-3,11.6-5.8,16.9c-1.4,2.8-1.4,6.2-3.9,8.6c-1.3,1.2-2.2,3.2-0.1,5c-2.6-0.7-3.1,0.6-4,2.5
	c-0.7,1.6-1.1,2.8-0.1,4.5c-2.2-1.2-3.1-0.1-4,1.3c-3.6,5.1-7.6,9.8-12.4,13.8c-2.6,2.1-5,4.5-7.7,6.3c-3.3,2.1-6.8,3.9-10.3,5.5
	c-4,1.8-8.2,3.4-12.4,4.9c-1.6,0.6-3.4,0.8-5.5,1.2c-0.2-0.3-0.8-0.9-1.5-1.8c0.8-0.3,1.3-0.6,1.8-0.7c6.9-0.6,13-3.5,18.8-7
	c5.9-3.6,11.9-7.3,17.2-11.7c3.9-3.2,7.1-7.4,10-11.6c3.5-5,6.7-10.3,9.5-15.8c3.1-6,5.6-12.4,6.8-19.1c0-0.3,0.1-0.6,0.3-0.7
	c1.7-1.8,1.2-4.1,1.7-6.2c0.4-1.9,1.1-3.8,1.2-5.8c0.2-3.4,0.1-6.8,0-10.2c-0.1-2.8-0.4-5.6-0.4-8.4c0-6.7-1.9-12.9-3.9-19.1
	c-0.7-2.2-1.3-4.5-2.2-6.6c-2.6-5.8-5.1-11.6-8.1-17.2c-3-5.5-6.7-10.7-11.5-14.8c-4.1-3.6-8.6-6.7-13-10c-1.9-1.4-3.7-2.9-5.8-3.9
	c-3.9-1.8-8-3.3-12-5c-3.8-1.5-7.4-3.3-11.3-4.5c-2.7-0.8-5.6-1-8.5-1.1c-11.4-0.1-22.8-0.1-34.2-0.2c-9.8-0.1-19.5-0.2-29.3-0.3
	c-9.1-0.1-18.2-0.4-27.3-0.4c-10,0-20.1,0.1-30.1,0.2c-3.4,0-6.8-0.1-10.2-0.1c-9.1,0-18.1-0.1-27.2-0.1c-7.9,0-15.8-0.1-23.7-0.1
	c-9.9,0-19.8,0.1-29.7,0.1c-6.3,0-12.6-0.1-18.9-0.1c-10,0.1-20,0.5-30.1,0.6c-6.3,0.1-12.5,0-18.8,0c-4.5,0-9.1,0.1-13.6,0.1
	c-5.2,0-10.5,0-15.7-0.3c-10.2-0.5-20.3,0.2-29.9,3.6c-5,1.8-10,3.9-15,5.9c0.5,1.1,0.8,1.8,1.1,2.4c-1.7-1.7-3.1-0.9-4.7,0.1
	c-6.8,4.1-13.1,9-18.8,14.5C29,68.2,25,73,21.7,78.3c-2.5,4-4.7,8.3-6.9,12.5c-0.6,1.2-0.9,2.5-1.3,3.8c-1.6,5.5-3.5,11-4.8,16.7
	c-1.1,4.8-1.9,9.7-2,14.6c-0.1,5.9,0,11.9,1.1,17.7c1.6,8.2,3.5,16.5,7.3,24.1c2.8,5.6,5.7,11.1,9,16.5c1.9,3.1,4.4,5.8,6.8,8.6
	c3.5,4.1,7.2,8,11.9,10.8c2.8,1.7,5.5,3.7,8.3,5.3c7,4,14.6,6.4,22.5,8c0.8,0.2,1.7,0.3,2.7,0.5c-0.4-0.9-0.7-1.7-1.1-2.4
	c0.1-0.1,0.3-0.2,0.4-0.3c0.7,0.7,1.4,1.4,2.2,1.9c1.1,0.7,2.3,1.4,3.5,1.6c9,1.1,17.9-0.1,26.7-2.1c3.7-0.8,7.1-2.4,10.7-3.6
	c0.7-0.2,1.5-0.3,2.4-0.5c0,1.8,0,3.5,0,5.1c-0.1,3.8-0.2,7.6-0.2,11.4c-0.2,0.1-0.3,0.3-0.5,0.4c-0.1-4.1-0.2-8.2-0.3-12.4
	c0-0.7-0.1-1.4-0.2-2.1c-0.3,0-0.5,0-0.8,0c-0.1,0.8-0.3,1.5-0.3,2.3c0,4.6,0,9.2,0,13.8C118.9,230.6,118.8,230.8,118.6,230.9z
	 M417.3,37.1c0.2-0.1,0.3-0.3,0.5-0.4c-0.3-0.7-0.7-2.1-1-2c-0.9,0-1.9,0.6-2.8,0.9c0,0.2,0.1,0.4,0.1,0.6
	C415.2,36.5,416.2,36.8,417.3,37.1z M86.9,36c0-0.2,0-0.3,0-0.5c-0.7-0.2-1.4-0.5-2-0.5c-0.4,0-0.7,0.5-1.1,0.8
	c0.4,0.3,0.7,0.7,1.1,0.7C85.5,36.4,86.2,36.1,86.9,36z"/>
<path d="M57.9,206.8c1.1,0.3,2.4,0.4,3.4,1c4.1,2.4,8.7,3.7,13.3,4.6c7.5,1.5,15,1.3,22.6,1.2c2.4,0,4.9-0.7,7.3-1.4
	c4.2-1.1,8.2-2.6,12.4-3.7c5.1-1.3,9.1-4.4,13.2-7.4c3.4-2.5,6.9-4.8,9.9-7.7c3.3-3.2,6.4-6.7,8.8-10.5c5.1-7.8,8.8-16.4,10.9-25.5
	c2.1-8.8,1.5-17.6-0.5-26.4c-1.4-5.9-3.4-11.6-7.1-16.5c-3.2-4.2-6.9-7.9-10.5-11.8c-0.4-0.4-1.2-0.5-1.9-0.7
	c4,5.1,7.9,9.8,11.4,14.8c4.1,5.9,6,12.8,6.8,19.9c0.6,4.8,0.7,9.8,0.4,14.6c-0.2,3.1-1.5,6.2-2.3,9.3c-0.3,1.1-0.7,2.2-1,3.3
	c-1.1,5.2-3.6,9.7-6.4,14.1c-1.9,2.9-3.6,6-5.8,8.7c-4.2,5.4-9.9,9.2-15.5,13c-6.1,4.1-12.8,7.3-20,9.1c-6.4,1.7-13,2.5-19.7,1.9
	c-8-0.7-15.8-2.1-23.2-5.3c-2.5-1.1-4.9-2.4-7.4-3.6c-0.8-0.4-1.8-0.5-2.6-0.9c-0.6-0.3-1-0.9-1.5-1.3c-1.8-1.2-3.8-2.3-5.5-3.6
	c-1.9-1.4-4-2.8-5.5-4.6c-4.6-5.4-9.2-11-13.5-16.7c-1.7-2.3-2.8-5-4-7.6c-1.5-3.2-2.7-6.6-4.2-9.9c-3.4-7.7-4.6-15.9-5-24.2
	c-0.5-10.2,1.1-20.3,4.1-30.1c1.6-5.2,4.3-10.2,7-15c2.4-4.2,5-8.4,8.2-12c3.8-4.3,8.1-8.1,12.4-11.9c2.5-2.2,5.5-3.9,8.2-5.7
	c0.7-0.5,1.5-0.7,2.3-1.1c0.3,0.3,0.6,0.6,0.9,0.8c-0.8,0.6-1.6,1.3-2.5,1.9c-1.7,1.1-3.6,2.1-5.2,3.4c-3.2,2.7-6.3,5.5-9.2,8.5
	s-5.5,6.2-8.2,9.3c-1.1,1.4-2.3,2.8-3.2,4.3c-1.9,3.4-3.8,6.9-5.5,10.4c-1.2,2.3-2.3,4.7-3,7.2c-1.1,3.9-1.8,7.8-2.5,11.7
	c-1.6,8.7-2.2,17.5-1.1,26.3c1.2,9.2,4.4,17.9,8.1,26.3c1.3,3,3.1,5.7,4.8,8.4c1.2,1.9,2.6,3.6,3.9,5.3c2.6,3.3,5.3,6.6,7.8,9.8
	c0.9-0.6,1.4-0.9,1.8-1.1c0,0.5-0.1,1,0,1.5c0,0.4,0.1,0.8,0.4,1c1.5,1.3,2.9,2.7,4.5,3.8c1.9,1.3,3.8,2.4,5.9,3.3
	c8.2,4,16.4,7.9,25.6,8.9c5.6,0.6,11.2,1.6,16.8,0.6c4.4-0.8,8.9-1.4,13.1-2.7c5.9-1.8,11.5-4.4,16.4-8.1c3.9-2.9,8.2-5.3,11.4-8.7
	c9.8-10.5,16-23.1,17.9-37.5c0.6-4.6,0.2-9.5-0.1-14.2c-0.2-3-1.1-6-1.9-8.9c-0.7-2.7-1.6-5.4-2.8-7.9c-3.1-6.4-8.2-11.2-13.1-16.1
	c-3.1-3.1-6.9-5.6-10.7-7.7c-6.1-3.2-12.8-4.8-19.7-5.8c-0.5-0.1-1-0.5-1.5-0.7c0.3-0.3,0.6-0.6,0.9-0.9c4,0.7,8.1,1.3,12.1,2.1
	c1.7,0.3,3.6,0.8,5.1,1.6c4.3,2.4,8.5,5.1,12.8,7.7c0.4,0.3,1,0.3,1.6,0.4c0.1-0.2,0.2-0.4,0.2-0.6c-3.6-2.3-7.1-4.9-10.9-7
	c-4-2.2-8.2-4.1-12.9-4.7c-2-0.3-4-0.9-6.1-1.4v-0.1c1.8,0.1,3.6-0.1,5.3,0.2c7.8,1.5,15,4.6,21.3,9.3c6.3,4.7,12.4,9.8,16.6,16.6
	c4.6,7.5,7.4,15.6,8.6,24.4c1.8,13.4-1.3,25.9-7.4,37.7c-2.8,5.3-6.2,10.5-10,15.1c-6,7.3-13.8,12.4-22.2,16.6
	c-10,5.1-20.7,7.5-31.9,7.4c-9.8,0-19.3-1.5-28.4-5.5c-1.4-0.6-2.6-1.6-3.8-2.5C57.9,207,57.9,206.9,57.9,206.8z"/>
<path d="M58.5,57.9c-0.3-0.3-0.6-0.6-0.9-0.8c1.9-1,3.7-2.4,5.5-3.5c3.2-2,6.9-3.1,10.4-4.6c8.7-3.5,17.9-3.1,27.1-3.3
	c6-0.1,12-0.2,18-0.3c3,0,6,0,9,0.1c7.6,0.1,15.2,0.2,22.8,0.2c10.3,0.1,20.6,0,30.9,0.1c9.7,0.1,19.4,0.3,29.1,0.3
	c7.6,0,15.1-0.3,22.7-0.3c3.6,0,7.2,0.1,10.8,0.2c2.2,0,4.4,0,6.6,0c17.5,0.1,35.1,0.2,52.6,0.3c5.4,0,10.8-0.1,16.3-0.1
	c6,0,12,0.3,18,0.3c10.9,0.1,21.8,0,32.7,0c6.3,0,12.6,0.2,18.9,0.3c6.2,0.1,12.4,0.4,18.7,0.3c7.2-0.1,14,1.8,20.6,4.5
	c2.6,1.1,5.1,2.3,7.7,3.5c0.6,0.3,1,0.9,1.5,1.4c-0.2,0.2-0.3,0.4-0.5,0.5c-2.4-1.7-5.3-2-8-3.3c-3.9-2-8.3-3.4-12.6-3.9
	c-8.1-0.9-16.3-1-24.4-1.2c-13-0.2-25.9,0.1-38.9-0.3c-9.6-0.3-19.2,0.4-28.8-0.1c-9.3-0.5-18.7-0.2-28-0.2
	c-7.2,0-14.3,0.1-21.5,0.1c-6.2,0-12.4,0-18.7,0c-3.8,0-7.6-0.1-11.4-0.3c-3.2-0.1-6.3-0.3-9.5-0.5c-2.5-0.1-5.1-1.7-7.6,0.4
	c-0.4,0.4-1.3,0.2-2,0.2c-7.5,0-15-0.1-22.5-0.1c-5.5,0-11,0.2-16.5,0.2c-7.6,0-15.2-0.2-22.8-0.3c-4.3,0-8.6,0-12.9,0
	c-4.3,0-8.6,0-12.8,0c-2.7,0-5.4,0.3-8.2,0.3c-3.8,0-7.6-0.4-11.4-0.4c-6.2,0-12.3,0.3-18.5,0.4c-4.2,0.1-8.3-0.1-12.5,0.2
	c-3,0.2-5.9,1-8.8,1.7c-6.5,1.5-12.6,3.8-18.3,7.2C59.9,57.6,59.2,57.7,58.5,57.9z"/>
<path d="M298.2,334.2c0.3-2.4,0.7-4.2,0.7-6c0.2-12.3,0.3-24.5,0.5-36.8c0.2-9.5,0.5-19,0.6-28.5c0.1-12.4,0-24.8,0.1-37.1
	c0.1-9.1,0.2-18.2,0.4-27.3c0.1-7.8,0.1-15.5,0.5-23.3c0.2-3,0.5-6.4,3.5-8.3s8.9-2.8,12.7-0.3c4.5,2.9,4.6,6.9,4.4,11.3
	c0,0.9-0.1,1.9-0.2,2.8c0,3.9,0,7.9,0,11.8c0,7.7,0.2,15.4,0.1,23.1c0,8-0.1,16.1-0.2,24.1c0,3.8,0,7.7-0.1,11.5
	c-0.2,13.5-0.5,26.9-0.7,40.4c-0.1,6,0,12,0,18c-0.3,0-0.6,0-0.9,0.1c-0.2-1.1-0.4-2.2-0.4-3.3c0.1-7.9,0.2-15.8,0.3-23.7
	c0.1-9.1,0.1-18.2,0.2-27.3c0.1-6.6,0.3-13.2,0.3-19.8c0-6.7-0.3-13.5-0.3-20.2c0-6.5,0.3-13,0.4-19.4c0.1-5.4,0-10.9,0-16.3
	c0-1.5,0.2-2.9,0.2-4.4c-0.1-5.8-2.3-8-8-8.8c-2.9-0.4-5.3,0.7-7.4,2.4c-0.9,0.7-1.5,1.9-1.8,3c-1.3,4.8-0.8,9.7-0.9,14.5
	c0,4.7-0.1,9.4-0.1,14.1c-0.1,8-0.2,16-0.3,24c-0.1,3.8-0.2,7.6-0.3,11.4c-0.1,10.6-0.1,21.3-0.2,31.9c-0.1,8.5-0.5,17-0.6,25.5
	c-0.1,6.3,0,12.7-0.1,19c-0.1,5.3-0.2,10.6-0.3,15.8c0,0.7,0,1.3,0,2c0.2,2.5,0.7,2.8,3.1,2.7c1.5-0.1,3,0,4.6,0.1
	c0.3,0,0.5,0.4,0.8,0.6c-0.2,0.2-0.5,0.5-0.7,0.5C304.9,334.2,301.4,334.2,298.2,334.2z"/>
<path d="M175.1,333.6c-0.6,0.1-1.5,0.2-2.7,0.4c0.2-1.9,0.4-3.5,0.4-5.1c0.1-7.3,0.1-14.6,0.2-21.9c0.1-4.7,0.2-9.4,0.3-14.1
	c0.1-6.7,0.2-13.5,0.3-20.2c0.1-8.6,0.2-17.1,0.3-25.7c0.1-14.6,0.2-29.2,0.3-43.8c0-8.8-0.1-17.7,0.1-26.5c0.1-3.6,0.9-7.2,4.4-9.4
	c4.6-2.9,11.7-1.9,14.9,2.3c1.8,2.3,1.8,5.3,1.9,8.1c0,2.3-0.3,4.6-0.3,6.9c-0.1,8.2-0.1,16.4-0.2,24.5c-0.1,9.6-0.2,19.3-0.3,28.9
	c-0.1,5.5-0.3,10.9-0.3,16.4c-0.1,8.6-0.1,17.2-0.2,25.9c-0.1,6.9-0.2,13.8-0.3,20.7c-0.1,10-0.3,20.1-0.4,30.1c0,0.4,0.1,0.9,0,1.2
	c-0.3,0.4-0.8,0.7-1.2,1.1c-0.2-0.4-0.5-0.8-0.5-1.2c0.1-2.1,0.5-4.3,0.5-6.4c0.1-4.5,0.1-9.1,0.2-13.6c0.2-10.5,0.4-20.9,0.5-31.4
	c0-3.7-0.1-7.5-0.1-11.2c0.1-5.3,0.5-10.7,0.6-16c0.1-6.3,0.1-12.6,0.1-18.9c0-2.7,0.4-5.4,0.1-8c-0.4-3.3,0.2-6.5,0.1-9.8
	c-0.1-3.4-0.1-6.8,0-10.2c0.1-5.2,0.2-10.4,0.2-15.7c0.1-4.6,0.4-9.2,0.2-13.7c-0.1-2.9-0.3-5.8-2.9-8.1c-2.5-2.2-5.3-2-8.1-1.8
	c-1.2,0.1-2.3,0.5-3.4,0.9c-2.3,0.8-3.7,2.7-3.8,4.9c-0.4,4.9-0.4,9.9-0.4,14.8c-0.1,11.6,0,23.2-0.1,34.9
	c-0.1,13.7-0.2,27.5-0.4,41.2c-0.1,10.5-0.5,21-0.6,31.5c-0.1,5.6-0.1,11.2-0.1,16.8c0,5.7,0,11.4,0.1,17.1
	C174.4,330.8,174.8,332.1,175.1,333.6z"/>
<path d="M267,226.1c-0.1-1.9-0.3-3.8-0.3-5.7c0-6.5,0-13,0.1-19.5c0.1-7.7,0.4-15.4,0.6-23.1c0.1-2.1,0.2-4.1,0.5-6.2
	c0.4-3,3.8-5.7,6.6-6.5c3.6-1,7.2-0.3,10.8-0.1c6.2,0.2,11.2,6.7,10.8,12.9c-0.4,6.6-0.4,13.2-0.5,19.8c-0.1,5-0.1,10-0.2,15.1
	c0,1.3,0,2.5,0,3.8c0,9.6-0.1,19.1-0.2,28.7c0,4-0.2,8-0.2,12c-0.1,7.1-0.1,14.1-0.2,21.2c-0.4,16.6-0.8,33.2-1.2,49.8
	c0,1.5,0,3.1,0,4.5c1.3,0.5,2.8-0.9,3.4,1c-2.6,0-5.1,0-7.7,0c0.2-0.5,0.2-0.7,0.3-0.7c2.5,0,2.8-1.5,2.8-3.6
	c0.1-13.2,0.3-26.4,0.6-39.6c0.2-9,0.6-18,0.7-27.1c0.1-8.3,0.3-16.6,0.3-24.9c0-19.2,0.2-38.5,0.3-57.7c0-0.5,0-1.1,0.1-1.6
	c1.3-5.7-1.9-10.2-7.6-11.5c-4.3-1-8.3-1.3-12.4,0.4c-2.8,1.2-4.7,3.3-4.9,6.3c-0.4,5.6-0.5,11.2-0.6,16.8
	c-0.2,9.9-0.4,19.8-0.6,29.7c0,1.7-0.1,3.5-0.2,5.2C267.7,225.8,267.3,225.9,267,226.1z"/>
<path d="M226,224.8c0-1.5,0-2.9-0.1-4.4c-0.1-0.9-0.4-1.9-0.6-2.8c-0.1-0.3-0.3-0.8-0.2-0.9c1.9-2.3,1-5,1-7.5
	c0.1-5-0.2-10-0.2-15.1c0-2.2,0.3-4.5,0.3-6.8c0-4.1,0-8.2-0.3-12.3c-0.4-4.8-4.2-9-9.5-9c-3,0-6.2,0.2-9.1,0.8
	c-2.9,0.6-5.5,4.9-5,7.8c0.1,0.8,1,1.4,1.6,2c-2,0.4-2.2,1.6-0.7,3.3c-0.4,1-1,1.9-1.1,2.7c-0.1,11.9-0.2,23.8-0.3,35.8
	c-0.1,7.6-0.4,15.1-0.5,22.7c-0.1,4,0.1,8,0,12c-0.1,6.8-0.4,13.6-0.6,20.4c-0.1,3.3-0.1,6.5-0.1,9.8c-0.2,14.8-0.3,29.6-0.4,44.4
	c0,0.9,0.3,1.7,0.3,2.6c-0.1,0.9-0.3,1.9-0.8,2.5c-0.4,0.4-1.5,0.3-2.3,0.2c2.2-2.3,1.3-5.1,1.4-7.6c0.3-9.8,0.5-19.5,0.6-29.3
	c0.1-4.2-0.2-8.4-0.2-12.6c0-4.9,0.2-9.9,0.3-14.8c0.2-7.3,0.3-14.6,0.4-21.9c0.1-9.3,0.2-18.6,0.3-27.9c0.1-12,0.4-24.1,0.3-36.1
	c-0.1-3.9-0.1-7.7,0.6-11.5c0.4-2.1,1.2-3.8,3.2-4.8c3.8-1.9,7.7-2.8,12-1.9c1.3,0.3,2.7,0.1,4,0.4c3.8,1,7.2,5.5,7.3,9.4
	c0.1,7.8,0,15.6,0.1,23.5c0,5,0.2,10,0.3,15c0,0.4-0.3,0.9-0.3,1.4c0.1,1.3,0.3,2.6,0.5,4c-0.3,2.2-0.6,4.7-0.9,7.2
	C226.6,225.4,226.3,225.1,226,224.8z"/>
<path d="M267.5,266.2c0.1,2.1,0.4,4.2,0.3,6.3c-0.1,7.1-0.3,14.3-0.4,21.4c-0.1,3.8-0.4,7.6-0.4,11.4c-0.1,8.5-0.1,17-0.2,25.5
	c0,1.3,0.5,1.8,1.8,1.7c1,0,2.1,0.2,3.1,0.4c0,0.3-0.1,0.5-0.1,0.8c-2,0-4,0-6,0c-2.1,0.1-4.3,0.2-6.4,0.3c-2,0-4.1,0.3-5.8-1.4
	c0.9,0,1.8-0.1,2.7,0c1.4,0.1,1.9-0.6,1.9-1.9c0.3-14.3,0.7-28.6,1-43c0.1-5.7,0-11.5,0.1-17.2c0.1-4,0.4-8.1,0.7-12.1
	c0.3,0.3,0.6,0.6,0.9,0.9c0,6.2,0.1,12.4,0,18.7c-0.3,17.2-0.8,34.4-1.2,51.6c-0.1,2.9,1.7,4.1,4.4,2.8c0.5-0.2,0.9-1.1,0.9-1.8
	c0.1-4.1,0.2-8.2,0.2-12.3c0.2-13.2,0.3-26.3,0.5-39.5c0.1-4.4,0.2-8.8,0.4-13.2c0-0.2,0.2-0.5,0.3-0.7
	C266.7,265.4,267.1,265.8,267.5,266.2z"/>
<path d="M260.3,232.9c0-1.5,0.1-3,0.1-4.5c0-7.8,0-15.5,0.1-23.3c0.1-8.6,0.2-17.1,0.3-25.7c0-1.4,0.1-2.8,0.1-4.2
	c0.1-4.7-2.8-7.1-6.7-8.4c-2.4-0.8-5.2-1.4-7.7-1c-2.8,0.4-5.5,2-8.2,3.2c-0.4,0.2-0.6,0.8-0.8,1.3c-1.4,3.6-1.9,7.4-1.9,11.2
	c-0.1,7.8,0,15.5-0.1,23.3c0,4.7-0.3,9.3-0.3,14c-0.1,4.3,0,8.7-0.1,13c0,0.5-0.2,1-0.3,1.5c-0.3-0.3-0.6-0.6-0.9-0.9
	c-0.1-0.7-0.3-1.4-0.3-2.2c0-8.6-0.1-17.1,0-25.7c0.2-9.8,0.4-19.7,0.9-29.5c0.1-2.1,0.9-4.2,1.7-6.1c0.5-1.1,1.6-2,2.7-2.6
	c5-2.3,10.2-2.6,15.5-1.4c5.5,1.2,8.4,6,8.3,12.1c-0.3,10.2-0.4,20.4-0.5,30.6c-0.1,5.8-0.2,11.6-0.4,17.5c-0.1,2.3-0.2,4.6-0.3,6.8
	C260.9,232.3,260.6,232.6,260.3,232.9z"/>
<path d="M122,271.2c-0.2,2.6-0.4,5.2-0.5,7.8c-0.1,5.6,0,11.2-0.1,16.8c-0.1,9.8-0.2,19.5-0.3,29.3c0,2.1,0,4.3,0.1,6.4
	c0.1,2.2-1,3-3.3,2.6c0.4-0.5,0.7-0.8,1-1.2c1-1.1,1.1-2.2-0.2-3.2c-1.4-1.1-1.7-2.5-1.5-4.4c0.3-3.3-0.1-6.6-0.1-9.9
	c0-2.5,0.3-4.9,0.4-7.4c0.1-2.3,0-4.7,0-7c0-5.3,0.1-10.5,0.1-15.8c0.1-5.7,0.2-11.4,0.3-17.1c0-0.2,0.2-0.5,0.2-0.7
	c0.5,0.4,1,0.9,1.5,1.3c0,2.5,0.1,5,0,7.6c-0.1,4.3-0.3,8.7-0.4,13c-0.2,6.5-0.4,13.1-0.5,19.6c0,1.7,0.2,3.4,0.4,5.6
	c0.4-0.6,0.6-0.7,0.6-0.9c0.2-6.3,0.3-12.7,0.5-19c0.2-6.4,0.3-12.8,0.4-19.2c0-1.7,0.3-3.4,0.4-5.1
	C121.4,270.6,121.7,270.9,122,271.2z M119.8,315.6c-1.2,2.1-1.1,11.8,0,13.1C119.8,324.4,119.8,320.2,119.8,315.6z"/>
<path d="M233.6,232.4c0.3,0.3,0.6,0.6,0.9,0.9c0.1,1.1,0.3,2.1,0.3,3.2c0,7.7,0,15.4-0.1,23c-0.2,12.9-0.4,25.7-0.7,38.6
	c-0.1,6.5-0.3,13-0.4,19.5c-0.1,3.9-0.1,7.9,0,11.8c0,1.4,0.3,2.7,0.6,4.3c-2,0-4.2,0-6.5,0c0-0.2,0-0.4-0.1-0.6
	c1.2-0.2,2.5-0.4,4-0.6c0.1-0.6,0.3-1.5,0.3-2.3c0.1-5.8,0.1-11.7,0.2-17.5c0.2-11.8,0.4-23.6,0.6-35.4c0.1-7.9,0.1-15.9,0.2-23.9
	c0.1-6.8,0.2-13.5,0.3-20.3C233.4,232.9,233.6,232.7,233.6,232.4z"/>
<path d="M377.1,265.8c0.2,1.9,0.6,3.8,0.6,5.7c-0.1,9.2-0.3,18.4-0.5,27.6c-0.1,9.2-0.1,18.4-0.2,27.6c0,2,0,4,0,6.1
	c0.8,0,1.7-0.1,2.6,0c0.5,0.1,0.9,0.6,1.4,1c-0.5,0.4-1.1,1.1-1.5,1.1c-1.7-0.3-3.5-0.8-4.9-1.2c0.1-1.9,0.3-3.7,0.4-5.5
	c0.1-6.4,0.2-12.7,0.2-19.1c0-2.1,0.5-4.3-0.1-6.2c-0.7-2.2,0-4.3,0-6.4c0.1-9.5,0.3-19,0.4-28.5c0-0.3,0.1-0.6,0.2-1
	C376.1,266.7,376.6,266.2,377.1,265.8z"/>
<path d="M378.7,14.9c-0.2-0.9-0.4-1.9-0.5-2.8c-0.2-2.6-1.4-3.7-4-3.7c-3.2,0-6.4,0-9.5,0c-5.1,0-10.3,0-15.4-0.1
	C344.1,8.2,338.9,8,333.7,8c-4.5,0-9,0.2-13.5,0.2c-4.2,0-8.4-0.2-12.6-0.3c-5.9,0-11.8,0-17.7,0c-5.1,0-10.3-0.1-15.4-0.1
	c-5.9,0-11.8,0-17.7-0.1c-1,0-2-0.2-3-0.7c0.5-0.1,1-0.3,1.5-0.3c11.5,0,23,0.1,34.6,0.1C300.3,6.9,310.8,7,321.2,7
	c8.7,0,17.5,0,26.2,0c7.8,0,15.5,0.2,23.3,0.3c1.9,0,3.9,0.2,5.8,0.2c3,0,3.8,1,3.5,3.9c-0.1,1.1-0.4,2.2-0.5,3.3
	C379.1,14.8,378.9,14.9,378.7,14.9z"/>
<path d="M226,224.8c0.3,0.3,0.7,0.6,1,0.9c0.1,0.9,0.3,1.7,0.3,2.6c-0.1,11.2-0.2,22.5-0.4,33.7c-0.2,9.3-0.5,18.6-0.6,27.9
	c-0.1,7.6-0.2,15.3-0.3,22.9c-0.1,6.1-0.1,12.2-0.1,18.3c0,0.8,0.4,1.6,0.8,2.8c-1,0-2,0-2.5,0c0.1-5.1,0.2-9.9,0.3-14.8
	c0-2.2,0-4.4,0.1-6.6c0.1-5.6,0.3-11.2,0.4-16.8c0.2-15.5,0.3-31.1,0.5-46.6c0.1-7.6,0.2-15.3,0.3-22.9
	C225.8,225.7,225.9,225.2,226,224.8z"/>
<path d="M360,333.9c-0.1,0-0.6,0.1-1.5,0.4c0.4-36.8,0.8-73.5,1.2-110.1c1.2,0.7,0.9,31.1,0.7,36.3c-0.3,12.2-0.3,24.3-0.3,36.5
	C359.9,309.2,360,321.4,360,333.9z"/>
<path d="M363.4,279.4c0.1,4.3,0.1,8.6,0.2,13c0,1.2,0.4,2.5,0.4,3.7s-0.3,2.4-0.3,3.5c-0.1,8.5-0.1,17.1-0.1,25.6
	c0,1.7,0.1,3.4,0.2,5.1c0.1,1.1,0.4,2.2,0.8,3.5c-0.8,0-1.9,0-3,0c0.9-5.2,0.8-21.9,0.2-22.7c0.2-2.1,0.4-3.8,0.4-5.5
	c0-4,0.3-8-0.2-11.9c-0.5-4.2,0.7-8.2,0.2-12.3c0-0.3,0.3-0.7,0.4-1.1C362.8,280.1,363.1,279.8,363.4,279.4z"/>
<path d="M160.5,7c0.4-0.2,0.7-0.6,1.1-0.6c30.2,0.1,60.4,0.2,90.6,0.3c0,0.3,0,0.5,0,0.8c-30.5,0-61,0-91.5,0
	C160.6,7.3,160.6,7.2,160.5,7z"/>
<path d="M363.4,279.4c-0.3,0.3-0.6,0.7-0.9,1c-0.2-1.9-0.6-3.8-0.6-5.6c0.1-10.8,0.4-21.7,0.6-32.5c0.1-8,0.2-16.1,0.4-24.1
	c0-0.2,0.2-0.5,0.3-0.7c0.3,0.3,0.7,0.6,1,0.9c0,3.2,0.1,6.4,0.1,9.6c-0.1,8.4-0.2,16.7-0.3,25.1c-0.1,5.4-0.2,10.8-0.3,16.2
	c0,2.7,0,5.5,0,8.2C363.7,278.1,363.5,278.8,363.4,279.4z"/>
<path d="M372.7,270.2c0.2,0.4,0.6,0.9,0.6,1.3c-0.1,7.2-0.2,14.5-0.2,21.7c-0.1,11-0.2,22-0.3,33c0,2,0,4,0.1,6
	c0.1,1.6-0.5,2.1-1.9,1.6c0.2-0.9,0.5-1.8,0.5-2.6c0.1-8.7,0-17.4,0.1-26.1c0.1-11.2,0.2-22.3,0.4-33.5c0-0.3,0.1-0.5,0.2-0.8
	C372.3,270.5,372.5,270.4,372.7,270.2z"/>
<path d="M409.2,84.8c-0.4,0.4-0.8,0.8-1.1,1.1c-6.3-3.1-21.8-3.7-23.8-0.9c0.5,0.3,0.9,0.6,1.8,1.1c-1,0.4-1.6,0.6-2.2,0.8
	c-0.7-1.6-1.1-3.2-3.1-3.2c-0.4-0.4-0.8-0.9-1.2-1.3c-0.4-0.4-0.8-0.8-1.1-1.2c-0.2-0.2-0.4-0.4-0.6-0.6c0.2-0.1,0.4-0.4,0.7-0.4
	c3.5,0.1,7.1,0,10.6,0.4c4.6,0.4,9.2,1.1,13.8,1.9C405,83,407,84.1,409.2,84.8z"/>
<path d="M22.7,85.7c0.8,2.5-3.3,3.9-0.4,6.2c-0.5-0.1-1.1-0.3-1.5-0.4c-9.9,18.7-9.8,38.6-7,58.9c-0.2,0-0.4,0-0.6,0
	c-0.3-1.5-0.7-2.9-0.9-4.4c-1.7-11.4-1.6-22.9,0.3-34.3c1.3-7.9,4.1-15.3,7.8-22.4C20.9,88.3,21.7,87.2,22.7,85.7z"/>
<path d="M267.5,266.2c-0.4-0.4-0.8-0.8-1.2-1.2c0-3.2,0-6.4,0-9.6c0.1-8.5,0.1-17.1,0.2-25.6c0-1.2,0.3-2.5,0.5-3.7
	c0.3-0.2,0.6-0.3,1-0.5c0,5.7,0,11.5,0.1,17.2c0,1,0.8,2,1.1,3c0.1,0.5,0,1.6-0.2,1.7c-1.5,0.3-1.2,1.5-1.2,2.4c0,5.3,0,10.6,0,15.9
	C267.8,265.9,267.6,266.1,267.5,266.2z"/>
<path d="M146.7,9.7c0.1-0.7,0.1-1,0.2-1.4c-0.3,0.1-0.5,0.1-0.7,0.1c-1.5,0.2-2.9,0.6-4.4,0.6c-1.1,0-2.2-1.6-3.4-0.1
	c-1.7-1.9-4-0.6-6-1c-3.1-0.6-6.2-0.5-9.3,0.5c-0.4,0.1-1-0.1-1.4-0.3c-1.7-0.7-2.7-0.3-3,1.6c-0.3,1.5-0.4,3.1-1,4.6
	c-0.2-2.4-0.4-4.7-0.6-7.4c14.4,0,28.6,0,42.9,0c0,0.1,0.1,0.3,0.1,0.4c-1.2,0.2-2.4,0.6-3.6,0.5c-1.9-0.1-3.6-0.1-5.3,1
	C150,9.6,148.3,9.5,146.7,9.7z"/>
<path d="M119.6,268.7c-0.5-0.4-1-0.9-1.5-1.3c-0.1-0.4-0.2-0.8-0.2-1.2c-0.1-4.6-0.3-9.1-0.3-13.7c0-3.6,0.5-7.1,0.6-10.7
	c0.1-2.9,0-5.9,0.1-8.8c0-0.7,0.2-1.4,0.3-2.1c0.1-0.2,0.3-0.3,0.4-0.5c0.2,0.8,0.5,1.6,0.5,2.4c0.2,9.7,0.4,19.4,0.5,29.1
	C120,264.2,119.8,266.5,119.6,268.7z"/>
<path d="M132.8,281.8c0,3.1,0,6.1,0,9.2c0,7.4,0,14.8,0,22.3c0,5.2,0,10.4,0.1,15.7c0,1.8-0.6,3.8,2,4.8c-0.9,0.2-1.7,0.5-2.6,0.6
	c-0.6,0.1-1.1-0.2-1.7-0.3c0.2-0.5,0.4-1,0.5-1.5c0.2-0.6,0.4-1.2,0.4-1.7c0.1-9.5,0.1-19,0.2-28.5c0.1-6.4,0.2-12.7,0.4-19.1
	C131.9,282.6,132.5,282.2,132.8,281.8L132.8,281.8z"/>
<path d="M136,285.2c0.1,0.6,0.3,1.3,0.3,1.9c0,11.7,0,23.4,0.1,35.1c0,2.9,0.1,5.8,0.4,8.6c0.1,0.8,0.9,1.6,1.7,2.9
	c-1,0-1.9,0.2-2.7-0.1c-0.4-0.1-0.6-1.2-0.6-1.9c0.1-8.7,0.3-17.4,0.3-26.1c0-5.7-0.2-11.4-0.2-17.1
	C135.3,287.5,135.8,286.4,136,285.2L136,285.2z"/>
<path d="M372.7,270.2c-0.2,0.2-0.4,0.4-0.6,0.6c-0.1-2.6-0.3-5.2-0.2-7.7c0.2-8.8,0.5-17.5,0.8-26.3c0.1-3,0.5-6.1,0.7-9.1
	c0.2,0.2,0.3,0.3,0.5,0.5c0.1,0.4,0.3,0.8,0.2,1.2c-0.2,6.9-0.5,13.7-0.6,20.6c-0.1,4.6,0,9.2-0.1,13.8
	C373.2,265.8,372.9,268,372.7,270.2z"/>
<path d="M132.8,281.8c-0.4-1.1-1.1-2.2-1.1-3.2c0-6.1,0.3-12.1,0.3-18.2c0-9.9-0.2-19.9-0.3-29.8c0-3-0.1-6-0.1-9
	c0-0.4,0.2-0.7,0.7-1.1c0.1,1.3,0.4,2.5,0.4,3.8c0,19.1,0,38.1,0,57.2C132.7,281.5,132.7,281.7,132.8,281.8L132.8,281.8z"/>
<path d="M61.8,50C46,57.1,34.1,68.4,25,83c-0.2-0.1-0.3-0.2-0.5-0.4c0.2-0.4,0.3-0.9,0.5-1.3c3.6-6,7.7-11.6,13.1-16.1
	c3.6-3.1,7.2-6.2,11.1-9c3.2-2.3,6.8-4.2,10.3-6.3c0.6-0.3,1.3-0.3,2-0.4C61.6,49.7,61.7,49.9,61.8,50z"/>
<path d="M122,271.2c-0.3-0.3-0.6-0.6-0.9-0.9c-0.1-0.7-0.3-1.4-0.3-2.1c0.1-10.1,0.2-20.2,0.3-30.3c0-3-0.2-6-0.3-9
	c0.2-0.1,0.3-0.3,0.5-0.4c0.2,1.2,0.6,2.5,0.6,3.7c0.2,12.5,0.4,25,0.5,37.5C122.4,270.1,122.1,270.7,122,271.2z"/>
<path d="M236.9,17.8c-16.4,0-32.8,0-49.2,0c0-0.3,0-0.5,0-0.8c16.4,0,32.8,0,49.2,0C236.9,17.2,236.9,17.5,236.9,17.8z"/>
<path d="M136.1,285.2c-0.2-0.8-0.6-1.5-0.6-2.3c0.1-10.4,0.2-20.7,0.3-31.1c0-4.6-0.1-9.2-0.2-13.8c0-0.4,0-0.8,0.4-1.2
	c0.1,0.8,0.4,1.6,0.4,2.5c0.1,8.4,0.2,16.9,0.2,25.3c0,6.2-0.2,12.3-0.3,18.5C136.3,283.8,136.1,284.5,136.1,285.2
	C136,285.2,136.1,285.2,136.1,285.2z"/>
<path d="M186.4,17.5c-15.3,0-30.5,0-45.8,0c0-0.2,0-0.3,0-0.5c15.3-0.8,30.6-0.2,45.9,0C186.5,17.1,186.5,17.3,186.4,17.5z"/>
<path d="M377.1,265.8c-0.5,0.5-0.9,0.9-1.4,1.4c-0.1-2.4-0.3-4.8-0.2-7.3c0-3.6,0.2-7.2,0.3-10.8c0-0.8,0.3-1.6,0.5-2.6
	c1.8,0.8,1.5,2.3,1.5,3.4c0,4.7-0.1,9.4-0.2,14.2C377.5,264.6,377.2,265.2,377.1,265.8z"/>
<path d="M260.3,232.9c0.3-0.3,0.6-0.6,1-0.9c0.1,0.8,0.3,1.7,0.3,2.5c-0.1,7.8-0.2,15.6-0.4,23.4c0,0.5-0.2,1-0.4,1.5
	c-0.3-0.3-0.6-0.6-0.9-0.9c0-3.6-0.1-7.1-0.1-10.7c0-4.3,0.1-8.7,0.1-13C260,234.2,260.2,233.5,260.3,232.9z"/>
<path d="M29.6,183.4c-7-9.6-12.6-19.9-15.5-31.5C18.1,162.9,23.1,173.5,29.6,183.4z"/>
<path d="M439.2,162.8c-0.1,0-0.2,0.1-0.3,0.1c-1.6,1.8-3.2,3.5-4.8,5.3c-0.2-0.1-0.4-0.3-0.6-0.4c0.8-1.1,1.6-2.2,2.3-3.4
	c2.3-3.5,4.5-7.1,6.8-10.6c0.3-0.4,0.9-0.5,1.3-0.8l0,0C442.4,156.3,440.8,159.5,439.2,162.8z"/>
<path d="M320.3,317.4c0,3.6,0,7.2,0,10.8c0,1.3,0.1,2.7,0,4c-0.1,0.7-0.6,1.3-0.9,1.9c-0.2-0.1-0.5-0.2-0.7-0.3
	c0.2-5.5,0.5-11,0.7-16.4C319.8,317.3,320,317.3,320.3,317.4z"/>
<path d="M406.5,87.5c-1-0.1-2-0.1-2.9-0.3c-2.2-0.3-4.4-0.7-6.5-0.9c-3-0.1-6,0-9.1,0c0-0.2-0.1-0.4-0.1-0.6c0.3-0.2,0.7-0.5,1-0.5
	c5.6-0.4,11.2,0.1,16.6,1.7C405.8,87.1,406.1,87.4,406.5,87.5C406.4,87.6,406.5,87.5,406.5,87.5z"/>
<path d="M30.6,184.7c2.2,2.5,4.4,5.1,6.8,7.6c1.2,1.3,2.3,3.1,4.8,1.8c0,0.2-0.1,0.4-0.1,0.6c-0.4,0.2-0.8,0.4-1.8,0.9
	c1.4,0.9,2.6,1.7,3.8,2.5c-0.3,0.2-0.5,0.5-0.8,0.7C38.1,195.1,34.1,190.1,30.6,184.7z"/>
<path d="M57.9,206.8c0,0.1,0,0.2,0,0.3c-1.3-0.4-2.6-0.6-3.7-1.2c-3.4-2-6.6-4.1-9.9-6.2c0.1-0.1,0.2-0.3,0.3-0.4
	C49,201.8,53.5,204.3,57.9,206.8z"/>
<path d="M236.8,332.7c3,0.6,6-0.6,8.9,0.3c0,0.2,0,0.4,0,0.6c-3,0-6,0-8.9,0C236.8,333.3,236.8,333,236.8,332.7z"/>
<path d="M360.1,214.3c0.2,0.2,0.3,0.3,0.5,0.5c0.7,3,0.5,6.1-1,7.5C359.8,219.3,359.9,216.8,360.1,214.3z"/>
<path d="M148.6,232.2c0.3,3.8,0.6,7.6,0.9,11.3c-0.3,0-0.6,0-0.9,0C148.6,239.7,148.6,236,148.6,232.2L148.6,232.2z"/>
<path d="M159.7,333.9c-1.8-0.2-3.6-0.4-5.4-0.6c0-0.4,0.1-0.8,0.1-1.1c1.8,0.2,3.6,0.5,5.4,0.7C159.8,333.2,159.8,333.5,159.7,333.9
	z"/>
<path d="M247,333.7c1.3-1.7,4.4-1.7,5.5,0C250.6,333.7,248.9,333.7,247,333.7z"/>
<path d="M208.9,332.9c1.6,0,3.3,0,5,0C212.7,334.7,211.9,334.7,208.9,332.9z"/>
<path d="M273.4,332.9c1.5,0,2.9,0,4.5,0C276.8,334.7,275.6,334.8,273.4,332.9z"/>
<path d="M181.1,333.8c-1.3-0.1-2.6-0.3-3.8-0.4c0-0.2,0-0.4,0-0.6c1.3,0,2.6,0,4,0C181.2,333.2,181.2,333.5,181.1,333.8z"/>
<path d="M288.3,333.9c-1.2,0.1-2.3,0.1-3.6,0.2C285.3,332.4,286.8,332.2,288.3,333.9z"/>
<path d="M135.8,17.3c-1.8,0-3.6,0-5.4,0c0-0.1,0-0.3,0-0.4c1.8,0,3.6,0,5.4,0C135.8,17.1,135.8,17.2,135.8,17.3z"/>
<path d="M444,153c-0.3-2.2,0-3.7,1.7-5.3C445.1,149.5,444.5,151.2,444,153L444,153z"/>
<path d="M278.5,333.7c0.5-0.7,1-1.4,1.5-2.1c0.3,0.2,0.8,0.6,0.7,0.7c-0.3,0.7-0.8,1.4-1.2,2.2C279.2,334.1,278.9,333.9,278.5,333.7
	z"/>
<path d="M314,333.7c-1.2,0-2.4,0-3.5,0c0-0.2,0-0.5,0-0.7c1.2-0.1,2.4-0.1,3.6-0.2C314,333.2,314,333.4,314,333.7z"/>
<path d="M220.9,127.7c0.4,0.8,0.9,1.6,1.1,2.4c0.9,4.4,1.1,8.9-0.5,13.2c-0.5,1.3-2.3,2.6-3.7,2.9c-2,0.3-4.4,0.1-6.2-0.7
	c-1.7-0.7-3-2.5-4.5-3.9c0.7-0.7,1.5-1.4,2.2-2.1c1.8,1.2,3.5,2.6,5.4,3.5c3.4,1.5,6.1,0.1,6.5-3.6c0.3-2.7-0.1-5.4-0.3-8.1
	c-0.1-1-0.4-2-0.5-2.9C220.6,128.1,220.8,127.9,220.9,127.7z"/>
<path d="M251.3,97.3c-3,1.1-6.1,0.3-9.1,0c-0.4-0.5-0.9-0.9-1.3-1.4c2.2,0,4.5-0.1,6.7,0c1.6,0,3.1,0.3,4.7,0.4
	C252,96.7,251.7,97,251.3,97.3z"/>
<path d="M243.9,104.8c2.1,0.1,4.2,0.3,6.3,0.4c0.3,0.3,0.7,0.7,1,1c-0.7,0.2-1.3,0.5-2,0.5c-2,0-4,0-6-0.1c-0.2,0-0.5-0.3-0.7-0.5
	C242.9,105.7,243.4,105.3,243.9,104.8z"/>
<path d="M374.2,120.2c-0.4,0.5-0.7,1.1-1.2,1.5c-1.1,1-2.2,2-3.3,2.9c-0.4,0.3-0.8,0.6-1.3,0.9c0-0.5-0.1-1.1,0.1-1.4
	c2.7-3.2,5.5-6.3,9.3-8.3C376.6,117.3,375.4,118.7,374.2,120.2z"/>
<path d="M111.1,110.2c2.9,1.3,5.9,2.4,8.5,4.1c4.2,2.5,7.3,6.2,9.8,10.4c3.9,6.8,5.6,14.2,4.8,22.1c-0.5,5-1.3,10-3.8,14.4
	c-6.8,12.2-16.8,19.8-31,21c-4.2,0.4-8.5,0.1-13,0.1c4.4,3.7,24.4,0.2,32.2-5.5c0.1,0.1,0.3,0.2,0.4,0.3c-0.6,0.8-1,1.9-1.7,2.3
	c-3.8,1.7-7.5,3.7-11.4,4.7c-8.8,2.3-17.7,2.1-26.4-1.1c-9-3.3-16.9-8.2-22.1-16.3c-2.9-4.6-5.5-9.5-7.3-14.6
	c-3.1-8.6-3.1-17.6-1.4-26.5c0.1-0.7,0.1-1.5,0.4-2.1c0.4-0.7,1.1-1.2,1.9-1.4c-0.6,2.5-1.2,5.1-1.8,7.6c0.3,0.1,0.6,0.2,0.9,0.2
	c2-5.3,2-11.5,6.4-15.8c-2.2,4.7-4.3,9.3-4.2,14.7c0.4-0.7,0.8-1.3,1.5-2.4c-1.1-1.9,0.7-3.8,1.5-6c1.2-3.5,2.5-6.7,5.4-9.2
	c0.4-0.3,0.2-1.1,0.5-1.6c1.4-2.5,3.9-4,5.7-6.3c2.4-3.1,6.2-5.4,9.8-7.4c3.2-1.8,6.8-3.1,10.3-4.3c6.8-2.2,13.8-2.9,20.9-2.1
	c0.1,0,0.2,0.2,0.3,0.3c-0.3,0.3-0.6,0.6-0.9,0.9c-0.7,0.4-1.3,0.8-1.8,1.1c-1.2-0.2-2.3-0.5-3.4-0.4c-5.2,0.4-10.3,1.2-15.3,2.7
	c-6.5,1.9-12.5,4.7-17.3,9.6c-6.3,6.5-12,13.4-13.8,22.7c-1.6,7.8-2.2,15.7,0.2,23.4c1.8,5.6,4.2,10.9,8.1,15.6
	c6.4,7.6,14.7,11.6,24,13.1c10.2,1.7,20.2,0.1,28.9-6.4c13.1-9.8,16.2-22.7,12.9-38c-1.9-8.6-7.6-14.1-14.4-18.8c0-0.2,0-0.4,0-0.7
	c2.7,0.3,4.3,2.2,6,3.9c1.5,1.6,3.1,3.1,4.6,4.7c0.2-0.1,0.4-0.3,0.6-0.4c-0.4-0.7-0.6-1.6-1.2-2.1c-2.5-2.1-5.1-4.3-7.8-6.2
	c-1.9-1.4-4.1-2.3-6.2-3.4C111.1,110.5,111.1,110.3,111.1,110.2z M49.6,130.6c-0.2,0-0.4,0-0.6,0c-0.1,2.4-0.2,4.8-0.4,7.2
	c-0.5,6.1,1.4,11.8,3.4,17.2c1.9,5,5.2,9.4,8.1,14c1.1,1.7,2.7,3,5.1,3.2c-1.7-1.8-3.3-3.7-5-5.5c0.1-0.1,0.3-0.2,0.4-0.4
	c1.7,1.6,3.4,3.1,5.1,4.7c0.2-0.1,0.3-0.3,0.5-0.4c-11-11.5-14.7-25.2-13.5-41c0,0-0.4-0.2-1.1-0.5c-0.4,2-0.8,4-1.1,5.9
	c-0.1,0-0.2,0-0.3-0.1C49.9,133.5,49.7,132,49.6,130.6z M125.4,165.6c5.2-4.6,10.5-17.3,6.8-31.6c-1.1-4.3-4.2-10.4-6.1-10.7
	C134.2,137.5,133.9,151.6,125.4,165.6z M125.2,167.2c-0.2-0.3-0.4-0.6-0.6-0.9c-10.3,11.7-23.4,15.4-38.8,13.3
	c3,3,16.7,2.3,25.7-1.5C117.1,175.8,121.7,172,125.2,167.2z M84.7,179.9c-5.9-2.8-11.6-5.5-17.4-8.3
	C72.3,176.1,78.1,178.8,84.7,179.9z M66,173.4c5.3,4.4,11.6,6.8,18.1,8.7C78.1,179.2,72,176.3,66,173.4z"/>
<path class="st0" d="M119.8,315.6c0,4.7,0,8.9,0,13.1C118.8,327.4,118.6,317.7,119.8,315.6z"/>
<path d="M251.3,97.3c0.3-0.3,0.7-0.7,1-1c1.7-0.1,3.4-0.3,5.2-0.4c8.7-0.7,17.3-1.3,26-2.1c5-0.5,10-1,14.9-1.8
	c4.7-0.8,9.4-1.9,14.1-2.8c6-1.1,11.9-2.1,17.9-3.2c3-0.6,6-1.3,8.7-2c0.1-0.9,0.2-1.6,0.3-2.4c0.2-0.1,0.4-0.2,0.7-0.2
	c0.4,2.7,1.9,2.1,3.7,1.8c5.3-0.8,10.6-1.4,15.9-2.1c1.3-0.2,2.6-0.6,3.9-0.7c1.2-0.1,2.4,0.1,3.6,0.1c3.6,0.1,7.1,0.1,10.7,0.1
	c0.2,0.2,0.4,0.4,0.6,0.6c-1,0.2-2,0.7-3,0.7c-6.8,0-13.6,0.5-20.4,1.6c-4.9,0.8-10,1.1-14.9,2c-8.7,1.6-17.4,3.5-26.1,5.3
	c-1.8,0.4-3.5,1.2-5.2,1.5c-1.9,0.3-3.8,0.1-5.7,0.4c-6.4,0.9-12.8,2.2-19.2,2.9c-5.8,0.7-11.6,0.9-17.4,1.3
	c-4.3,0.3-8.7,0.5-13,0.7C252.7,97.8,252,97.5,251.3,97.3z"/>
<path d="M111.1,110.2c0,0.2,0,0.3,0,0.5c-1.7-0.2-3.5-0.4-5.2-0.5c-1.8-0.1-3.5,0-5.3,0c0,0.2,0,0.4-0.1,0.6
	c5,0.5,10.3,0.2,14.6,3.5c0,0.2,0,0.4,0,0.7c-3-0.7-5.9-1.8-8.9-2.1c-7.6-0.9-14.8,0.3-20.7,5.8c-0.3,0.3-0.5,0.7-1,1.2
	c2-0.8,3.7-1.4,5.4-2c11.4-3.9,23.2,2.4,28.3,12.5c1.8,3.6,2.2,7.7,1.8,11.9c-0.4,5-2,9.2-4.8,13.1c-3.6,4.9-8.5,7.8-14.4,9.1
	c-4.7,1-9.2,0.9-13.8-0.8c-3.6-1.3-6.3-3.7-8.4-6.8c-1.1-1.5-2.2-3-3.1-4.7c-3.1-5.9-4.4-12.3-3.7-18.7c0.5-4.1,1.8-8.3,4.4-11.9
	c2.2-3.1,3.9-6.6,7.4-8.7c3.8-2.3,7.6-4.4,12.1-5.5c3.7-0.9,7.2-0.3,10.9-0.4c0.6,0,1.2,0.4,1.8,0.7c0.2,0.2,0.4,0.4,0.6,0.6
	c-1.9,0-3.9-0.1-5.8-0.1c-1.8,0-3.7,0.2-5.6,0.7C102,108.4,106.6,108.5,111.1,110.2z M101,120.6c1,0.5,2,1.1,3,1.6
	c5.1,2.4,9,6,11.1,11.3c0.2,0.5,0.5,0.8,0.8,1.3c0.2,0,0.4-0.1,0.6-0.1c0-0.6,0.2-1.4,0-1.8c-1.6-2.5-3-5.3-5.1-7.3
	C108.4,122.9,105,120.9,101,120.6c-0.7-0.2-1.3-0.7-1.9-0.7c-9.7-0.7-20.3,4.5-23,15.8c-1.5,6.4-0.3,12.2,3.7,17.4
	c1.2,1.5,2.6,2.9,3.9,4.3c0.2-0.1,0.3-0.3,0.5-0.4c-1-1.4-2-2.9-3.1-4.2c-3.6-4-4.7-8.9-4.2-13.8c0.7-7.6,4.6-13.4,11.8-16.6
	C92.5,120.5,96.7,120.3,101,120.6z M114.2,140c0.2-9.9-7.1-17.7-16.9-17.8c-10.8-0.1-18.9,7.3-19.3,18.4
	c-0.3,7.5,7.6,19.4,17.8,18.3C104.5,158.1,114.8,153.1,114.2,140z M85.5,158.2c2.2,1.8,4.2,3.6,7.2,3.5c3.8-0.1,7.4-0.1,11.1-1.7
	c2.8-1.2,5.4-2.3,7.4-4.7c3.9-4.7,6.4-10,5.9-16.4c-0.1-1.1-0.7-2.1-1-3.1c-0.2,0-0.3,0.1-0.5,0.1c0.5,8.1-0.8,15.7-8,20.5
	C100.7,161.1,93.2,162.1,85.5,158.2z M88.8,119.9c-6.5,0.9-12.6,7.5-12.5,12C78.5,125.8,83.1,122.3,88.8,119.9z M114.9,127.7
	c-2.7-4.9-7.1-7.2-12.2-8.5C107.2,121.3,111.6,123.7,114.9,127.7z M86.8,112.3c0.1,0.2,0.2,0.5,0.3,0.7c2.8-1.3,5.7-2.5,8.5-3.8
	c-0.1-0.2-0.2-0.4-0.3-0.6C92.5,109.8,89.6,111,86.8,112.3z M74.3,139.1c-0.7,3.1-0.6,6,1,8.8C75,144.9,74.7,142,74.3,139.1z
	 M78.8,154.2c1,2,2.1,3.7,4.2,4.3C81.6,157.2,80.3,155.8,78.8,154.2z M118.4,138.7c0.2,0,0.4-0.1,0.6-0.1c-0.3-1.8-0.6-3.6-0.9-5.4
	c-0.3,0-0.5,0.1-0.8,0.1C117.7,135.1,118,136.9,118.4,138.7z"/>
<path d="M358,190.5c1.5,0.9,3.2,1.6,4.5,2.7c5.3,4.7,10.9,8.9,17.6,11.4c4.2,1.5,8.7,2.5,13.1,3.5c5.2,1.2,10.5,0.9,15.8,0.7
	c5.3-0.2,10.2-1.7,15.2-3.2c5.7-1.7,11-4.1,15.9-7.4c4.3-3,8.6-6.1,12.4-9.6c4.9-4.5,8.7-10.1,12.3-15.7c3-4.8,5.3-10,7.1-15.4
	c0.7-2.1,1.6-4,2.5-6c0.2,0,0.4,0,0.6,0c0,1,0.2,2,0,3c-1.4,6.4-4.8,11.8-7.8,17.5c-3.2,6.1-7.6,11.4-12.2,16.5
	c-2,2.2-4.5,3.9-6.9,5.8c-2.9,2.2-5.7,4.6-8.8,6.4c-3.4,2-7,3.5-10.6,5.1c-5.8,2.6-12,3.7-18.2,4.4c-4,0.5-8.2,0.2-12.2-0.2
	c-5-0.5-9.9-1.6-14.8-2.5c-1.6-0.3-3.2-1.1-4.7-1.7c-6.8-3-12.8-7.2-18.2-12.2c-0.9-0.8-1.9-1.7-2.8-2.5
	C357.7,190.9,357.9,190.7,358,190.5z"/>
<path d="M108.7,108.2c-0.2-0.2-0.4-0.4-0.6-0.6c2.6,0.6,5.3,0.9,7.8,2c7.6,3.3,12.9,9.2,16.6,16.3c3.2,6.1,4.7,12.8,4.4,19.8
	c-0.3,8.1-2.9,15.5-7.5,22c-2.5,3.6-6.1,6.5-9.2,9.7c-0.2,0.2-0.5,0.2-1.2,0c0.3-0.7,0.5-1.7,1-2.1c3.6-2.9,6.7-6.3,9-10.1
	c1.9-3.2,3.5-6.6,4.7-10.2c2.3-7.3,2.1-14.8,0.1-22.3c-1.5-5.5-4-10.6-7.9-14.6c-4.3-4.4-9.2-8.1-15.6-9.3
	C109.9,108.9,109.3,108.5,108.7,108.2z"/>
<path d="M78.3,93.4c-3.3,2-6.5,3.9-9.8,5.9c2.1-3.9,5.9-5,9.4-6.6C78,92.9,78.1,93.2,78.3,93.4z"/>
<path d="M291.9,152.3c0.8,1,1.3,1.7,1.8,2.4c0,0.1-0.8,0.8-0.8,0.7c-0.7-0.5-1.4-1.1-2-1.7C290.9,153.7,291.4,153.1,291.9,152.3z"/>
<path d="M380.6,133.1c2.1-3.9,4.4-7.3,7.9-9.8c3.5-2.4,7.5-3.1,11.6-3.5c-5.4-1.2-9.9,0.8-14.3,3.7c1.1-2.4,3.4-3.2,5.5-4
	c4.2-1.6,8.7-1.8,13-0.6c2.9,0.8,5.6,2.1,8.3,3.4c4,2.1,6,6,7.6,10c3.7,8.9,1.9,17.1-4.7,24c-3.2,3.3-7.2,5.2-12,5.9
	c-7.1,1-13.3-1.4-18.7-5.5c-3.4-2.6-6-6.1-6.7-10.8c-0.5-3.3-0.9-6.6-0.3-9.9c0.2-1,0.8-2,1.5-2.9c-1.5,4.9-0.8,9.7,0.4,14.4
	c0.8,3,2.7,5.3,4.8,7.3c3.6,3.4,8,5.6,13.1,5.7c2.6,0.1,5.3,0.4,7.7-0.2c6.5-1.5,11.3-5.2,13.7-11.6c0.2-0.7,0.2-1.5,0-2.3
	c-1.1,1.8-2.2,3.5-3.2,5.3c-2.2,4.1-6,6.3-10.3,7.3c-7.2,1.7-13.9-0.2-19.6-4.8c-5.4-4.3-7.2-10.3-6.3-17c0-0.1,0-0.3,0.1-0.4
	c0.4-0.8-0.6-2.2,1.1-2.2c0.1,0,0.4,1.6,0.2,2.4c-1.3,8.4,2.1,15,9.9,18.7c4.6,2.2,9.4,3,14.5,1.8c4.5-1,7.8-3.6,10.1-7.6
	c2.5-4.2,2.8-8.6,2.1-13.5c-0.9-6.1-4.3-10-9.2-12.5c-8.4-4.3-20.2-3.3-25.3,7.3C383,132.1,382.9,134,380.6,133.1z M419.3,145.6
	c2.9-2.8,1.8-11.9-1.9-17.1c-4-5.8-12.8-10.3-17-8.5C415.2,122.4,420.5,131.5,419.3,145.6z"/>
<path d="M380,131.7c0.7-3.3,2.4-5.9,5.3-7.7C383.5,126.6,381.7,129.1,380,131.7z"/>
<path d="M50.5,142.9c1.2,4.1,2.4,8.1,3.7,12.4C52.4,153.3,49.9,144.7,50.5,142.9z"/>
<path d="M56.7,161.6c-0.9-1.6-1.7-3.2-2.6-4.7c0.2-0.1,0.5-0.3,0.7-0.4c0.8,1.6,1.6,3.2,2.3,4.8C57,161.4,56.8,161.5,56.7,161.6z"/>
</svg>
