<?xml version="1.0" encoding="utf-8"?>
<!-- Generator: Adobe Illustrator 22.1.0, SVG Export Plug-In . SVG Version: 6.00 Build 0)  -->
<svg version="1.1" id="Layer_1" xmlns="http://www.w3.org/2000/svg" xmlns:xlink="http://www.w3.org/1999/xlink" x="0px" y="0px"
	 viewBox="0 0 492 569" enable-background="new 0 0 492 569" xml:space="preserve">
<g id="RrsXLZ_1_">
	<g>
		<path d="M373.3,462.9c-0.1-1.2-0.2-2.4-0.2-3.6c0.1-2.9,0.2-5.8,0.3-8.7c0.1-3.1-0.2-3.4-2.5-3.4c-2.2-1.6-3.9-2.7-6.1-4.3
			c-0.1,2.5-0.2,4.3-0.2,6.1c-0.1,1.6-0.2,3.1-0.3,4.7c-0.3-0.3-0.7-0.6-1-0.9c0-2.9,0-5.8,0.1-8.7c0.1-1.5,0-2.7-2.1-3
			c-0.2,3-0.4,6-0.6,9c-0.2-0.2-0.3-0.3-0.5-0.5c-0.1-1.9-0.3-3.9-0.2-5.8c0.2-2.8-0.6-5-3-6.7c-1.9-1.4-3.5-3.3-5.2-5
			c-0.7-0.7-1.5-1.3-2.8-1.8c0,1.9,0.1,3.8,0,5.7c0,0.7-0.5,1.3-0.8,2c-0.2,0.5-0.3,1-0.2,1.5c1.2,7.7,1.1,15.5,1,23.2
			c-0.2,11.7-0.5,23.4-0.6,35.1c-0.1,7.9-0.1,15.8-0.2,23.7c-0.1,13.4-0.3,26.9-0.4,40.3c0,1.7,0.2,3.5,0.1,5.2
			c0,0.7-0.6,1.3-0.9,1.9c-0.4-0.6-0.9-1.3-1-1.9c-0.1-1.7-0.1-3.5-0.1-5.2c0.1-10.8,0.2-21.5,0.3-32.3c0-3.1,0-6.3,0.1-9.4
			c0.1-7.9,0.3-15.7,0.4-23.6c0.1-9.3,0.1-18.7,0.2-28c0.1-11.1,0.4-22.1,0.6-33.1c0-2.5,0.6-5,0.2-7.3c-0.3-1.6-1.7-3-2.7-4.5
			c-0.2,0-0.4,0.1-0.5,0.1c-0.1,0.7-0.3,1.5-0.3,2.2c-0.1,12.9-0.1,25.9-0.2,38.8c-0.1,11.4-0.3,22.8-0.4,34.1
			c-0.1,5.8,0,11.6-0.1,17.5c0,4.1-0.3,8.2-0.3,12.2c-0.1,4.1-0.1,8.3-0.1,12.4c-0.1,6.8-0.2,13.6-0.2,20.4c0,1.9,0,3.8,0.4,5.6
			c0.4,2-0.3,2.2-2.1,2c0.2-2.3,0.4-4.6,0.5-6.8c0.1-3.5,0.1-7.1,0.1-10.6c0.1-14.2,0.2-28.4,0.3-42.6c0.1-6.6,0.4-13.1,0.5-19.6
			c0.1-13.3,0.2-26.5,0.3-39.8c0-9.2,0-18.3,0-27.5c0-0.8-0.3-1.6-0.6-2.3c-2.4-5.1-4.9-10.2-7.1-15.4c-0.7-1.7-1.5-1.7-2.6-0.9
			c-2.5,1.9-3.9,4.3-3.9,7.6c0,6.1-0.5,12.3-0.5,18.4c-0.1,5.4,0.3,10.8,0.2,16.2c0,7.1-0.3,14.2-0.4,21.3
			c-0.2,12.6-0.3,25.2-0.5,37.8c-0.2,11.4-0.4,22.8-0.5,34.3c-0.1,8.9-0.1,17.8-0.2,26.7c0,0.7,0.2,1.5,0.1,2.2
			c-0.1,0.6-0.5,1.5-0.8,1.5c-1,0.1-1.4-0.5-1.4-1.6c0.3-5.8,0.5-11.5,0.6-17.3c0.1-8.2,0.1-16.3,0.2-24.5
			c0.1-8.4,0.3-16.8,0.4-25.2c0.1-13.3,0.1-26.5,0.2-39.8c0.1-9.2,0.5-18.3,0.7-27.5c0.1-5.8-0.1-11.6,0-17.4
			c0.1-3.2,0.2-6.5,0.8-9.6c0.2-1.3,1.8-2.4,2.8-3.4c0.6-0.6,1.4-1,2.3-1.3c1.1-0.4,1.2-1.1,0.9-2c-0.2-0.8-0.6-1.5-0.6-2.3
			c-0.1-1.2-0.8-1.6-1.8-1.6c-2.8-0.1-5.6-0.2-8.4-0.3c-7.4-0.1-14.7-0.2-22.1-0.3c-5.5-0.1-10.9-0.1-16.4,0c-2.6,0-5.1,0.4-7.7,0.5
			c-1.2,0-2.4-0.4-3.6-0.4c-6.6-0.1-13.2-0.1-19.9-0.1c-6.3,0-12.7-0.1-19-0.1c-0.8,0-1.5,0.6-2,0.8c-1.2-0.3-2.1-0.8-3.1-0.8
			c-13.1-0.1-26.1,0-39.2-0.1c-7.2,0-14.4,0-21.7-0.1c-1.7,0-2.7,0.4-2.8,2.2c0,0.5-0.3,1-0.5,1.5c-0.7,2-0.6,3.5,1.5,4.7
			c2.9,1.7,3.4,4.9,3.5,7.9c0.3,8.3,0.3,16.6,0.3,24.8c0,6.8-0.1,13.5-0.2,20.3c-0.1,14.3-0.3,28.7-0.4,43
			c-0.1,12.9-0.3,25.7-0.4,38.6c-0.1,5.1-0.3,10.3-0.3,15.4c0,4.2,0.1,8.4,0.3,12.7c0,0.8,0.5,1.5,0.9,2.6c-1-0.1-2.1-0.2-2.8-0.3
			c0.2-3.6,0.4-7.1,0.4-10.6c0.1-8.3,0.2-16.6,0.3-24.8c0-4.7,0-9.4,0.1-14c0.1-9.4,0.4-18.9,0.5-28.3c0.1-6.7,0-13.4,0.1-20.1
			c0.1-6.2,0.4-12.3,0.4-18.5c0-7.1-0.1-14.2-0.2-21.3c0-4.1-0.3-8.3,0-12.4c0.3-3.1,0.4-6.2-0.5-9.1c-0.6-1.8-1.5-3.5-2.7-5
			c-1.1-1.4-2-1-2.8,0.6c-2.5,5.1-5.2,10.1-7.5,15.3c-0.8,1.9-0.7,4.3-0.7,6.5c0,20.2,0,40.3,0,60.5c0,11.1-0.3,22.2-0.3,33.3
			c-0.1,14.1,0,28.1,0,42.2c0,1.9,0,3.7,0,6c-2,0-4,0-5.9-0.1c-0.2,0-0.6-0.9-0.6-1.4c0.2-5.9,0.7-11.8,0.8-17.6
			c0.1-12.5,0-25,0.1-37.5c0.1-6.8,0.4-13.7,0.5-20.5c0.1-2.3,0-4.7,0.3-7.1c0.1,0.6,0.3,1.2,0.3,1.8c-0.1,18.9-0.3,37.8-0.4,56.7
			c0,7.2,0.1,14.3,0.1,21.5c0,0.7,0,1.5,0.3,2c0.4,0.6,1.1,1.1,1.8,1.2c0.3,0.1,1-0.7,1.2-1.3c0.2-0.6,0.2-1.3,0.2-2
			c0.1-11.1,0-22.1,0.1-33.2c0.1-13.3,0.3-26.5,0.5-39.8c0.1-6.4,0.4-12.9,0.1-19.3c-0.3-6.2,0.1-12.3,0.1-18.4
			c0-1.1-0.3-2.1-0.2-3.2c0-1.7-1.1-1.8-2.3-1.9c-1.4,0-1.4,0.9-1.4,2.1c0,4.7,0,9.4-0.1,14.1c0,0.8-0.4,1.6-0.6,2.4c0,0,0,0,0,0
			c-0.1-12.4-0.2-24.7-0.3-37.1c-0.3-0.1-0.5-0.2-0.8-0.2c-2.1,2.1-4.1,4.3-6.3,6.3c-0.6,0.6-1.7,1-2.5,1c-1.3,0-1.8,0.4-1.9,1.7
			c-0.4,3-0.8,5.9-1.6,8.9c0-2.1,0-4.1,0-6.3c-1.6,0-2.5,0.7-2.5,2.1c-0.1,2.5,0.1,5,0.1,7.5c0,0.6-0.4,1.1-0.6,1.7
			c-0.2-0.1-0.4-0.1-0.7-0.2c0-2.3,0-4.6,0-6.9c0-0.6-0.4-1.2-0.6-1.8c-0.5,0.2-1,0.5-1.5,0.7c-1.5,0.8-2.9,1.6-4.4,2.2
			c-0.5,0.2-1.3-0.4-1.9-0.7c0.1-0.3,0.1-0.5,0.2-0.5c3.6-2.1,7.4-4.1,10.9-6.4c2.6-1.7,4.7-4.1,7.1-6.1c1.3-1.1,2.7-2.1,3.9-3.4
			c1.7-1.9,3.3-4,4.8-6.1c7.9-10.8,12.6-23.1,14.8-36.2c1.3-7.7,1.1-15.5-1.7-22.9c-1.6-4.4-3.2-8.9-5-13.3c-1.6-4-5-6.7-7.8-9.9
			c-4-4.6-8.8-8.3-13.8-11.5c-7.2-4.6-14.9-7.9-23.5-8.6c-3.8-0.3-7.6-0.4-11.4-0.5c-1,0-2,0.4-3,0.7c0,0.2,0,0.4,0,0.6
			c1.3,0,2.6,0,4,0c2,0,4,0,6,0.1c0.4,0,0.8,0.5,1.2,0.7c0,0,0,0.1,0,0.1c-0.4,0.1-0.9,0.3-1.3,0.3c-3.7,0-7.4-0.2-11,0.1
			c-5,0.4-9.9,1.2-14.5,3.5c-1.1,0.5-2.4,0.5-3.6,0.7c-1,0.1-2.1-0.3-2.9,0.1c-4.4,1.7-8.1,4.3-11.5,7.7c-3.8,3.8-7,7.8-9.6,12.4
			c-1.5,2.6-2.8,5.3-4.2,8c-0.2,0-0.3-0.1-0.5-0.1c0.2-1,0.3-2.1,0.7-3.1c0.7-1.7,1.7-3.3,2.5-5c3-6,7.2-10.9,12.2-15.2
			c5.6-4.6,12-7.7,18.9-9.8c4.9-1.5,9.7-3.1,14.7-4.2c2.7-0.7,5.7-0.8,8.5-0.8c7.8-0.2,15.6-0.3,23.4-0.3c4.2,0,8.4,0.3,12.6,0.7
			c3.7,0.3,7.4,0.9,11.1,1.4c7.5,1,15,2,22.6,3.1c4.1,0.6,8.3,1.4,12.4,2.2c4.6,0.8,9.1,1.8,13.7,2.6c6.2,1,12.5,2,18.8,2.7
			c3.7,0.5,7.5,0.5,11.2,0.8c2.4,0.2,4.7,0.5,7.1,0.8c0.4,0.5,0.9,0.9,1.3,1.4c-0.6,0.1-1.3,0.3-1.9,0.3c-8.5-0.8-17.1-1.5-25.6-2.6
			c-8-1.1-15.9-2.6-23.9-4c-0.3,0.5-0.6,1-0.7,1.2c-1.2-0.8-2.2-1.6-3.4-2c-1.1-0.4-2.4-0.3-3.6-0.5c-7.3-1.1-14.5-2.2-21.8-3.2
			c-4.2-0.6-8.5-1.1-12.7-1.6c-4.4-0.5-8.8-0.9-13.2-1.4c-0.8-0.1-1.7,0.1-2.5,0.1c0.2,0.6,0.3,0.8,0.5,0.8c3.3,0.6,6.8-0.1,10,1.2
			c0.4,0.2,0.9-0.1,1.4,0c1,0,2,0,3,0.2c3.1,0.6,6.1,1.4,9.2,1.9c7.5,1.4,14.9,2.7,22.4,4c6.9,1.2,13.8,2.5,20.7,3.7
			c6.3,1.1,12.6,2.2,19,3.1c11.3,1.7,22.6,2.4,34,2.1c7.3-0.2,14.6-0.3,21.9-1c8-0.8,16-2.1,24-3.4c5.2-0.8,10.3-2.1,15.5-3.2
			c8.9-1.9,17.8-4,26.7-5.5c9.9-1.7,19.9-2.9,29.9-4.3c2.8-0.4,5.7-0.6,8.5-0.8c0.4,0.4,0.8,0.9,1.2,1.3c-0.9,0.6-1.7,1.3-2.7-0.1
			c-0.3-0.4-2.8,0.1-3,0.6c-0.8,2.4-3.2,2-4.7,2.8c-3.9,2.1-8.3,3.5-11.9,6c-5.1,3.5-10,7.4-13.6,12.6c-2.7,3.8-5.6,7.5-7.4,11.7
			c-2.2,5.1-3.7,10.6-5,16c-1.7,7.5-1.4,15.2,0.1,22.7c1,5.1,3.2,10,4.5,15.1c1.7,6.4,5.5,11.7,8.9,17.1c2.1,3.3,4.9,6.2,7.8,8.8
			c4.3,3.8,8.7,7.6,13.5,10.6c4.5,2.8,9.6,4.4,14.4,6.6c5.4,2.5,11.2,2.6,16.8,3.2c4.9,0.5,9.9,0.1,14.8,0.1c0.7,0,1.5,0,2.4,0
			c-0.9,1.9-2.1,2.7-4.2,2.8c-9,0.2-17.8-0.9-26.5-3c-1.7-0.4-3.4-1.2-5.1-1.8c-0.6-0.2-1.2-0.3-2.2-0.6c0,10.5,0,20.7,0,30.9
			c-0.2,0.1-0.4,0.2-0.7,0.4c-0.4-0.5-1-1-1-1.6c0-4.5,0.1-9,0.2-13.4c0.1-5,0.3-10,0.4-15c0-1.2-0.1-2.5-2-2.6
			c-0.1,0.8-0.3,1.5-0.3,2.3c-0.1,3.6-0.1,7.1-0.2,10.7c0,0.5-0.2,1-0.3,1.5C373.6,463.2,373.5,463.1,373.3,462.9z M226,358.5
			c0.7,3.2,1.2,6.4,2.2,9.5c1.1,3.4,2.5,6.7,3.8,10.1c0.3-0.1,0.6-0.1,0.9-0.2c-0.3-1.8-0.2-3.9-0.9-5.5c-3-6.1-3.8-12.5-3.4-19.2
			c0.2-2.9-0.1-3.2-3.3-2.2c0,0.7-0.1,1.6,0,2.3C225.5,355,225.8,356.8,226,358.5c-0.4-0.3-1-0.6-1-1c-0.4-1.9-0.5-3.8-0.9-5.6
			c-0.1-0.5-0.8-1-1.2-1.4c-0.3,0.5-0.8,1.1-0.8,1.6c0,0.8,0.4,1.7,0.7,2.5c2.3,6.1,2.8,12.4,2.9,18.9c0,0.6,0.1,1.5,0.5,1.9
			c2,2,4.1,4,6.1,5.9c-0.9-2.9-2.3-5.6-3.2-8.4c-1.4-4.3-2.5-8.6-3.7-13C225.3,359.5,225.8,359,226,358.5z M207.1,376.9
			c-0.4-0.1-0.9-0.1-1-0.4c-1.8-2.5-4-4.8-5.1-7.6c-1.5-4-2.2-8.3-3.1-12.5c-0.3-1.4-0.2-2.8-0.6-4.2c-0.2-0.6-1-1-1.6-1.4
			c-0.4,0.5-1.1,1-1.1,1.5c-0.2,5.7,1.4,11,4.2,15.9c2,3.5,4.5,6.8,6.7,10.2c-1.3-1-2.6-2-3.8-3c-0.6-0.5-1.2-1.2-1.8-1.8
			c-0.2,0.1-0.5,0.2-0.7,0.3c0,2.2-0.1,4.5,0.1,6.7c0,0.7,0.8,1.8,1.2,1.8c3,0.2,6.1,0.1,9.6,0.1c-0.9-0.7-1.5-1.1-2-1.6
			c-0.9-0.8-1.7-1.7-2.5-2.6c0.4,0.2,0.9,0.3,1.3,0.6c3,1.8,5.8,3.9,9.6,3.9c3.8,0.1,5.7-0.9,6.9-4.6c1.1-3.5,0.8-6.9,0.6-10.5
			c-0.3-5.4-2.3-10.4-3.7-15.5c-0.3-1.1-0.9-2-2.1-1.4c-0.3,0.1-0.1,1.5,0.1,2.2c0.9,3.4,1.9,6.7,2.8,10.1c-0.2,0.2-0.3,0.4-0.5,0.5
			c-0.1-0.4-0.3-0.7-0.4-1.1c-1-3.2-2-6.4-3.2-9.5c-0.4-1-1.5-2.4-2.3-2.4c-3.5-0.2-7,0-10.4,0.2c-0.7,0-1.8,0.8-1.9,1.4
			c-1,6.2-0.1,12,3.5,17.3c1.2,1.8,2.4,3.5,3.6,5.3C208.6,375.5,207.9,376.2,207.1,376.9z M250.2,340.5c0.2-0.2,0.3-0.5,0.5-0.5
			c1.5-0.1,3-0.2,4.5-0.2c4.1-0.2,8.3-0.4,12.4-0.7c3.1-0.3,6.2-0.7,9.3-1.2c0.4-0.1,0.7-0.6,1-0.9c-0.4-0.3-0.8-0.6-1.2-0.7
			c-0.4-0.1-0.9,0-1.4,0c-4.1,0.4-8.3,1-12.4,1.1c-6,0.2-12,0.2-18,0.2c-9.3-0.1-18.6-0.6-27.7-2.5c-4.3-0.9-8.7-1.4-13-2.2
			c-3.9-0.7-7.8-1.8-11.7-2.5c-5.4-1-10.8-1.8-16.2-2.8c-8.8-1.5-17.6-3.3-26.5-4.6c-6.5-1-13.2-1.4-19.8-1.9c-2.5-0.2-5,0-7.4,0
			c0,0.2-0.1,0.4-0.1,0.6c1,0.3,2.1,0.7,3.1,0.8c3.3,0.3,6.7,0.3,10,0.7c6.2,0.6,12.4,1.2,18.5,2.1c5.7,0.9,11.3,2.2,16.9,3.4
			c7.4,1.6,14.7,3.4,22.1,4.8c7.1,1.4,14.3,2.6,21.5,3.6c6.5,0.9,13,1.4,19.5,2.1c3.2,0.3,6.4,0.8,9.7,1.2c-0.5,0.5-0.9,0.9-1.4,1.4
			c-1.9,0.1-3.8,0.4-5.7,0.2c-7.9-0.9-15.8-2-23.6-3.1c-5-0.7-10-1.6-15-2.4c-1.2-0.2-2.4-0.3-3.9-0.4c0.2,0.6,0.3,1,0.5,1.2
			c1.8,3.6,1.5,4.1-2.5,5c-2,0.5-4,0.8-6.1,1.2c0.3,1,0.6,1.6,0.7,2.4c0.2,1.1-0.1,2.8,0.5,3.1c0.9,0.5,2.3,0,3.5,0
			c7.9,0,15.9-0.1,23.8,0c13.4,0.1,26.9,0.2,40.3,0.3c7.5,0.1,15,0,22.5,0c8.8,0,17.7,0,26.5,0.1c5.4,0,10.7,0.2,16.1,0.3
			c0.6,0,1.1-0.1,1.9-0.3c-0.4-0.9-0.6-1.6-0.9-2.3c-1.3,0.6-2.4,1.1-3.5,1.5c-2.8,1-4.9-0.1-5.7-2.8c-0.4-1.2-0.6-2.4-0.8-3
			c-2.3,0-4.4,0.3-6.4,0c-2.1-0.4-3-2.1-3-4.2c0-0.5-1-1.3-1.4-1.3c-3.5,0.4-7,0.9-10.5,1.4c-5,0.7-10,1.5-15.1,2.1
			c-4.4,0.5-8.8,1-13.2,1.2c-3.4,0.2-6.9-0.1-10.3-0.1C250.8,341.2,250.5,340.9,250.2,340.5z M331.2,391.8c-0.2-1.6-0.3-2.7-0.4-3.8
			c-0.1-3.1-0.4-3.5-3.5-3.5c-7.8,0-15.5,0.1-23.3,0.1c-3.3,0-6.5,0-9.8-0.1c-2.7,0-5.4-0.2-8.2-0.2c-3.5,0.1-6.9,0.4-10.4,0.4
			c-6,0-12-0.1-18-0.3c-4.5-0.1-9.1-0.3-13.6-0.4c-14-0.1-28-0.1-41.9-0.2c-10.4-0.1-20.9-0.2-31.3-0.3c-3.9,0-3.7-0.3-3.9,3.2
			c-0.1,0.8-0.2,1.6-0.4,2.4c-0.5,1.5,0,2.1,1.5,2.1c4.4,0.1,8.8,0.3,13.2,0.3c10.6,0.1,21.3,0,31.9,0c12.3,0,24.5,0,36.8,0
			c9,0,18,0,27.1,0c12.7,0,25.5-0.1,38.2-0.1c2.8,0,5.6,0.2,8.4,0.2C326,391.9,328.5,391.8,331.2,391.8z M244.9,350.3
			c0,0.1,0,0.2-0.1,0.3c-1.3,0-2.6-0.1-3.8,0.1c-0.7,0.1-1.6,0.7-1.8,1.2c-1.3,4.9-2.6,9.8-1.4,15c0.3,1.3,1.1,2.5,1.3,3.8
			c0.4,2.6,1.7,4.5,3.8,5.8c2.4,1.6,4.4,1.2,6.7-0.6c1.8-1.4,2.4-3.4,3.4-5.3c3-5.7,3-11.8,2-17.9c-0.4-2.1-1.2-2.4-3.2-1.4
			c-0.3,0.1-0.6,0.3-0.9,0.2C248.9,351.1,246.9,350.7,244.9,350.3z M275.2,373.4c0,1.1-0.1,2.2,0,3.2c0.3,2.5,1.5,3.5,4,3.4
			c3.6,0,5.9-2.1,7.4-5c3.6-6.4,6.3-13.1,6.5-20.5c0.1-2.8-0.3-3.4-3.1-3.5c-0.4,0-0.8-0.1-1.2-0.1c-2,0.1-3.8,0.3-5.4,2
			C278.1,358.7,276.2,365.8,275.2,373.4z M320.5,351.1c-4.5,0.2-4.1-1-5.4,4.6c-1,4.3-2.6,8.4-3.9,12.6c-0.9,2.7-2,5.2-2.6,7.9
			c-0.4,1.8,0.9,3.2,2.7,3.1c1.4-0.1,3-0.5,4.1-1.4c3.3-2.5,5.2-6.2,6.4-10c1.3-4,1.9-8.3,2.5-12.5C325,351,324.8,351,320.5,351.1z
			 M179.8,350.6c-2.5,0-4.6,0-6.7,0c-1.9,0-2.6,1-2.5,2.8c0.1,1.6,0.2,3.2,0.4,4.8c0.8,5.8,2.3,11.4,6.1,16c1.1,1.4,2.6,2.5,4.1,3.4
			c1.4,0.9,2.9,0.5,4-0.7c1-1,1-2.2,0.3-3.5c-0.9-1.7-1.6-3.5-2.2-5.3c-1.6-4.8-3.9-9.4-3.5-14.6
			C179.9,352.7,179.8,351.8,179.8,350.6z M129,323.4c0,0.2,0,0.4,0,0.6c4.6,2.4,9.2,4.9,13.8,7.3c0.3,0.2,0.7,0.4,1,0.7
			c2.7,2.6,5.4,5.2,7.9,8c1.7,1.9,3.9,1.7,5.7,0.9c1.1-0.5,2.2-2.3,2.3-3.6c0.1-2.1-0.5-4.2-1.1-6.2c-0.8-3-3.2-4.3-6.1-4.7
			c-4-0.5-7.9-1.2-11.9-1.7C136.6,324.2,132.8,323.8,129,323.4z M365.8,323.2c-0.1-0.2-0.1-0.4-0.2-0.6c-1,0.2-1.9,0.5-2.9,0.7
			c-6,1.2-11.9,2.3-17.9,3.5c-2,0.4-3.9,0.9-5.8,1.3c-2.8,0.6-5.2,4.3-4.7,7.3c0.5,3,3.1,4.5,6.5,4.2c3.2-0.4,5.2-2.5,7.3-4.5
			c4.5-4.3,9.4-7.9,14.9-10.9C363.9,323.7,364.9,323.5,365.8,323.2z M279.9,335.6c0,0.3-0.1,0.6-0.1,0.9c0.7,0.2,1.4,0.6,2.1,0.6
			c2.4-0.2,4.8-0.5,7.2-0.8c4-0.5,8.1-0.8,12.1-1.5c4-0.7,7.9-1.8,11.9-2.7c2.9-0.7,5.8-1.5,8.7-2.1c2.8-0.6,5.6-0.8,8.3-1.5
			c4.4-1.2,9-1.9,13.5-2.8c5.2-1,10.4-2.1,15.6-2.9c3-0.5,6-0.4,8.9-0.9c1.8-0.3,3.6-1.1,5.3-1.6c-0.4-0.6-0.7-0.8-1-0.7
			c-4.5,0.5-9.1,0.8-13.6,1.5c-5.6,0.9-11.2,2.1-16.7,3.1c-5.5,1.1-11,2.1-16.5,3.2c-4.7,1-9.3,2.3-14,3.2
			c-6.3,1.2-12.6,2.2-18.9,3.4c-0.9,0.2-1.7,0.6-2.6,0.7C286.7,334.9,283.3,335.2,279.9,335.6z M331.7,351.3
			c-3.1-0.4-3.3-0.2-3.6,2.3c-0.3,2.1-0.4,4.3-0.8,6.4c-1.1,5.6-2.4,11-5.8,15.8c-2.1,3-4.9,4.3-8,4.4c-4.3,0.2-7.4-1.1-5.6-6.6
			c0.8-2.3,2-4.5,2.7-6.9c1.3-4.5,2.4-9.1,3.5-13.7c0.1-0.5-0.5-1.7-1-1.9c-1.3-0.4-1.5,0.8-1.6,1.7c-0.3,2.1-0.2,4.2-0.6,6.2
			c-0.9,5-2.3,9.9-4.5,14.5c-0.5,1-0.7,2.1-1.3,3.1c-0.8,1.3-0.5,3.5,0.9,4.2c6.8,3.3,14.3,0.9,18.4-5.3c3.8-5.9,5.7-12.5,7.1-19.2
			C331.8,354.6,331.6,352.9,331.7,351.3z M233.7,350.8c-2.6-0.7-3.6-0.1-3.5,2.9c0.1,3.7-0.1,7.3,0.6,11c1.2,5.6,3.3,10.5,7.4,14.4
			c4.1,3.9,8.3,4.8,13.4,1.4c2.7-1.8,4.7-4,6.4-6.8c3.8-6.1,5.8-12.6,6-19.8c0-0.8-0.1-1.8-0.5-2.5c-0.2-0.4-1.1-0.7-1.6-0.7
			c-0.3,0-1,0.6-1,0.9c0.3,2.8-0.9,5.8,0.8,8c-0.5,1-1.1,1.7-1.3,2.6c-1.4,5-2.9,10-6.2,14.2c-3.6,4.5-7.8,5.9-12.6,3.2
			c-2.9-1.6-4.8-4.6-6-7.7C232.9,365.1,232.2,358,233.7,350.8z M158.2,327.6c0.7,1,1.3,1.5,1.4,2.1c0.4,2.1,1.8,2.7,3.6,2.8
			c7.7,0.8,14.8,3.7,21.7,7.2c2.3,1.2,5.4,0.7,8.2,0.8c0.5,0,1.5-1.1,1.4-1.3c-0.8-1.5-1.6-3.6-2.8-4c-4.5-1.5-9.1-2.5-13.7-3.5
			c-4.2-1-8.4-1.8-12.7-2.7C163,328.5,160.8,328.1,158.2,327.6z M311.7,340.7c0.1,0.2,0.2,0.5,0.3,0.7c0.1,0.6,0,1.3,0.3,1.9
			c0.5,1.2,0.9,2.7,1.8,3.3c1.8,1,5.7-0.3,7.1-2.1c2.8-3.6,6.2-6.7,10.2-8.9c1.5-0.9,1.9-2.1,1.7-4c-1.8,0.3-3.6,0.2-5.1,0.9
			C322.5,335.1,317.1,338,311.7,340.7z M181.9,350.4c-0.2,0-0.5,0-0.7-0.1c-0.2,0.6-0.6,1.3-0.5,1.9c0.5,3.2,0.8,6.5,1.7,9.6
			c1.2,4.2,3.1,8.2,4.4,12.5c1.1,3.6-0.7,5.9-4.4,6.2c-3.1,0.3-5.7-1-7.6-3.3c-4-4.7-6.2-10.3-7-16.4c-0.4-3.3-0.5-6.7-0.7-10.2
			c-1.4-0.4-2.2,0.3-2.1,1.7c0.1,2.3,0.2,4.6,0.7,6.8c1.6,6.8,3.5,13.4,8.2,18.9c3.1,3.6,6.6,5.2,11.3,4.5c2.6-0.4,4.1-1.9,4-4.6
			c-0.1-1.6-0.4-3.3-0.9-4.9c-0.5-1.6-1.5-3-2-4.6c-1.9-5.4-3.6-10.9-3.8-16.7C182.4,351.3,182.1,350.8,181.9,350.4z M164,333.8
			c0,0.1-0.1,0.2-0.1,0.3c-0.3,0-0.6-0.1-0.8,0c-0.5,0.2-1.1,0.5-1.6,0.7c0.4,0.5,0.7,1,1.2,1.4c0.3,0.2,0.8,0.2,1.1,0.4
			c3.8,1.4,7.2,3.3,10.3,6c2.9,2.5,5.3,5.9,10.1,5.5c1.5-0.1,1.8-0.4,1.7-1.5c-0.3-2.1-1.3-3.8-3-5.2c-2.8-2.5-6.6-2.7-9.7-4.9
			C170.8,334.8,167.1,334.7,164,333.8z M296.5,380.7c5.7-2.8,11.2-22.9,9.5-29.6c-1.9-0.6-2.7,0.1-2.8,2.1c-0.2,5-1.3,9.8-3.9,14.2
			c-2.1,3.5-3.6,7-2.8,11.2C296.6,379.3,296.5,379.9,296.5,380.7z M197.7,380.3c0.3-3.2,0.6-5.8,0.8-8.3c0-0.6-0.3-1.2-0.5-1.7
			c-2.6-5.9-5.4-11.8-4.9-18.6c0-0.4-0.7-1.1-1.2-1.1c-1-0.1-2.1,0.1-3.2,0.2C188.8,361.4,192.9,370.6,197.7,380.3z M234,356.3
			c0.2,5.9,0.6,11.3,2.8,16.4c1.8,4.2,6,7.2,10.4,7c3.2-0.1,4.9-2.7,6.6-4.7c4.9-6.1,5.7-13.5,6-21c0-0.7-0.1-1.6-0.5-2.1
			c-0.4-0.5-1.3-0.7-1.9-1c-0.2,0.5-0.7,1.1-0.6,1.6c0.1,1.4,0.4,2.8,0.5,4.2c0.4,7.3-0.7,14.2-6,19.5c-3.3,3.2-7.1,4.3-10.2,0.3
			c-1.7-2.1-3.1-4.6-4-7.1c-1.8-5.5-1.2-11.2,0-16.8c0.1-0.6-0.2-1.6-0.6-1.8c-1.1-0.5-1.8,0.2-2,1.3
			C234.3,353.6,234.2,355.2,234,356.3z M282,382c-1.1-0.1-2.2-0.2-3.3-0.3c-2.8-0.4-5.6-1.2-6.3-4.3c-0.5-2.2-0.8-4.7-0.3-6.9
			c1.4-6.8,3.7-13.2,7.5-19.1c0.1-0.1,0-0.2,0-0.4c-1.9-0.6-3.1,0.2-3.7,2c-0.6,1.5-1.2,3-1.8,4.5c-2.3,6.5-4.3,13.1-3.7,20.1
			c0,0.4-0.2,0.7-0.3,1c-0.5-0.2-1.2-0.6-1.4-0.5c-1.7,1.4-3.4,2.9-5.5,4.8c3.3,0,5.9,0,8.6,0c-0.7-1.2-1.2-2.2-1.7-3.2
			c0.1-0.1,0.2-0.2,0.4-0.3C273.3,384,277.6,383.3,282,382z M334.6,330c0-0.2-0.1-0.5-0.1-0.7c-1.1,0.1-2.2,0.1-3.3,0.3
			c-3.7,0.8-7.3,1.7-11,2.5c-0.6,0.1-1.3,0.2-2,0.3c-2.4,0.7-4.8,1.4-7.2,2.1c-2.2,0.6-4.4,1-6.5,1.8c-0.7,0.3-1.5,1.6-1.5,2.4
			c0,0.6,1.2,1.7,1.9,1.8c2.8,0.4,5.6,0,8.1-1.6c5.8-3.9,12-6.8,19-8C332.8,330.7,333.7,330.3,334.6,330z M187.5,350.3
			c-1.1,0.4-2.9,0.7-3,1.2c-0.3,1.9-0.5,4,0.1,5.7c2,5.9,4,11.7,6.6,17.4c1,2.2,3.2,3.8,4.9,5.7c0.3-0.2,0.5-0.3,0.8-0.5
			C190.8,371,188.8,361.1,187.5,350.3z M263,380.6c3.3-1.9,5.6-4.3,6.1-8.1c0.3-2.4,0.6-4.9,1.2-7.3c1.3-4.7,2.8-9.4,4.3-14.2
			c-0.4,0-1,0-1.6,0c-2.6-0.1-2.9,0.2-3.2,2.8c-0.3,2-0.5,4-0.9,5.9c-1.1,4.9-2.3,9.7-3.6,14.5C264.6,376.4,263.7,378.4,263,380.6z
			 M261.5,380.7c0.3-0.4,0.6-0.9,0.8-1.4c1.5-4.8,3.3-9.5,4.4-14.4c1-4.1,1.4-8.4,1.9-12.6c0-0.4-0.4-1-0.7-1.2
			c-1.7-0.9-2.5-0.3-2.4,1.9c0.3,7.4-1.7,14.2-5.4,20.6c-0.2,0.4-0.4,1-0.3,1.4C260.4,376.8,260.9,378.6,261.5,380.7z M298.5,351.1
			c-0.7,4-0.9,7.8-2,11.4c-1.1,3.6-2.7,7.2-4.7,10.5c-1.8,2.9-4.4,5.4-6.7,8.2c6.2-2.9,9.2-8.4,12.3-13.6c2.5-4.1,3.3-9,4.1-13.7
			c0.5-2.7,0.3-3.1-2.5-2.9C298.7,351.1,298.4,351.1,298.5,351.1z M170.9,348.7c3.3,0.2,4.1-0.8,2.8-3.4c-2.1-4.2-5.9-6.4-10.3-7.5
			c-0.4-0.1-1.2,0.3-1.3,0.6c-0.1,0.6-0.1,1.3,0.2,1.8c1.2,1.9,2.6,3.7,3.8,5.6C167.3,347.7,168.7,349,170.9,348.7z M149.7,447.8
			c3-1.3,3.5-3.3,3.4-5.7c-0.1-4.3,0.1-8.7,0-13c0-1.6-0.2-3.2-0.3-4.8c-0.2,0-0.4,0-0.6-0.1c-1.4,1.6-2.6,3.2-2.6,5.5
			c-0.1,4.7-0.1,9.4-0.2,14C149.4,445,149.6,446.3,149.7,447.8z M325.4,349.9c0.9-0.6,2-1.1,2.7-2c2-2.8,3.9-5.7,5.7-8.6
			c0.3-0.5,0-1.6-0.4-2.2c-0.2-0.4-1.4-0.5-1.8-0.2c-1.6,1.1-3.2,2.4-4.7,3.7c-2,1.7-3.3,3.8-3.9,6.4
			C322.6,348.8,323.1,349.5,325.4,349.9z M298.3,380.9c0.2,0.2,0.5,0.3,0.7,0.5c0.4-0.3,0.8-0.7,1.2-1c3.4-3.2,4.8-7.4,6.3-11.6
			c0.9-2.5,1.6-5.2,2.1-7.9c0.5-2.7,0.8-5.4,1-8.1c0.1-1.7-0.7-2.1-2.3-1.5C306.8,361.9,305.5,372.3,298.3,380.9z M289.9,393.3
			c0,0.3,0,0.6,0,0.9c13.8,0,27.6,0,41.4,0c0-0.2,0-0.5,0-0.7C317.4,392.6,303.6,393.6,289.9,393.3z M338.4,341.6
			c-0.7-0.4-1.4-1.1-2.3-1.3c-0.6-0.2-1.7,0.1-2,0.6c-1,1.7-1.8,3.5-2.7,5.3c-0.6,1.2-0.1,2.2,1,2.6c0.9,0.3,2.5,0.2,2.8-0.3
			C336.4,346.4,337.2,344.2,338.4,341.6z M289.2,374.2c3.1-2.7,4.7-6.2,5.7-9.8c1.1-4,1.3-8.1,1.8-12.2c0-0.3-0.6-0.8-0.9-1.2
			c-0.3,0.4-0.7,0.7-0.9,1.1c-0.2,0.4,0,0.9,0,1.4c0.2,5.4-1,10.5-3.4,15.3C290.7,370.5,290,372.4,289.2,374.2z M157.3,343.1
			c0.3,3.1,3.3,5.8,6.3,5.5c0.5,0,1.4-1.1,1.3-1.4c-1-2.3-1.7-4.9-4.2-6.1C159.4,341.8,158.4,342.4,157.3,343.1z M286.6,382.9
			c0.3,0,0.6,0.1,1,0.1c0.5,0,0.9-0.1,1.4-0.1c6.2,0.2,6.3,0.5,6.4-6.1c0-0.5-0.1-1-0.2-2C292.2,377.7,289.4,380.3,286.6,382.9z
			 M325.6,376.3c-2.6,2.3-5,4.5-7.6,6.7c0.6,0.1,0.9,0.2,1.2,0.2c1.3,0,2.7-0.1,4-0.2c3.1-0.3,3.6-0.7,3.6-3.8
			C326.7,378.3,326,377.4,325.6,376.3z M222.6,382.7c3.2,0,6.1,0,9,0c0.1-0.2,0.2-0.3,0.2-0.5c-1.9-1.7-3.9-3.5-6-5.4
			C224.7,378.7,223.7,380.5,222.6,382.7z M251.7,382.9c1.8,0,3.3,0,4.8,0c3.2-0.1,3.7-0.6,3.4-3.9c-0.1-1-0.3-1.9-0.5-3.2
			C256.7,378.2,254.3,380.4,251.7,382.9z M330.8,371.5C330.8,371.5,330.8,371.5,330.8,371.5c0-0.7,0.1-1.5,0.1-2.2
			c0-0.3-0.4-0.9-0.6-0.9c-0.4,0-0.9,0.2-1.1,0.6c-0.8,1.7-1.7,3.3-2.2,5.1c-0.3,0.9,0,2.1,0.4,3c0.2,0.4,1.3,0.7,2,0.6
			c0.4,0,0.9-0.9,0.9-1.4C330.6,374.7,330.7,373.1,330.8,371.5z M330,367.1c0.2,0.1,0.4,0.3,0.6,0.4c0.4-0.5,0.9-1,1.1-1.6
			c0.9-2.8,1.7-5.7,2.6-8.6c0.5-1.5,1.2-3,1.6-4.5c0.4-1.5-0.5-1.9-1.6-1.4c-0.5,0.2-1,1.1-1.1,1.8c-0.6,3.1-1.1,6.1-1.8,9.2
			C331.1,364,330.5,365.5,330,367.1z M170.4,375.6c-0.2,0-0.4,0-0.6,0c0,1.9,0,3.8,0,5.8c0,0.3,0.6,0.9,0.9,0.9c1.8,0.1,3.6,0,5.7,0
			C174.2,379.9,172.3,377.8,170.4,375.6z M166.2,365.5c-0.2,0.1-0.3,0.1-0.5,0.2c0.3,1.8,0.7,3.7,0.9,5.5c0.3,1.9,0.5,3.8,0.7,5.7
			c0.2,1.7-0.6,3.6,0.7,5.2c0.5-2.9,0.9-5.6,1.4-8.3c0-0.2,0-0.4-0.1-0.6C168.4,370.6,167.3,368.1,166.2,365.5z M191.6,376.4
			c-0.8,2.5-1.4,4.3-2,6.1c2.4,0,4.8,0,7.2,0c0.1-0.2,0.1-0.3,0.2-0.5C195.3,380.2,193.6,378.4,191.6,376.4z M326.6,351.4
			c-0.9,7.5-2.1,14.8-5.1,21.7C324.4,370.3,327.6,358,326.6,351.4z M260.3,393.6c-9.3,0-18.6,0-27.9,0c0,0.2,0,0.3,0,0.5
			C241.7,393.8,251,394.6,260.3,393.6z M280.6,353.3c-3.6,2.1-8.9,18.6-7,22.1C274.3,367.3,276.6,360.3,280.6,353.3z M287.5,393.9
			c0-0.1,0-0.2,0-0.4c-8.6,0-17.2,0-25.7,0c0,0.1,0,0.2,0,0.4C270.4,393.9,278.9,393.9,287.5,393.9z M164.7,360.5
			c0.1,0,0.2,0,0.2-0.1c0-0.4-0.1-0.7-0.1-1.1c-0.3-2.1-0.6-4.2-0.9-6.3c-0.1-0.9,0-2.2-0.5-2.5c-0.6-0.4-1.8-0.1-3.2-0.1
			C161.9,354.2,163.3,357.4,164.7,360.5z M169,351.4c-2.1,4.2,1.1,19.3,5,21.6C170.2,365.9,168.4,358.9,169,351.4z M201.4,366.6
			c-0.6-5.1-1.3-10.3-1.9-15.4c-0.2,0-0.5,0.1-0.7,0.1C198.7,356.6,198.8,361.9,201.4,366.6z M234,376.9c0.4,2.1,0.2,4.3,1.2,5.3
			c0.9,0.9,3.1,0.6,4.7,0.8c0-0.2,0.1-0.4,0.1-0.6C238.3,380.8,236.4,379.1,234,376.9z M342.3,341.6c-0.1-0.1-0.2-0.3-0.2-0.4
			c-1,0.6-2.3,1-2.8,1.9c-1.1,1.6-1.7,3.4-2.5,5.2c-0.1,0.3,0,0.8,0.1,1.2c0.4-0.2,0.9-0.3,1.1-0.6
			C339.4,346.4,340.9,344,342.3,341.6z M306.4,383.3c0-0.2,0.1-0.3,0.1-0.5c-0.7-0.6-1.6-1.2-2.1-1.9c-0.8-1.1-1.5-1.2-2.4-0.3
			c-0.7,0.6-1.3,1.2-2,1.9c0,0.2,0.1,0.4,0.1,0.6C302.3,383.1,304.4,383.2,306.4,383.3z M331.1,381.2c-1-1-1.6-2.1-2.2-2.2
			c-1.6-0.1-1.5,1.4-1.5,2.5c0,1.1,0.2,2,1.5,1.7C329.6,383,330.1,382.2,331.1,381.2z M192.4,393.9c0-0.2,0-0.3,0-0.5
			c-3.2,0-6.5,0-9.7,0c0,0.2,0,0.3,0,0.5C185.8,393.9,189.1,393.9,192.4,393.9z M126.8,318.3c0,0.3,0,0.5-0.1,0.8c1.7,0,3.4,0,5.2,0
			c0-0.2,0-0.4,0-0.5C130.2,318.5,128.5,318.4,126.8,318.3z M121,319c0-0.3,0-0.6-0.1-0.9c-2,0.3-4,0.6-6.1,0.9
			C117,319,119,319,121,319z"/>
		<path d="M439.2,398.1c2.9-2.3,4.4-5.7,5.5-9c2.1-5.8,3.3-11.8,3.3-18c0-1-0.2-2-0.5-2.9c-0.7,4.5-0.1,9.2-2.1,13.6
			c0.2-2.2,0.3-4.4,0.5-6.6c0.8-10.8-2.4-20.6-8.2-29.6c-3.4-5.3-8-9.6-12.9-13.3c-4.6-3.5-9.8-6.3-15.5-7.7c-1-0.3-1.9-1.1-2.9-1.7
			c0,0,0,0,0,0c3,0.9,6.1,1.8,9.1,2.8c4.6,1.6,8.6,4.5,12.3,7.5c2.4,1.9,4.5,4.1,6.4,6.5c2.2,2.7,4,5.8,6.1,8.6
			c2.6,3.6,3.8,7.7,5,11.9c0.6,2.1,1.1,4.3,1.7,6.5c0.2,0,0.5-0.1,0.7-0.1c-0.4-2.4-0.7-4.9-1.3-7.3c-2.8-11.2-9.6-19.8-18.4-26.9
			c-2.7-2.2-5.5-4.4-8.5-6c-3.5-1.9-7.3-3.1-11-4.6c-0.2-0.1-0.3-0.2-0.4-0.4c0.4-0.4,0.8-0.8,1.1-1.1c0.4,0.1,0.8,0.1,1.2,0.2
			c5.3,1.6,10,4.4,14.7,7.3c5.7,3.5,9.8,8.6,14.2,13.4c0.7,0.7,1.5,1.4,1.9,2.2c1.6,3.3,3.1,6.6,4.5,10c2.8,6.7,4.1,13.6,3.8,20.9
			c-0.5,10.8-3.8,20.4-10.7,28.7c-0.8,1-1.4,2.2-2.2,3.4c-0.6,0.3-1.5,0.6-2.2,1.1c-3.4,2.4-6.6,5-10.1,7.1
			c-2.8,1.7-5.8,3.1-8.9,3.9c-4.4,1.2-9,1.7-13.7,1.7c-5.5,0-10.6-1.6-15.5-3.6c-3.3-1.3-6.1-3.7-9.1-5.8c-4.3-3-7.1-7.3-9.9-11.7
			c-2-3.2-2.6-6.8-3.7-10.3c-1.9-5.9-1.2-11.8-0.6-17.7c0.4-3.9,2.2-7.7,5.4-10.4c0.4-0.3,0.8-0.6,1.3-0.9c-0.1,0.4-0.3,0.7-0.4,1.1
			c-1.4,2.9-3.2,5.7-4.1,8.7c-1.8,6.3-1.6,12.7-0.1,19c1.9,8.1,6,15,12.5,20.3c1,0.8,2.2,1.4,3.3,2.1c0.1-0.6-0.1-0.8-0.3-1.1
			c-2.8-2.9-6.1-5.5-8.4-8.8c-2.2-3.2-3.6-7.1-5.1-10.8c-2.1-5.2-1.9-10.7-1.3-16.2c0.5-4.8,1.8-9.3,5-13.1c2-2.4,4.5-4.5,6.8-6.7
			c0.8-0.8,1.6-1.5,2.4-2.2c-0.1-0.2-0.2-0.3-0.4-0.5c-0.9,0.6-1.9,1.1-2.7,1.7c-0.9,0.6-1.7,1.3-2.6,2c1.2-1.4,2.4-2.9,3.6-4.3
			c1.7-1.2,3.2-2.6,5.1-3.6c10.3-5.1,20.7-4.7,30.7,0.8c7.6,4.2,12.2,10.8,13.5,19.6c0.1,0.4,0.1,0.8,0.2,1.2
			c0.9,4.8,0.5,9.6-1.4,14c-2.9,6.3-7.8,11.2-13.8,14.6c-4.9,2.7-10.4,3.1-16,2.1c-1.2-0.2-2.5,0-3.8,0c-0.4-0.5-1-1.4-1.8-1.9
			c-2.2-1.4-4.6-2.5-6.7-3.9c-3.3-2.3-6-5.4-7.1-9.2c-2.4-8.2-2-16.1,3.1-23.4c0.6-0.8,0.9-1.9,1.4-2.9c15.4-11.1,29.1-10,40.7,6.2
			c0-0.5,0-1,0-1.5c0.2,0,0.3-0.1,0.5-0.1c0.8,2.6,1.6,5.2,2.5,7.8c0.1-12.9-11.1-22.4-22.7-22.5c3.4,1.3,7.4,2.5,11,4.3
			c3.8,1.9,6.6,5,8,9.1c-0.6-0.2-1-0.6-1.3-1.1c-2.4-3.9-5.7-6.8-9.9-8.6c-4.9-2.1-10-2.7-15.1-2.4c-4.8,0.3-9.4,2.2-13.1,5.5
			c-2.2,2-4.4,4-6.5,6.2c-1.4,1.5-3.1,3.1-3.8,4.9c-1.4,3.5-2.4,7.2-2.5,11.1c-0.1,9,1.8,17.1,8.1,24c3.5,3.9,7.6,6.9,12.2,9
			c3.4,1.6,7.2,2.3,10.9,2.8c5.7,0.7,11.5,0.5,16.8-2.2c2.4-1.2,4.8-2.5,6.8-4.1c3.8-2.9,7.8-5.7,10.9-9.3
			c5.1-6.1,7.9-13.5,8.9-21.4c0.3-2.1,1.2-4.6-0.3-6.1c0.1-1.5,0.4-2.7,0.2-3.7c-1.1-5.5-2.5-10.9-5.4-15.6
			c-3.9-6.5-8.8-12.2-15.1-16.6c-5.8-4.1-12.2-6.6-18.9-8.5c-7.5-2.1-15.1-1.7-22.6,0c-7.7,1.8-15,5-21.2,9.9
			c-3.5,2.7-6.9,5.8-9.7,9.2c-5.6,6.6-9,14.3-10.2,22.9c-0.3,2.2-0.4,3.2,2,3c0.1,0,0.3,0.3,0.7,0.7c-1.2,0.5-2.2,0.9-3.3,1.4
			c-0.6,4.1-0.1,13.9,1.2,18.3c0.5,1.5,1.3,3,1.4,4.6c0.3,5.7,3.2,10.5,5.9,15.2c2.4,4.3,5.7,8.2,8.5,12.3c0.3,0.5,0.4,1.2,0.5,1.8
			c-0.3,0.1-0.7,0.3-1,0.4c-6-6.9-10.7-14.6-14-23.2c-3.3-8.6-4.3-17.7-5.1-26.9c-0.5,0.7-0.7,1.3-0.7,2c0.3,7.6,0.9,15.3,3,22.6
			c1.3,4.5,3,8.9,5.2,13c3.6,6.8,8.5,12.9,14.2,18.1c4.1,3.7,7.9,8.5,14.2,8.8c0.2,0,0.4,0.2,0.5,0.3c0.1,0.1,0.1,0.3,0.2,0.6
			c-0.5,0-1,0-1.6,0c0.2,0.3,0.2,0.6,0.4,0.7c1,0.5,2.1,0.9,3.1,1.4c6.6,3.3,13.7,4.8,21,5.8c6.1,0.8,12.1,0.4,18.2-0.2
			c6.5-0.6,12.6-2.8,18.4-5.3c11.1-4.6,20.5-11.8,28-21.2c3.9-5,7.6-10.4,10.6-16c2.8-5.3,4.9-11,6.6-16.7c1.5-5,2-10.2,2.9-15.3
			c0.1-0.7-0.3-1.9-0.7-2c-1.1-0.3-2.3-0.2-2.5,1.5c-0.4,2.8-0.8,5.7-1.3,8.5c-0.2,1-0.5,1.9-0.7,2.9c-0.3,0-0.5,0-0.8-0.1
			c-0.1-0.8-0.4-1.6-0.3-2.3c0.8-6.5,2.4-13,1.5-19.7c-0.5-3.6-0.3-7.3-0.8-10.9c-1.2-8.2-3.6-16-7.3-23.4
			c-1.9-3.8-4.3-7.4-6.3-11.1c-3.8-6.8-9.2-12.3-14.9-17.4c-3.1-2.7-6.6-4.9-10-7.4c0.2-0.2,0.3-0.4,0.5-0.5c0.4,0.1,0.8,0,1.1,0.2
			c4.4,3.1,8.8,6.3,13.2,9.4c0.8,0.6,1.9,0.9,3.1,1.4c-1.3,2,1.3,2.7,2.3,4.2c2.9,4.3,6,8.4,8.7,12.7c4.1,6.5,7.3,13.5,9.1,20.9
			c0.9,3.7,1.6,7.5,2.4,11.2c0.3,1.3,0.6,2.5,2.3,2.6c0.2,0,0.4,0.4,0.9,1c-2.8,0.3-2.3,2.2-2.3,3.9c0,3.5,0,7,0,10.4
			c3.1,0.9,2.9,0.9,3.2-1.9c1.1-10-1.3-19.6-3.9-29.2c-1.4-5.4-3.5-10.6-5.6-15.8c-1.1-2.8-2.7-5.4-4.4-7.8
			c-3.6-4.8-7.1-9.7-11.3-14c-3.8-3.9-8.2-7.3-12.7-10.4c-3.9-2.6-8.3-4.5-12.5-6.6c-6.2-3.2-12.7-4.9-19.7-5
			c-8.2-0.1-16.4-0.1-24.6-0.1c-6.6-0.1-13.3-0.2-19.9-0.3c-4.1,0-8.2,0.2-12.3,0.2c-9.1-0.1-18.2-0.4-27.2-0.5
			c-6.8-0.1-13.6-0.2-20.4-0.2c-7.3,0-14.6,0-21.9,0c-10.3,0.1-20.6,0.2-30.9,0.2c-9.4,0-18.7-0.2-28.1-0.2c-6,0-11.9,0.2-17.9,0.1
			c-7.2-0.1-14.4-0.4-21.6-0.4c-10.2-0.1-20.3-0.1-30.5,0c-10.3,0.1-20.6,0.3-30.9,0.3c-6.8,0-13.5-0.1-20.3,0
			c-6.9,0.1-13.8-0.3-20.6,0.6c-6,0.8-11.9,3-17.8,4.5c-0.3,0.1-0.6,0.1-0.9,0.1c-0.1-0.2-0.1-0.3-0.2-0.5c2.1-0.9,4.1-1.8,6.2-2.6
			c9-3.6,18.5-3.6,28.1-3.6c8.1,0,16.2,0,24.3,0c10.6,0,21.3,0,31.9,0c4.2,0,8.4,0,12.6,0c0.6,0,1.2-0.4,1.8-0.6
			c0.4-0.1,0.7-0.2,1.1-0.2c2,0.2,4,0.8,6,0.8c10,0.1,20.1,0.2,30.2,0.2c8.7,0,17.4,0.1,26.1,0.1c12.2,0,24.4,0.1,36.6,0.1
			c0.7,0,1.3-0.4,1.9-0.7c0.8,0.2,1.7,0.7,2.5,0.7c9.3,0.1,18.6,0.1,27.9,0.1c6.4,0,12.8-0.1,19.1,0c7.6,0.1,15.1,0.3,22.7,0.3
			c9,0.1,18.1,0.1,27.1,0c13.7,0,27.5-0.2,41.2-0.1c5.1,0,10.1,1.4,14.7,3.6c7.3,3.5,14.5,7.2,21.2,11.5c5.9,3.8,11,8.7,15.2,14.4
			c5.9,7.9,10.4,16.5,13.5,25.8c0.3,0.9,1,1.6,1.3,2.1c0,1.1-0.2,2,0,2.9c1.3,6,3.1,11.9,3.8,18c0.6,5.2,0.3,10.5,0,15.8
			c-0.3,4.4-0.8,8.8-1.7,13.1c-0.6,3.4-1.6,6.7-2.9,9.9c-1.9,4.8-4,9.4-6.3,14c-3.7,7.3-8.6,13.9-14.6,19.5c-4,3.7-8,7.6-12.6,10.4
			c-8.9,5.5-18.5,9.5-28.9,10.8c-6.1,0.7-12.4,0.4-18.6,0c-4.2-0.3-8.4-1.3-12.5-2.4c-7.2-2-14-4.9-19.8-9.7
			c-3.7-3-7.3-6.2-10.7-9.6c-5.7-5.7-9.9-12.5-12.8-20c-4.8-11.9-6.4-24.4-5.3-37.1c0.2-2.5,0.1-5.1,0.6-7.6c0.4-2.1,1.7-4,2.4-6
			c2.8-9.3,8.9-16.3,16-22.7c4.6-4.2,9.7-7.6,15.4-9.9c3.7-1.5,7.8-1.9,11.7-2.9c0.1,0.2,0.2,0.4,0.2,0.6c-0.4,0.3-0.8,0.7-1.3,1.1
			c0.2,0.1,0.4,0.2,0.5,0.2c3-0.3,6.1-1,9.1-0.8c5.6,0.4,11.4,0.7,16.8,2.2c9.4,2.6,17.7,7.5,24.3,14.9c4.7,5.2,8.7,10.8,10.8,17.6
			c0.9,3,2,6.1,2.5,9.2c0.9,5.3,0.7,10.6-0.8,15.8c-1.9,6.5-4.9,12.4-9.4,17.3c-3,3.3-6.6,6.1-10.3,8.6c-3.4,2.3-7.2,4-10.9,5.8
			c-1.3,0.6-2.8,1-4.2,1.1c-5.4,0.2-10.8-0.2-16.1-1.5c-7.2-1.8-12.4-6.5-18-11c0.5,0.7,1.1,1.3,1.6,2c3.5,4.3,7.8,7.4,13,9.1
			c4.1,1.3,8.3,2.4,12.8,2.9c7.5,0.7,13.8-2.1,20-5.5c3.6-2,6.8-4.6,10.3-6.7c-4.5,6-11.4,8.7-17.7,12.3c0.2,0,0.5,0.1,0.6,0
			c4.1-2.2,8.7-3.3,12.3-6.5c2.6-2.3,5.5-4.1,8-6.5c1.4-1.4,2.1-3.4,3.1-5.2C439,398.2,439.1,398.1,439.2,398.1z M400.5,352.3
			c-13.5-0.7-24.2,10.1-24.2,22.8c-0.1,13.3,9.4,22.7,23.1,23.2c13.9,0.5,23-7.7,23.7-22.4C423.7,364.9,412.9,351.9,400.5,352.3z
			 M379.7,323.8c-0.2-0.4-0.3-0.8-0.5-1.2c-1.9,0.7-3.7,1.5-5.6,2.2c-2.5,1-5.1,1.7-7.4,2.9c-3.8,2.1-7.8,4.1-10.9,7
			c-4.3,4.1-7.8,9-11.5,13.6c-0.9,1.1-1.4,2.5-2.1,3.7c0.2,0.1,0.4,0.3,0.7,0.4c4.4-6.8,9.4-13.2,15.7-18.2
			C364.4,329.2,371.8,326,379.7,323.8z M367.4,384.1c-0.1-6.8,0.3-12.8,3.1-18.7c2.8-5.9,8.4-8.8,12.9-13.5
			C372.4,356.1,363.4,374.1,367.4,384.1z M342.1,354.5c-2.7,0.8-6.5,16.1-5.4,19.9c0.2-0.1,0.7-0.1,0.7-0.3
			C338.7,367.7,338.5,360.9,342.1,354.5z M384.1,351.7c4.9-2.7,10.2-3.1,15.6-3.3C394.1,347.5,388.9,348.8,384.1,351.7z
			 M380.7,351.4c4.1-1.7,8-3.3,12.1-5.1C389.9,346.1,382.5,349.2,380.7,351.4z M390.1,416.1c0.1-0.2,0.2-0.5,0.3-0.7
			c-2.3-1.1-4.7-2.3-7-3.4c-0.1,0.3-0.2,0.5-0.4,0.8C385.4,413.9,387.8,415,390.1,416.1z M393.9,416.5c0,0.3,0,0.6,0,0.9
			c2.8,0.2,5.5,0.4,8.3,0.7c0-0.2,0-0.4,0-0.5C399.5,417.2,396.7,416.8,393.9,416.5z M368.8,389.5c-0.2,0.1-0.4,0.2-0.6,0.2
			c0.9,2.3,1.8,4.6,2.7,6.9c0.2-0.1,0.5-0.2,0.7-0.3C370.6,394.1,369.7,391.8,368.8,389.5z M401.3,346.2c0,0.2-0.1,0.5-0.1,0.7
			c1.7,0.3,3.4,0.6,5.2,0.8c0-0.1,0.1-0.3,0.1-0.4C404.7,346.9,403,346.6,401.3,346.2z"/>
		<path d="M118.6,466.2c-0.2-1-0.6-2-0.6-3c-0.1-3.5,0-7.1,0-10.6c0-1.8-0.4-2.2-2.1-1.6c-7.5,2.7-15.4,4.1-23.3,4.9
			c-4.6,0.5-9.3-0.2-13.9-0.8c-3.8-0.5-7.5-1.7-11.2-2.5c-1.4-0.3-2.9-0.4-4.3-0.9c-3.1-1.2-6.1-2.5-9.1-3.8c-2.4-1.1-4.6-2.3-7-3.5
			c-0.1,0-0.1-0.1-0.2-0.1c-1.1-3.8-5.3-3.9-7.6-6.3c-3.7-3.9-7.5-7.8-11-11.9c-2.4-2.8-4.7-5.7-6.7-8.8c-2.5-4.1-4.7-8.5-6.9-12.8
			c-1-2-2-4-2.7-6c-1.2-3.2-2.1-6.4-3.2-9.6c-0.8-2.4-1.8-4.7-2.5-7.1c-0.2-0.8,0.3-1.7,0.2-2.5c-0.6-3.4-1.3-6.7-1.9-10
			c-0.1-0.3-0.2-0.5-0.1-0.8c1.1-4.6,0.1-9.4,0.8-14c0.4-2.5,0.6-4.9,0.9-7.4c0.1-0.6,0.5-1.2,0.8-1.7c0.4-0.8,1.2-1.5,1.3-2.3
			c1.7-9.8,5.7-18.6,10.9-26.9c2.5-4,4.9-8.1,7.8-11.9c1.9-2.5,4.4-4.5,6.7-6.6c4.7-4.5,9.8-8.5,15.4-11.9c3.8-2.3,7.5-4.9,11.6-6.7
			c4.5-2,9.2-3.4,13.9-5c2.1-0.7,4.3-1,6.4-1.6c0.6-0.2,1.3-1,1.4-1.7c0.1-0.5-0.6-1.4-1.1-1.7c-5.3-3.1-8.7-7.6-9.9-13.7
			c-0.5-2.6,0.5-3.8,3.2-3.8c5.9,0.1,11.8,0,17.7,0.1c1.9,0,3.9,0.3,5.8,0.2c1.2-0.1,2.4-0.6,3.8-0.9c1.2,2,3.6,0.9,5.7,1
			c7,0.3,14,0.4,21,0.5c0.1,0,0.2,0.1,0.8,0.6c-7.6,0-14.7,0-21.3,0c-1.2,1.4-2.1,2.5-3,3.6c-0.3-0.2-0.6-0.4-0.8-0.6
			c0.6-0.9,1.1-1.8,1.8-2.9c-11.1,0-22.1,0-33.4,0c-0.2,4.4,1,7.9,4,10.9c3.2,3.2,7.2,4.7,11.2,6.3c1.3,0.5,2.8,0.5,4.2,0.5
			c10.4,0,20.8-0.2,31.2-0.2c6.7,0,13.5,0.3,20.2,0.3c7,0,13.9-0.3,20.9-0.3c6.9,0,13.8,0.3,20.7,0.3c7.3,0,14.6-0.2,21.9-0.2
			c7.4,0,14.8,0.2,22.3,0.2c13.2,0,26.4-0.1,39.6-0.1c8.9,0,17.8,0.2,26.7,0.2c3.6,0,7.2-0.3,10.8-0.2c9,0.1,18,0.4,27,0.4
			c7.2,0,14.4-0.2,21.6-0.2c3.7,0,7.4,0.2,11,0.2c7.8,0.1,15.6,0.1,23.4,0.1c4.1,0,8.3,0,12.4,0c5.3,0,10.6-0.6,15.1-3.7
			c3.6-2.5,6.3-5.9,7.5-10.3c0.5-1.9-0.2-2.5-2.2-2.5c-11.8-0.1-23.6-0.2-35.3-0.3c-5,0-9.9,0.2-14.9,0.2c-8,0-16.1,0-24.1-0.2
			c-8.2-0.1-16.3-0.4-24.5-0.5c-5.4-0.1-10.8,0.1-16.2,0.1c-8.2,0-16.5-0.1-24.7-0.2c-4.1,0-8.2-0.1-12.3-0.1
			c-10.5-0.1-21-0.2-31.5-0.3c-0.3,0-0.6-0.1-0.9-0.7c1.3-0.1,2.6-0.3,3.9-0.2c7.3,0.1,14.6,0.2,21.9,0.3c4.7,0,9.5-0.1,14.2,0
			c10.3,0.1,20.6,0.3,30.9,0.4c3.5,0,7.1-0.1,10.6-0.1c6.7,0.1,13.5,0.2,20.2,0.3c5.9,0.1,11.8,0.3,17.6,0.3
			c6.2,0.1,12.4,0.1,18.7-0.1c1,0,1.9-1,3-1.6c0.4,2.1,2.2,1.7,3.8,1.7c5.3-0.1,10.6-0.2,15.8-0.2c7.4,0,14.8,0,22.2-0.1
			c1.3,0,2.5-0.2,3.8-0.3c1.7-0.2,2.6,0.6,2.1,2.2c-1.2,4.7-3,9.1-7,12.3c-0.8,0.6-1.5,1.9-1.5,2.9c-0.1,1.4,1.3,1.8,2.6,2.3
			c6,2.4,11.9,5,17.8,7.6c2.7,1.2,5.4,2.3,8,3.7c1.1,0.6,1.9,1.8,3,2.5c6.1,3.6,11.2,8.5,15.9,13.7c6.2,7,10.7,15.2,14.3,23.8
			c2.7,6.6,5,13.5,6.8,20.5c1.1,4.3,1.2,8.8,1.6,13.3c0.3,3.3,0.5,6.5,0.4,9.8c-0.1,2.8-0.9,5.5-1.1,8.3c-0.2,2.3-1.6,4.6-0.5,7
			c0.1,0.2,0,0.5-0.1,0.8c-3,5.3-3,11.6-5.8,16.9c-1.4,2.8-1.4,6.2-3.9,8.6c-1.3,1.2-2.2,3.2-0.1,5c-2.6-0.7-3.1,0.6-4,2.5
			c-0.7,1.6-1.1,2.8-0.1,4.5c-2.2-1.2-3.1-0.1-4,1.3c-3.6,5.1-7.6,9.8-12.4,13.8c-2.6,2.1-5,4.5-7.7,6.3c-3.3,2.1-6.8,3.9-10.3,5.5
			c-4,1.8-8.2,3.4-12.4,4.9c-1.6,0.6-3.4,0.8-5.5,1.2c-0.2-0.3-0.8-0.9-1.5-1.8c0.8-0.3,1.3-0.6,1.8-0.7c6.9-0.6,13-3.5,18.8-7
			c5.9-3.6,11.9-7.3,17.2-11.7c3.9-3.2,7.1-7.4,10-11.6c3.5-5,6.7-10.3,9.5-15.8c3.1-6,5.6-12.4,6.8-19.1c0-0.3,0.1-0.6,0.3-0.7
			c1.7-1.8,1.2-4.1,1.7-6.2c0.4-1.9,1.1-3.8,1.2-5.8c0.2-3.4,0.1-6.8,0-10.2c-0.1-2.8-0.4-5.6-0.4-8.4c0-6.7-1.9-12.9-3.9-19.1
			c-0.7-2.2-1.3-4.5-2.2-6.6c-2.6-5.8-5.1-11.6-8.1-17.2c-3-5.5-6.7-10.7-11.5-14.8c-4.1-3.6-8.6-6.7-13-10
			c-1.9-1.4-3.7-2.9-5.8-3.9c-3.9-1.8-8-3.3-12-5c-3.8-1.5-7.4-3.3-11.3-4.5c-2.7-0.8-5.6-1-8.5-1.1c-11.4-0.1-22.8-0.1-34.2-0.2
			c-9.8-0.1-19.5-0.2-29.3-0.3c-9.1-0.1-18.2-0.4-27.3-0.4c-10,0-20.1,0.1-30.1,0.2c-3.4,0-6.8-0.1-10.2-0.1
			c-9.1,0-18.1-0.1-27.2-0.1c-7.9,0-15.8-0.1-23.7-0.1c-9.9,0-19.8,0.1-29.7,0.1c-6.3,0-12.6-0.1-18.9-0.1c-10,0.1-20,0.5-30.1,0.6
			c-6.3,0.1-12.5,0-18.8,0c-4.5,0-9.1,0.1-13.6,0.1c-5.2,0-10.5,0-15.7-0.3c-10.2-0.5-20.3,0.2-29.9,3.6c-5,1.8-10,3.9-15,5.9
			c0.5,1.1,0.8,1.8,1.1,2.4c-1.7-1.7-3.1-0.9-4.7,0.1c-6.8,4.1-13.1,9-18.8,14.5c-4.5,4.3-8.5,9.1-11.8,14.4
			c-2.5,4-4.7,8.3-6.9,12.5c-0.6,1.2-0.9,2.5-1.3,3.8c-1.6,5.5-3.5,11-4.8,16.7c-1.1,4.8-1.9,9.7-2,14.6c-0.1,5.9,0,11.9,1.1,17.7
			c1.6,8.2,3.5,16.5,7.3,24.1c2.8,5.6,5.7,11.1,9,16.5c1.9,3.1,4.4,5.8,6.8,8.6c3.5,4.1,7.2,8,11.9,10.8c2.8,1.7,5.5,3.7,8.3,5.3
			c7,4,14.6,6.4,22.5,8c0.8,0.2,1.7,0.3,2.7,0.5c-0.4-0.9-0.7-1.7-1.1-2.4c0.1-0.1,0.3-0.2,0.4-0.3c0.7,0.7,1.4,1.4,2.2,1.9
			c1.1,0.7,2.3,1.4,3.5,1.6c9,1.1,17.9-0.1,26.7-2.1c3.7-0.8,7.1-2.4,10.7-3.6c0.7-0.2,1.5-0.3,2.4-0.5c0,1.8,0,3.5,0,5.1
			c-0.1,3.8-0.2,7.6-0.2,11.4c-0.2,0.1-0.3,0.3-0.5,0.4c-0.1-4.1-0.2-8.2-0.3-12.4c0-0.7-0.1-1.4-0.2-2.1c-0.3,0-0.5,0-0.8,0
			c-0.1,0.8-0.3,1.5-0.3,2.3c0,4.6,0,9.2,0,13.8C118.9,465.9,118.8,466.1,118.6,466.2z M417.3,272.4c0.2-0.1,0.3-0.3,0.5-0.4
			c-0.3-0.7-0.7-2.1-1-2c-0.9,0-1.9,0.6-2.8,0.9c0,0.2,0.1,0.4,0.1,0.6C415.2,271.8,416.2,272.1,417.3,272.4z M86.9,271.3
			c0-0.2,0-0.3,0-0.5c-0.7-0.2-1.4-0.5-2-0.5c-0.4,0-0.7,0.5-1.1,0.8c0.4,0.3,0.7,0.7,1.1,0.7C85.5,271.7,86.2,271.4,86.9,271.3z"/>
		<path d="M57.9,442.1c1.1,0.3,2.4,0.4,3.4,1c4.1,2.4,8.7,3.7,13.3,4.6c7.5,1.5,15,1.3,22.6,1.2c2.4,0,4.9-0.7,7.3-1.4
			c4.2-1.1,8.2-2.6,12.4-3.7c5.1-1.3,9.1-4.4,13.2-7.4c3.4-2.5,6.9-4.8,9.9-7.7c3.3-3.2,6.4-6.7,8.8-10.5
			c5.1-7.8,8.8-16.4,10.9-25.5c2.1-8.8,1.5-17.6-0.5-26.4c-1.4-5.9-3.4-11.6-7.1-16.5c-3.2-4.2-6.9-7.9-10.5-11.8
			c-0.4-0.4-1.2-0.5-1.9-0.7c4,5.1,7.9,9.8,11.4,14.8c4.1,5.9,6,12.8,6.8,19.9c0.6,4.8,0.7,9.8,0.4,14.6c-0.2,3.1-1.5,6.2-2.3,9.3
			c-0.3,1.1-0.7,2.2-1,3.3c-1.1,5.2-3.6,9.7-6.4,14.1c-1.9,2.9-3.6,6-5.8,8.7c-4.2,5.4-9.9,9.2-15.5,13c-6.1,4.1-12.8,7.3-20,9.1
			c-6.4,1.7-13,2.5-19.7,1.9c-8-0.7-15.8-2.1-23.2-5.3c-2.5-1.1-4.9-2.4-7.4-3.6c-0.8-0.4-1.8-0.5-2.6-0.9c-0.6-0.3-1-0.9-1.5-1.3
			c-1.8-1.2-3.8-2.3-5.5-3.6c-1.9-1.4-4-2.8-5.5-4.6c-4.6-5.4-9.2-11-13.5-16.7c-1.7-2.3-2.8-5-4-7.6c-1.5-3.2-2.7-6.6-4.2-9.9
			c-3.4-7.7-4.6-15.9-5-24.2c-0.5-10.2,1.1-20.3,4.1-30.1c1.6-5.2,4.3-10.2,7-15c2.4-4.2,5-8.4,8.2-12c3.8-4.3,8.1-8.1,12.4-11.9
			c2.5-2.2,5.5-3.9,8.2-5.7c0.7-0.5,1.5-0.7,2.3-1.1c0.3,0.3,0.6,0.6,0.9,0.8c-0.8,0.6-1.6,1.3-2.5,1.9c-1.7,1.1-3.6,2.1-5.2,3.4
			c-3.2,2.7-6.3,5.5-9.2,8.5c-2.9,3-5.5,6.2-8.2,9.3c-1.1,1.4-2.3,2.8-3.2,4.3c-1.9,3.4-3.8,6.9-5.5,10.4c-1.2,2.3-2.3,4.7-3,7.2
			c-1.1,3.9-1.8,7.8-2.5,11.7c-1.6,8.7-2.2,17.5-1.1,26.3c1.2,9.2,4.4,17.9,8.1,26.3c1.3,3,3.1,5.7,4.8,8.4c1.2,1.9,2.6,3.6,3.9,5.3
			c2.6,3.3,5.3,6.6,7.8,9.8c0.9-0.6,1.4-0.9,1.8-1.1c0,0.5-0.1,1,0,1.5c0,0.4,0.1,0.8,0.4,1c1.5,1.3,2.9,2.7,4.5,3.8
			c1.9,1.3,3.8,2.4,5.9,3.3c8.2,4,16.4,7.9,25.6,8.9c5.6,0.6,11.2,1.6,16.8,0.6c4.4-0.8,8.9-1.4,13.1-2.7c5.9-1.8,11.5-4.4,16.4-8.1
			c3.9-2.9,8.2-5.3,11.4-8.7c9.8-10.5,16-23.1,17.9-37.5c0.6-4.6,0.2-9.5-0.1-14.2c-0.2-3-1.1-6-1.9-8.9c-0.7-2.7-1.6-5.4-2.8-7.9
			c-3.1-6.4-8.2-11.2-13.1-16.1c-3.1-3.1-6.9-5.6-10.7-7.7c-6.1-3.2-12.8-4.8-19.7-5.8c-0.5-0.1-1-0.5-1.5-0.7
			c0.3-0.3,0.6-0.6,0.9-0.9c4,0.7,8.1,1.3,12.1,2.1c1.7,0.3,3.6,0.8,5.1,1.6c4.3,2.4,8.5,5.1,12.8,7.7c0.4,0.3,1,0.3,1.6,0.4
			c0.1-0.2,0.2-0.4,0.2-0.6c-3.6-2.3-7.1-4.9-10.9-7c-4-2.2-8.2-4.1-12.9-4.7c-2-0.3-4-0.9-6.1-1.4c0,0,0-0.1,0-0.1
			c1.8,0.1,3.6-0.1,5.3,0.2c7.8,1.5,15,4.6,21.3,9.3c6.3,4.7,12.4,9.8,16.6,16.6c4.6,7.5,7.4,15.6,8.6,24.4
			c1.8,13.4-1.3,25.9-7.4,37.7c-2.8,5.3-6.2,10.5-10,15.1c-6,7.3-13.8,12.4-22.2,16.6c-10,5.1-20.7,7.5-31.9,7.4
			c-9.8,0-19.3-1.5-28.4-5.5c-1.4-0.6-2.6-1.6-3.8-2.5C57.9,442.3,57.9,442.2,57.9,442.1z"/>
		<path d="M58.5,293.2c-0.3-0.3-0.6-0.6-0.9-0.8c1.9-1,3.7-2.4,5.5-3.5c3.2-2,6.9-3.1,10.4-4.6c8.7-3.5,17.9-3.1,27.1-3.3
			c6-0.1,12-0.2,18-0.3c3,0,6,0,9,0.1c7.6,0.1,15.2,0.2,22.8,0.2c10.3,0.1,20.6,0,30.9,0.1c9.7,0.1,19.4,0.3,29.1,0.3
			c7.6,0,15.1-0.3,22.7-0.3c3.6,0,7.2,0.1,10.8,0.2c2.2,0,4.4,0,6.6,0c17.5,0.1,35.1,0.2,52.6,0.3c5.4,0,10.8-0.1,16.3-0.1
			c6,0,12,0.3,18,0.3c10.9,0.1,21.8,0,32.7,0c6.3,0,12.6,0.2,18.9,0.3c6.2,0.1,12.4,0.4,18.7,0.3c7.2-0.1,14,1.8,20.6,4.5
			c2.6,1.1,5.1,2.3,7.7,3.5c0.6,0.3,1,0.9,1.5,1.4c-0.2,0.2-0.3,0.4-0.5,0.5c-2.4-1.7-5.3-2-8-3.3c-3.9-2-8.3-3.4-12.6-3.9
			c-8.1-0.9-16.3-1-24.4-1.2c-13-0.2-25.9,0.1-38.9-0.3c-9.6-0.3-19.2,0.4-28.8-0.1c-9.3-0.5-18.7-0.2-28-0.2
			c-7.2,0-14.3,0.1-21.5,0.1c-6.2,0-12.4,0-18.7,0c-3.8,0-7.6-0.1-11.4-0.3c-3.2-0.1-6.3-0.3-9.5-0.5c-2.5-0.1-5.1-1.7-7.6,0.4
			c-0.4,0.4-1.3,0.2-2,0.2c-7.5,0-15-0.1-22.5-0.1c-5.5,0-11,0.2-16.5,0.2c-7.6,0-15.2-0.2-22.8-0.3c-4.3,0-8.6,0-12.9,0
			c-4.3,0-8.6,0-12.8,0c-2.7,0-5.4,0.3-8.2,0.3c-3.8,0-7.6-0.4-11.4-0.4c-6.2,0-12.3,0.3-18.5,0.4c-4.2,0.1-8.3-0.1-12.5,0.2
			c-3,0.2-5.9,1-8.8,1.7c-6.5,1.5-12.6,3.8-18.3,7.2C59.9,292.9,59.2,293,58.5,293.2z"/>
		<path d="M298.2,569.5c0.3-2.4,0.7-4.2,0.7-6c0.2-12.3,0.3-24.5,0.5-36.8c0.2-9.5,0.5-19,0.6-28.5c0.1-12.4,0-24.8,0.1-37.1
			c0.1-9.1,0.2-18.2,0.4-27.3c0.1-7.8,0.1-15.5,0.5-23.3c0.2-3,0.5-6.4,3.5-8.3c3-1.9,8.9-2.8,12.7-0.3c4.5,2.9,4.6,6.9,4.4,11.3
			c0,0.9-0.1,1.9-0.2,2.8c0,3.9,0,7.9,0,11.8c0,7.7,0.2,15.4,0.1,23.1c0,8-0.1,16.1-0.2,24.1c0,3.8,0,7.7-0.1,11.5
			c-0.2,13.5-0.5,26.9-0.7,40.4c-0.1,6,0,12,0,18c-0.3,0-0.6,0-0.9,0.1c-0.2-1.1-0.4-2.2-0.4-3.3c0.1-7.9,0.2-15.8,0.3-23.7
			c0.1-9.1,0.1-18.2,0.2-27.3c0.1-6.6,0.3-13.2,0.3-19.8c0-6.7-0.3-13.5-0.3-20.2c0-6.5,0.3-13,0.4-19.4c0.1-5.4,0-10.9,0-16.3
			c0-1.5,0.2-2.9,0.2-4.4c-0.1-5.8-2.3-8-8-8.8c-2.9-0.4-5.3,0.7-7.4,2.4c-0.9,0.7-1.5,1.9-1.8,3c-1.3,4.8-0.8,9.7-0.9,14.5
			c0,4.7-0.1,9.4-0.1,14.1c-0.1,8-0.2,16-0.3,24c-0.1,3.8-0.2,7.6-0.3,11.4c-0.1,10.6-0.1,21.3-0.2,31.9c-0.1,8.5-0.5,17-0.6,25.5
			c-0.1,6.3,0,12.7-0.1,19c-0.1,5.3-0.2,10.6-0.3,15.8c0,0.7,0,1.3,0,2c0.2,2.5,0.7,2.8,3.1,2.7c1.5-0.1,3,0,4.6,0.1
			c0.3,0,0.5,0.4,0.8,0.6c-0.2,0.2-0.5,0.5-0.7,0.5C304.9,569.5,301.4,569.5,298.2,569.5z"/>
		<path d="M175.1,568.9c-0.6,0.1-1.5,0.2-2.7,0.4c0.2-1.9,0.4-3.5,0.4-5.1c0.1-7.3,0.1-14.6,0.2-21.9c0.1-4.7,0.2-9.4,0.3-14.1
			c0.1-6.7,0.2-13.5,0.3-20.2c0.1-8.6,0.2-17.1,0.3-25.7c0.1-14.6,0.2-29.2,0.3-43.8c0-8.8-0.1-17.7,0.1-26.5
			c0.1-3.6,0.9-7.2,4.4-9.4c4.6-2.9,11.7-1.9,14.9,2.3c1.8,2.3,1.8,5.3,1.9,8.1c0,2.3-0.3,4.6-0.3,6.9c-0.1,8.2-0.1,16.4-0.2,24.5
			c-0.1,9.6-0.2,19.3-0.3,28.9c-0.1,5.5-0.3,10.9-0.3,16.4c-0.1,8.6-0.1,17.2-0.2,25.9c-0.1,6.9-0.2,13.8-0.3,20.7
			c-0.1,10-0.3,20.1-0.4,30.1c0,0.4,0.1,0.9,0,1.2c-0.3,0.4-0.8,0.7-1.2,1.1c-0.2-0.4-0.5-0.8-0.5-1.2c0.1-2.1,0.5-4.3,0.5-6.4
			c0.1-4.5,0.1-9.1,0.2-13.6c0.2-10.5,0.4-20.9,0.5-31.4c0-3.7-0.1-7.5-0.1-11.2c0.1-5.3,0.5-10.7,0.6-16c0.1-6.3,0.1-12.6,0.1-18.9
			c0-2.7,0.4-5.4,0.1-8c-0.4-3.3,0.2-6.5,0.1-9.8c-0.1-3.4-0.1-6.8,0-10.2c0.1-5.2,0.2-10.4,0.2-15.7c0.1-4.6,0.4-9.2,0.2-13.7
			c-0.1-2.9-0.3-5.8-2.9-8.1c-2.5-2.2-5.3-2-8.1-1.8c-1.2,0.1-2.3,0.5-3.4,0.9c-2.3,0.8-3.7,2.7-3.8,4.9c-0.4,4.9-0.4,9.9-0.4,14.8
			c-0.1,11.6,0,23.2-0.1,34.9c-0.1,13.7-0.2,27.5-0.4,41.2c-0.1,10.5-0.5,21-0.6,31.5c-0.1,5.6-0.1,11.2-0.1,16.8
			c0,5.7,0,11.4,0.1,17.1C174.4,566.1,174.8,567.4,175.1,568.9z"/>
		<path d="M267,461.4c-0.1-1.9-0.3-3.8-0.3-5.7c0-6.5,0-13,0.1-19.5c0.1-7.7,0.4-15.4,0.6-23.1c0.1-2.1,0.2-4.1,0.5-6.2
			c0.4-3,3.8-5.7,6.6-6.5c3.6-1,7.2-0.3,10.8-0.1c6.2,0.2,11.2,6.7,10.8,12.9c-0.4,6.6-0.4,13.2-0.5,19.8c-0.1,5-0.1,10-0.2,15.1
			c0,1.3,0,2.5,0,3.8c0,9.6-0.1,19.1-0.2,28.7c0,4-0.2,8-0.2,12c-0.1,7.1-0.1,14.1-0.2,21.2c-0.4,16.6-0.8,33.2-1.2,49.8
			c0,1.5,0,3.1,0,4.5c1.3,0.5,2.8-0.9,3.4,1c-2.6,0-5.1,0-7.7,0c0.2-0.5,0.2-0.7,0.3-0.7c2.5,0,2.8-1.5,2.8-3.6
			c0.1-13.2,0.3-26.4,0.6-39.6c0.2-9,0.6-18,0.7-27.1c0.1-8.3,0.3-16.6,0.3-24.9c0-19.2,0.2-38.5,0.3-57.7c0-0.5,0-1.1,0.1-1.6
			c1.3-5.7-1.9-10.2-7.6-11.5c-4.3-1-8.3-1.3-12.4,0.4c-2.8,1.2-4.7,3.3-4.9,6.3c-0.4,5.6-0.5,11.2-0.6,16.8
			c-0.2,9.9-0.4,19.8-0.6,29.7c0,1.7-0.1,3.5-0.2,5.2C267.7,461.1,267.3,461.2,267,461.4z"/>
		<path d="M226,460.1c0-1.5,0-2.9-0.1-4.4c-0.1-0.9-0.4-1.9-0.6-2.8c-0.1-0.3-0.3-0.8-0.2-0.9c1.9-2.3,1-5,1-7.5
			c0.1-5-0.2-10-0.2-15.1c0-2.2,0.3-4.5,0.3-6.8c0-4.1,0-8.2-0.3-12.3c-0.4-4.8-4.2-9-9.5-9c-3,0-6.2,0.2-9.1,0.8
			c-2.9,0.6-5.5,4.9-5,7.8c0.1,0.8,1,1.4,1.6,2c-2,0.4-2.2,1.6-0.7,3.3c-0.4,1-1,1.9-1.1,2.7c-0.1,11.9-0.2,23.8-0.3,35.8
			c-0.1,7.6-0.4,15.1-0.5,22.7c-0.1,4,0.1,8,0,12c-0.1,6.8-0.4,13.6-0.6,20.4c-0.1,3.3-0.1,6.5-0.1,9.8c-0.2,14.8-0.3,29.6-0.4,44.4
			c0,0.9,0.3,1.7,0.3,2.6c-0.1,0.9-0.3,1.9-0.8,2.5c-0.4,0.4-1.5,0.3-2.3,0.2c2.2-2.3,1.3-5.1,1.4-7.6c0.3-9.8,0.5-19.5,0.6-29.3
			c0.1-4.2-0.2-8.4-0.2-12.6c0-4.9,0.2-9.9,0.3-14.8c0.2-7.3,0.3-14.6,0.4-21.9c0.1-9.3,0.2-18.6,0.3-27.9c0.1-12,0.4-24.1,0.3-36.1
			c-0.1-3.9-0.1-7.7,0.6-11.5c0.4-2.1,1.2-3.8,3.2-4.8c3.8-1.9,7.7-2.8,12-1.9c1.3,0.3,2.7,0.1,4,0.4c3.8,1,7.2,5.5,7.3,9.4
			c0.1,7.8,0,15.6,0.1,23.5c0,5,0.2,10,0.3,15c0,0.4-0.3,0.9-0.3,1.4c0.1,1.3,0.3,2.6,0.5,4c-0.3,2.2-0.6,4.7-0.9,7.2
			C226.6,460.7,226.3,460.4,226,460.1z"/>
		<path d="M267.5,501.5c0.1,2.1,0.4,4.2,0.3,6.3c-0.1,7.1-0.3,14.3-0.4,21.4c-0.1,3.8-0.4,7.6-0.4,11.4c-0.1,8.5-0.1,17-0.2,25.5
			c0,1.3,0.5,1.8,1.8,1.7c1,0,2.1,0.2,3.1,0.4c0,0.3-0.1,0.5-0.1,0.8c-2,0-4,0-6,0c-2.1,0.1-4.3,0.2-6.4,0.3c-2,0-4.1,0.3-5.8-1.4
			c0.9,0,1.8-0.1,2.7,0c1.4,0.1,1.9-0.6,1.9-1.9c0.3-14.3,0.7-28.6,1-43c0.1-5.7,0-11.5,0.1-17.2c0.1-4,0.4-8.1,0.7-12.1
			c0.3,0.3,0.6,0.6,0.9,0.9c0,6.2,0.1,12.4,0,18.7c-0.3,17.2-0.8,34.4-1.2,51.6c-0.1,2.9,1.7,4.1,4.4,2.8c0.5-0.2,0.9-1.1,0.9-1.8
			c0.1-4.1,0.2-8.2,0.2-12.3c0.2-13.2,0.3-26.3,0.5-39.5c0.1-4.4,0.2-8.8,0.4-13.2c0-0.2,0.2-0.5,0.3-0.7
			C266.7,500.7,267.1,501.1,267.5,501.5z"/>
		<path d="M260.3,468.2c0-1.5,0.1-3,0.1-4.5c0-7.8,0-15.5,0.1-23.3c0.1-8.6,0.2-17.1,0.3-25.7c0-1.4,0.1-2.8,0.1-4.2
			c0.1-4.7-2.8-7.1-6.7-8.4c-2.4-0.8-5.2-1.4-7.7-1c-2.8,0.4-5.5,2-8.2,3.2c-0.4,0.2-0.6,0.8-0.8,1.3c-1.4,3.6-1.9,7.4-1.9,11.2
			c-0.1,7.8,0,15.5-0.1,23.3c0,4.7-0.3,9.3-0.3,14c-0.1,4.3,0,8.7-0.1,13c0,0.5-0.2,1-0.3,1.5c-0.3-0.3-0.6-0.6-0.9-0.9
			c-0.1-0.7-0.3-1.4-0.3-2.2c0-8.6-0.1-17.1,0-25.7c0.2-9.8,0.4-19.7,0.9-29.5c0.1-2.1,0.9-4.2,1.7-6.1c0.5-1.1,1.6-2,2.7-2.6
			c5-2.3,10.2-2.6,15.5-1.4c5.5,1.2,8.4,6,8.3,12.1c-0.3,10.2-0.4,20.4-0.5,30.6c-0.1,5.8-0.2,11.6-0.4,17.5
			c-0.1,2.3-0.2,4.6-0.3,6.8C260.9,467.6,260.6,467.9,260.3,468.2z"/>
		<path d="M122,506.5c-0.2,2.6-0.4,5.2-0.5,7.8c-0.1,5.6,0,11.2-0.1,16.8c-0.1,9.8-0.2,19.5-0.3,29.3c0,2.1,0,4.3,0.1,6.4
			c0.1,2.2-1,3-3.3,2.6c0.4-0.5,0.7-0.8,1-1.2c1-1.1,1.1-2.2-0.2-3.2c-1.4-1.1-1.7-2.5-1.5-4.4c0.3-3.3-0.1-6.6-0.1-9.9
			c0-2.5,0.3-4.9,0.4-7.4c0.1-2.3,0-4.7,0-7c0-5.3,0.1-10.5,0.1-15.8c0.1-5.7,0.2-11.4,0.3-17.1c0-0.2,0.2-0.5,0.2-0.7
			c0.5,0.4,1,0.9,1.5,1.3c0,2.5,0.1,5,0,7.6c-0.1,4.3-0.3,8.7-0.4,13c-0.2,6.5-0.4,13.1-0.5,19.6c0,1.7,0.2,3.4,0.4,5.6
			c0.4-0.6,0.6-0.7,0.6-0.9c0.2-6.3,0.3-12.7,0.5-19c0.2-6.4,0.3-12.8,0.4-19.2c0-1.7,0.3-3.4,0.4-5.1
			C121.4,505.9,121.7,506.2,122,506.5z M119.8,550.9c-1.2,2.1-1.1,11.8,0,13.1C119.8,559.7,119.8,555.5,119.8,550.9z"/>
		<path d="M233.6,467.7c0.3,0.3,0.6,0.6,0.9,0.9c0.1,1.1,0.3,2.1,0.3,3.2c0,7.7,0,15.4-0.1,23c-0.2,12.9-0.4,25.7-0.7,38.6
			c-0.1,6.5-0.3,13-0.4,19.5c-0.1,3.9-0.1,7.9,0,11.8c0,1.4,0.3,2.7,0.6,4.3c-2,0-4.2,0-6.5,0c0-0.2,0-0.4-0.1-0.6
			c1.2-0.2,2.5-0.4,4-0.6c0.1-0.6,0.3-1.5,0.3-2.3c0.1-5.8,0.1-11.7,0.2-17.5c0.2-11.8,0.4-23.6,0.6-35.4c0.1-7.9,0.1-15.9,0.2-23.9
			c0.1-6.8,0.2-13.5,0.3-20.3C233.4,468.2,233.6,468,233.6,467.7z"/>
		<path d="M377.1,501.1c0.2,1.9,0.6,3.8,0.6,5.7c-0.1,9.2-0.3,18.4-0.5,27.6c-0.1,9.2-0.1,18.4-0.2,27.6c0,2,0,4,0,6.1
			c0.8,0,1.7-0.1,2.6,0c0.5,0.1,0.9,0.6,1.4,1c-0.5,0.4-1.1,1.1-1.5,1.1c-1.7-0.3-3.5-0.8-4.9-1.2c0.1-1.9,0.3-3.7,0.4-5.5
			c0.1-6.4,0.2-12.7,0.2-19.1c0-2.1,0.5-4.3-0.1-6.2c-0.7-2.2,0-4.3,0-6.4c0.1-9.5,0.3-19,0.4-28.5c0-0.3,0.1-0.6,0.2-1
			C376.1,502,376.6,501.5,377.1,501.1z"/>
		<path d="M378.7,250.2c-0.2-0.9-0.4-1.9-0.5-2.8c-0.2-2.6-1.4-3.7-4-3.7c-3.2,0-6.4,0-9.5,0c-5.1,0-10.3,0-15.4-0.1
			c-5.2-0.1-10.4-0.3-15.6-0.3c-4.5,0-9,0.2-13.5,0.2c-4.2,0-8.4-0.2-12.6-0.3c-5.9,0-11.8,0-17.7,0c-5.1,0-10.3-0.1-15.4-0.1
			c-5.9,0-11.8,0-17.7-0.1c-1,0-2-0.2-3-0.7c0.5-0.1,1-0.3,1.5-0.3c11.5,0,23,0.1,34.6,0.1c10.4,0.1,20.9,0.2,31.3,0.2
			c8.7,0,17.5,0,26.2,0c7.8,0,15.5,0.2,23.3,0.3c1.9,0,3.9,0.2,5.8,0.2c3,0,3.8,1,3.5,3.9c-0.1,1.1-0.4,2.2-0.5,3.3
			C379.1,250.1,378.9,250.2,378.7,250.2z"/>
		<path d="M226,460.1c0.3,0.3,0.7,0.6,1,0.9c0.1,0.9,0.3,1.7,0.3,2.6c-0.1,11.2-0.2,22.5-0.4,33.7c-0.2,9.3-0.5,18.6-0.6,27.9
			c-0.1,7.6-0.2,15.3-0.3,22.9c-0.1,6.1-0.1,12.2-0.1,18.3c0,0.8,0.4,1.6,0.8,2.8c-1,0-2,0-2.5,0c0.1-5.1,0.2-9.9,0.3-14.8
			c0-2.2,0-4.4,0.1-6.6c0.1-5.6,0.3-11.2,0.4-16.8c0.2-15.5,0.3-31.1,0.5-46.6c0.1-7.6,0.2-15.3,0.3-22.9
			C225.8,461,225.9,460.5,226,460.1z"/>
		<path d="M360,569.2c-0.1,0-0.6,0.1-1.5,0.4c0.4-36.8,0.8-73.5,1.2-110.1c1.2,0.7,0.9,31.1,0.7,36.3c-0.3,12.2-0.3,24.3-0.3,36.5
			C359.9,544.5,360,556.7,360,569.2z"/>
		<path d="M363.4,514.7c0.1,4.3,0.1,8.6,0.2,13c0,1.2,0.4,2.5,0.4,3.7c0,1.2-0.3,2.4-0.3,3.5c-0.1,8.5-0.1,17.1-0.1,25.6
			c0,1.7,0.1,3.4,0.2,5.1c0.1,1.1,0.4,2.2,0.8,3.5c-0.8,0-1.9,0-3,0c0.9-5.2,0.8-21.9,0.2-22.7c0.2-2.1,0.4-3.8,0.4-5.5
			c0-4,0.3-8-0.2-11.9c-0.5-4.2,0.7-8.2,0.2-12.3c0-0.3,0.3-0.7,0.4-1.1C362.8,515.4,363.1,515.1,363.4,514.7z"/>
		<path d="M160.5,242.3c0.4-0.2,0.7-0.6,1.1-0.6c30.2,0.1,60.4,0.2,90.6,0.3c0,0.3,0,0.5,0,0.8c-30.5,0-61,0-91.5,0
			C160.6,242.6,160.6,242.5,160.5,242.3z"/>
		<path d="M363.4,514.7c-0.3,0.3-0.6,0.7-0.9,1c-0.2-1.9-0.6-3.8-0.6-5.6c0.1-10.8,0.4-21.7,0.6-32.5c0.1-8,0.2-16.1,0.4-24.1
			c0-0.2,0.2-0.5,0.3-0.7c0.3,0.3,0.7,0.6,1,0.9c0,3.2,0.1,6.4,0.1,9.6c-0.1,8.4-0.2,16.7-0.3,25.1c-0.1,5.4-0.2,10.8-0.3,16.2
			c0,2.7,0,5.5,0,8.2C363.7,513.4,363.5,514.1,363.4,514.7z"/>
		<path d="M372.7,505.5c0.2,0.4,0.6,0.9,0.6,1.3c-0.1,7.2-0.2,14.5-0.2,21.7c-0.1,11-0.2,22-0.3,33c0,2,0,4,0.1,6
			c0.1,1.6-0.5,2.1-1.9,1.6c0.2-0.9,0.5-1.8,0.5-2.6c0.1-8.7,0-17.4,0.1-26.1c0.1-11.2,0.2-22.3,0.4-33.5c0-0.3,0.1-0.5,0.2-0.8
			C372.3,505.8,372.5,505.7,372.7,505.5z"/>
		<path d="M409.2,320.1c-0.4,0.4-0.8,0.8-1.1,1.1c-6.3-3.1-21.8-3.7-23.8-0.9c0.5,0.3,0.9,0.6,1.8,1.1c-1,0.4-1.6,0.6-2.2,0.8
			c-0.7-1.6-1.1-3.2-3.1-3.2c-0.4-0.4-0.8-0.9-1.2-1.3c-0.4-0.4-0.8-0.8-1.1-1.2c-0.2-0.2-0.4-0.4-0.6-0.6c0.2-0.1,0.4-0.4,0.7-0.4
			c3.5,0.1,7.1,0,10.6,0.4c4.6,0.4,9.2,1.1,13.8,1.9C405,318.3,407,319.4,409.2,320.1z"/>
		<path d="M22.7,321c0.8,2.5-3.3,3.9-0.4,6.2c-0.5-0.1-1.1-0.3-1.5-0.4c-9.9,18.7-9.8,38.6-7,58.9c-0.2,0-0.4,0-0.6,0
			c-0.3-1.5-0.7-2.9-0.9-4.4c-1.7-11.4-1.6-22.9,0.3-34.3c1.3-7.9,4.1-15.3,7.8-22.4C20.9,323.6,21.7,322.5,22.7,321z"/>
		<path d="M267.5,501.5c-0.4-0.4-0.8-0.8-1.2-1.2c0-3.2,0-6.4,0-9.6c0.1-8.5,0.1-17.1,0.2-25.6c0-1.2,0.3-2.5,0.5-3.7
			c0.3-0.2,0.6-0.3,1-0.5c0,5.7,0,11.5,0.1,17.2c0,1,0.8,2,1.1,3c0.1,0.5,0,1.6-0.2,1.7c-1.5,0.3-1.2,1.5-1.2,2.4
			c0,5.3,0,10.6,0,15.9C267.8,501.2,267.6,501.4,267.5,501.5z"/>
		<path d="M146.7,245c0.1-0.7,0.1-1,0.2-1.4c-0.3,0.1-0.5,0.1-0.7,0.1c-1.5,0.2-2.9,0.6-4.4,0.6c-1.1,0-2.2-1.6-3.4-0.1
			c-1.7-1.9-4-0.6-6-1c-3.1-0.6-6.2-0.5-9.3,0.5c-0.4,0.1-1-0.1-1.4-0.3c-1.7-0.7-2.7-0.3-3,1.6c-0.3,1.5-0.4,3.1-1,4.6
			c-0.2-2.4-0.4-4.7-0.6-7.4c14.4,0,28.6,0,42.9,0c0,0.1,0.1,0.3,0.1,0.4c-1.2,0.2-2.4,0.6-3.6,0.5c-1.9-0.1-3.6-0.1-5.3,1
			C150,244.9,148.3,244.8,146.7,245z"/>
		<path d="M119.6,504c-0.5-0.4-1-0.9-1.5-1.3c-0.1-0.4-0.2-0.8-0.2-1.2c-0.1-4.6-0.3-9.1-0.3-13.7c0-3.6,0.5-7.1,0.6-10.7
			c0.1-2.9,0-5.9,0.1-8.8c0-0.7,0.2-1.4,0.3-2.1c0.1-0.2,0.3-0.3,0.4-0.5c0.2,0.8,0.5,1.6,0.5,2.4c0.2,9.7,0.4,19.4,0.5,29.1
			C120,499.5,119.8,501.8,119.6,504z"/>
		<path d="M132.8,517.1c0,3.1,0,6.1,0,9.2c0,7.4,0,14.8,0,22.3c0,5.2,0,10.4,0.1,15.7c0,1.8-0.6,3.8,2,4.8c-0.9,0.2-1.7,0.5-2.6,0.6
			c-0.6,0.1-1.1-0.2-1.7-0.3c0.2-0.5,0.4-1,0.5-1.5c0.2-0.6,0.4-1.2,0.4-1.7c0.1-9.5,0.1-19,0.2-28.5c0.1-6.4,0.2-12.7,0.4-19.1
			C131.9,517.9,132.5,517.5,132.8,517.1L132.8,517.1z"/>
		<path d="M136,520.5c0.1,0.6,0.3,1.3,0.3,1.9c0,11.7,0,23.4,0.1,35.1c0,2.9,0.1,5.8,0.4,8.6c0.1,0.8,0.9,1.6,1.7,2.9
			c-1,0-1.9,0.2-2.7-0.1c-0.4-0.1-0.6-1.2-0.6-1.9c0.1-8.7,0.3-17.4,0.3-26.1c0-5.7-0.2-11.4-0.2-17.1
			C135.3,522.8,135.8,521.7,136,520.5L136,520.5z"/>
		<path d="M372.7,505.5c-0.2,0.2-0.4,0.4-0.6,0.6c-0.1-2.6-0.3-5.2-0.2-7.7c0.2-8.8,0.5-17.5,0.8-26.3c0.1-3,0.5-6.1,0.7-9.1
			c0.2,0.2,0.3,0.3,0.5,0.5c0.1,0.4,0.3,0.8,0.2,1.2c-0.2,6.9-0.5,13.7-0.6,20.6c-0.1,4.6,0,9.2-0.1,13.8
			C373.2,501.1,372.9,503.3,372.7,505.5z"/>
		<path d="M132.8,517.1c-0.4-1.1-1.1-2.2-1.1-3.2c0-6.1,0.3-12.1,0.3-18.2c0-9.9-0.2-19.9-0.3-29.8c0-3-0.1-6-0.1-9
			c0-0.4,0.2-0.7,0.7-1.1c0.1,1.3,0.4,2.5,0.4,3.8c0,19.1,0,38.1,0,57.2C132.7,516.8,132.7,517,132.8,517.1
			C132.8,517.1,132.8,517.1,132.8,517.1z"/>
		<path d="M61.8,285.3c-15.8,7.1-27.7,18.4-36.8,33c-0.2-0.1-0.3-0.2-0.5-0.4c0.2-0.4,0.3-0.9,0.5-1.3c3.6-6,7.7-11.6,13.1-16.1
			c3.6-3.1,7.2-6.2,11.1-9c3.2-2.3,6.8-4.2,10.3-6.3c0.6-0.3,1.3-0.3,2-0.4C61.6,285,61.7,285.2,61.8,285.3z"/>
		<path d="M122,506.5c-0.3-0.3-0.6-0.6-0.9-0.9c-0.1-0.7-0.3-1.4-0.3-2.1c0.1-10.1,0.2-20.2,0.3-30.3c0-3-0.2-6-0.3-9
			c0.2-0.1,0.3-0.3,0.5-0.4c0.2,1.2,0.6,2.5,0.6,3.7c0.2,12.5,0.4,25,0.5,37.5C122.4,505.4,122.1,506,122,506.5z"/>
		<path d="M236.9,253.1c-16.4,0-32.8,0-49.2,0c0-0.3,0-0.5,0-0.8c16.4,0,32.8,0,49.2,0C236.9,252.5,236.9,252.8,236.9,253.1z"/>
		<path d="M136.1,520.5c-0.2-0.8-0.6-1.5-0.6-2.3c0.1-10.4,0.2-20.7,0.3-31.1c0-4.6-0.1-9.2-0.2-13.8c0-0.4,0-0.8,0.4-1.2
			c0.1,0.8,0.4,1.6,0.4,2.5c0.1,8.4,0.2,16.9,0.2,25.3c0,6.2-0.2,12.3-0.3,18.5C136.3,519.1,136.1,519.8,136.1,520.5
			C136,520.5,136.1,520.5,136.1,520.5z"/>
		<path d="M186.4,252.8c-15.3,0-30.5,0-45.8,0c0-0.2,0-0.3,0-0.5c15.3-0.8,30.6-0.2,45.9,0C186.5,252.4,186.5,252.6,186.4,252.8z"/>
		<path d="M377.1,501.1c-0.5,0.5-0.9,0.9-1.4,1.4c-0.1-2.4-0.3-4.8-0.2-7.3c0-3.6,0.2-7.2,0.3-10.8c0-0.8,0.3-1.6,0.5-2.6
			c1.8,0.8,1.5,2.3,1.5,3.4c0,4.7-0.1,9.4-0.2,14.2C377.5,499.9,377.2,500.5,377.1,501.1z"/>
		<path d="M260.3,468.2c0.3-0.3,0.6-0.6,1-0.9c0.1,0.8,0.3,1.7,0.3,2.5c-0.1,7.8-0.2,15.6-0.4,23.4c0,0.5-0.2,1-0.4,1.5
			c-0.3-0.3-0.6-0.6-0.9-0.9c0-3.6-0.1-7.1-0.1-10.7c0-4.3,0.1-8.7,0.1-13C260,469.5,260.2,468.8,260.3,468.2z"/>
		<path d="M29.6,418.7c-7-9.6-12.6-19.9-15.5-31.5C18.1,398.2,23.1,408.8,29.6,418.7z"/>
		<path d="M439.2,398.1c-0.1,0-0.2,0.1-0.3,0.1c-1.6,1.8-3.2,3.5-4.8,5.3c-0.2-0.1-0.4-0.3-0.6-0.4c0.8-1.1,1.6-2.2,2.3-3.4
			c2.3-3.5,4.5-7.1,6.8-10.6c0.3-0.4,0.9-0.5,1.3-0.8l0,0C442.4,391.6,440.8,394.8,439.2,398.1z"/>
		<path d="M320.3,552.7c0,3.6,0,7.2,0,10.8c0,1.3,0.1,2.7,0,4c-0.1,0.7-0.6,1.3-0.9,1.9c-0.2-0.1-0.5-0.2-0.7-0.3
			c0.2-5.5,0.5-11,0.7-16.4C319.8,552.6,320,552.6,320.3,552.7z"/>
		<path d="M406.5,322.8c-1-0.1-2-0.1-2.9-0.3c-2.2-0.3-4.4-0.7-6.5-0.9c-3-0.1-6,0-9.1,0c0-0.2-0.1-0.4-0.1-0.6
			c0.3-0.2,0.7-0.5,1-0.5c5.6-0.4,11.2,0.1,16.6,1.7C405.8,322.4,406.1,322.7,406.5,322.8C406.4,322.9,406.5,322.8,406.5,322.8z"/>
		<path d="M30.6,420c2.2,2.5,4.4,5.1,6.8,7.6c1.2,1.3,2.3,3.1,4.8,1.8c0,0.2-0.1,0.4-0.1,0.6c-0.4,0.2-0.8,0.4-1.8,0.9
			c1.4,0.9,2.6,1.7,3.8,2.5c-0.3,0.2-0.5,0.5-0.8,0.7C38.1,430.4,34.1,425.4,30.6,420z"/>
		<path d="M57.9,442.1c0,0.1,0,0.2,0,0.3c-1.3-0.4-2.6-0.6-3.7-1.2c-3.4-2-6.6-4.1-9.9-6.2c0.1-0.1,0.2-0.3,0.3-0.4
			C49,437.1,53.5,439.6,57.9,442.1z"/>
		<path d="M236.8,568c3,0.6,6-0.6,8.9,0.3c0,0.2,0,0.4,0,0.6c-3,0-6,0-8.9,0C236.8,568.6,236.8,568.3,236.8,568z"/>
		<path d="M360.1,449.6c0.2,0.2,0.3,0.3,0.5,0.5c0.7,3,0.5,6.1-1,7.5C359.8,454.6,359.9,452.1,360.1,449.6z"/>
		<path d="M148.6,467.5c0.3,3.8,0.6,7.6,0.9,11.3c-0.3,0-0.6,0-0.9,0C148.6,475,148.6,471.3,148.6,467.5
			C148.6,467.5,148.6,467.5,148.6,467.5z"/>
		<path d="M159.7,569.2c-1.8-0.2-3.6-0.4-5.4-0.6c0-0.4,0.1-0.8,0.1-1.1c1.8,0.2,3.6,0.5,5.4,0.7
			C159.8,568.5,159.8,568.8,159.7,569.2z"/>
		<path d="M247,569c1.3-1.7,4.4-1.7,5.5,0C250.6,569,248.9,569,247,569z"/>
		<path d="M208.9,568.2c1.6,0,3.3,0,5,0C212.7,570,211.9,570,208.9,568.2z"/>
		<path d="M273.4,568.2c1.5,0,2.9,0,4.5,0C276.8,570,275.6,570.1,273.4,568.2z"/>
		<path d="M181.1,569.1c-1.3-0.1-2.6-0.3-3.8-0.4c0-0.2,0-0.4,0-0.6c1.3,0,2.6,0,4,0C181.2,568.5,181.2,568.8,181.1,569.1z"/>
		<path d="M288.3,569.2c-1.2,0.1-2.3,0.1-3.6,0.2C285.3,567.7,286.8,567.5,288.3,569.2z"/>
		<path d="M135.8,252.6c-1.8,0-3.6,0-5.4,0c0-0.1,0-0.3,0-0.4c1.8,0,3.6,0,5.4,0C135.8,252.4,135.8,252.5,135.8,252.6z"/>
		<path d="M444,388.3c-0.3-2.2,0-3.7,1.7-5.3C445.1,384.8,444.5,386.5,444,388.3C444,388.3,444,388.3,444,388.3z"/>
		<path d="M278.5,569c0.5-0.7,1-1.4,1.5-2.1c0.3,0.2,0.8,0.6,0.7,0.7c-0.3,0.7-0.8,1.4-1.2,2.2C279.2,569.4,278.9,569.2,278.5,569z"
			/>
		<path d="M314,569c-1.2,0-2.4,0-3.5,0c0-0.2,0-0.5,0-0.7c1.2-0.1,2.4-0.1,3.6-0.2C314,568.5,314,568.7,314,569z"/>
		<path d="M220.9,363c0.4,0.8,0.9,1.6,1.1,2.4c0.9,4.4,1.1,8.9-0.5,13.2c-0.5,1.3-2.3,2.6-3.7,2.9c-2,0.3-4.4,0.1-6.2-0.7
			c-1.7-0.7-3-2.5-4.5-3.9c0.7-0.7,1.5-1.4,2.2-2.1c1.8,1.2,3.5,2.6,5.4,3.5c3.4,1.5,6.1,0.1,6.5-3.6c0.3-2.7-0.1-5.4-0.3-8.1
			c-0.1-1-0.4-2-0.5-2.9C220.6,363.4,220.8,363.2,220.9,363z"/>
		<path d="M251.3,332.6c-3,1.1-6.1,0.3-9.1,0c-0.4-0.5-0.9-0.9-1.3-1.4c2.2,0,4.5-0.1,6.7,0c1.6,0,3.1,0.3,4.7,0.4
			C252,332,251.7,332.3,251.3,332.6z"/>
		<path d="M243.9,340.1c2.1,0.1,4.2,0.3,6.3,0.4c0.3,0.3,0.7,0.7,1,1c-0.7,0.2-1.3,0.5-2,0.5c-2,0-4,0-6-0.1c-0.2,0-0.5-0.3-0.7-0.5
			C242.9,341,243.4,340.6,243.9,340.1z"/>
		<path d="M374.2,355.5c-0.4,0.5-0.7,1.1-1.2,1.5c-1.1,1-2.2,2-3.3,2.9c-0.4,0.3-0.8,0.6-1.3,0.9c0-0.5-0.1-1.1,0.1-1.4
			c2.7-3.2,5.5-6.3,9.3-8.3C376.6,352.6,375.4,354,374.2,355.5z"/>
		<path d="M111.1,345.5c2.9,1.3,5.9,2.4,8.5,4.1c4.2,2.5,7.3,6.2,9.8,10.4c3.9,6.8,5.6,14.2,4.8,22.1c-0.5,5-1.3,10-3.8,14.4
			c-6.8,12.2-16.8,19.8-31,21c-4.2,0.4-8.5,0.1-13,0.1c4.4,3.7,24.4,0.2,32.2-5.5c0.1,0.1,0.3,0.2,0.4,0.3c-0.6,0.8-1,1.9-1.7,2.3
			c-3.8,1.7-7.5,3.7-11.4,4.7c-8.8,2.3-17.7,2.1-26.4-1.1c-9-3.3-16.9-8.2-22.1-16.3c-2.9-4.6-5.5-9.5-7.3-14.6
			c-3.1-8.6-3.1-17.6-1.4-26.5c0.1-0.7,0.1-1.5,0.4-2.1c0.4-0.7,1.1-1.2,1.9-1.4c-0.6,2.5-1.2,5.1-1.8,7.6c0.3,0.1,0.6,0.2,0.9,0.2
			c2-5.3,2-11.5,6.4-15.8c-2.2,4.7-4.3,9.3-4.2,14.7c0.4-0.7,0.8-1.3,1.5-2.4c-1.1-1.9,0.7-3.8,1.5-6c1.2-3.5,2.5-6.7,5.4-9.2
			c0.4-0.3,0.2-1.1,0.5-1.6c1.4-2.5,3.9-4,5.7-6.3c2.4-3.1,6.2-5.4,9.8-7.4c3.2-1.8,6.8-3.1,10.3-4.3c6.8-2.2,13.8-2.9,20.9-2.1
			c0.1,0,0.2,0.2,0.3,0.3c-0.3,0.3-0.6,0.6-0.9,0.9c-0.7,0.4-1.3,0.8-1.8,1.1c-1.2-0.2-2.3-0.5-3.4-0.4c-5.2,0.4-10.3,1.2-15.3,2.7
			c-6.5,1.9-12.5,4.7-17.3,9.6c-6.3,6.5-12,13.4-13.8,22.7c-1.6,7.8-2.2,15.7,0.2,23.4c1.8,5.6,4.2,10.9,8.1,15.6
			c6.4,7.6,14.7,11.6,24,13.1c10.2,1.7,20.2,0.1,28.9-6.4c13.1-9.8,16.2-22.7,12.9-38c-1.9-8.6-7.6-14.1-14.4-18.8
			c0-0.2,0-0.4,0-0.7c2.7,0.3,4.3,2.2,6,3.9c1.5,1.6,3.1,3.1,4.6,4.7c0.2-0.1,0.4-0.3,0.6-0.4c-0.4-0.7-0.6-1.6-1.2-2.1
			c-2.5-2.1-5.1-4.3-7.8-6.2c-1.9-1.4-4.1-2.3-6.2-3.4C111.1,345.8,111.1,345.6,111.1,345.5z M49.6,365.9c-0.2,0-0.4,0-0.6,0
			c-0.1,2.4-0.2,4.8-0.4,7.2c-0.5,6.1,1.4,11.8,3.4,17.2c1.9,5,5.2,9.4,8.1,14c1.1,1.7,2.7,3,5.1,3.2c-1.7-1.8-3.3-3.7-5-5.5
			c0.1-0.1,0.3-0.2,0.4-0.4c1.7,1.6,3.4,3.1,5.1,4.7c0.2-0.1,0.3-0.3,0.5-0.4c-11-11.5-14.7-25.2-13.5-41c0,0-0.4-0.2-1.1-0.5
			c-0.4,2-0.8,4-1.1,5.9c-0.1,0-0.2,0-0.3-0.1C49.9,368.8,49.7,367.3,49.6,365.9z M125.4,400.9c5.2-4.6,10.5-17.3,6.8-31.6
			c-1.1-4.3-4.2-10.4-6.1-10.7C134.2,372.8,133.9,386.9,125.4,400.9z M125.2,402.5c-0.2-0.3-0.4-0.6-0.6-0.9
			c-10.3,11.7-23.4,15.4-38.8,13.3c3,3,16.7,2.3,25.7-1.5C117.1,411.1,121.7,407.3,125.2,402.5z M84.7,415.2
			c-5.9-2.8-11.6-5.5-17.4-8.3C72.3,411.4,78.1,414.1,84.7,415.2z M66,408.7c5.3,4.4,11.6,6.8,18.1,8.7
			C78.1,414.5,72,411.6,66,408.7z"/>
		<path fill="#FFFFFF" d="M119.8,550.9c0,4.7,0,8.9,0,13.1C118.8,562.7,118.6,553,119.8,550.9z"/>
		<path d="M251.3,332.6c0.3-0.3,0.7-0.7,1-1c1.7-0.1,3.4-0.3,5.2-0.4c8.7-0.7,17.3-1.3,26-2.1c5-0.5,10-1,14.9-1.8
			c4.7-0.8,9.4-1.9,14.1-2.8c6-1.1,11.9-2.1,17.9-3.2c3-0.6,6-1.3,8.7-2c0.1-0.9,0.2-1.6,0.3-2.4c0.2-0.1,0.4-0.2,0.7-0.2
			c0.4,2.7,1.9,2.1,3.7,1.8c5.3-0.8,10.6-1.4,15.9-2.1c1.3-0.2,2.6-0.6,3.9-0.7c1.2-0.1,2.4,0.1,3.6,0.1c3.6,0.1,7.1,0.1,10.7,0.1
			c0.2,0.2,0.4,0.4,0.6,0.6c-1,0.2-2,0.7-3,0.7c-6.8,0-13.6,0.5-20.4,1.6c-4.9,0.8-10,1.1-14.9,2c-8.7,1.6-17.4,3.5-26.1,5.3
			c-1.8,0.4-3.5,1.2-5.2,1.5c-1.9,0.3-3.8,0.1-5.7,0.4c-6.4,0.9-12.8,2.2-19.2,2.9c-5.8,0.7-11.6,0.9-17.4,1.3
			c-4.3,0.3-8.7,0.5-13,0.7C252.7,333.1,252,332.8,251.3,332.6z"/>
		<path d="M111.1,345.5c0,0.2,0,0.3,0,0.5c-1.7-0.2-3.5-0.4-5.2-0.5c-1.8-0.1-3.5,0-5.3,0c0,0.2,0,0.4-0.1,0.6
			c5,0.5,10.3,0.2,14.6,3.5c0,0.2,0,0.4,0,0.7c-3-0.7-5.9-1.8-8.9-2.1c-7.6-0.9-14.8,0.3-20.7,5.8c-0.3,0.3-0.5,0.7-1,1.2
			c2-0.8,3.7-1.4,5.4-2c11.4-3.9,23.2,2.4,28.3,12.5c1.8,3.6,2.2,7.7,1.8,11.9c-0.4,5-2,9.2-4.8,13.1c-3.6,4.9-8.5,7.8-14.4,9.1
			c-4.7,1-9.2,0.9-13.8-0.8c-3.6-1.3-6.3-3.7-8.4-6.8c-1.1-1.5-2.2-3-3.1-4.7c-3.1-5.9-4.4-12.3-3.7-18.7c0.5-4.1,1.8-8.3,4.4-11.9
			c2.2-3.1,3.9-6.6,7.4-8.7c3.8-2.3,7.6-4.4,12.1-5.5c3.7-0.9,7.2-0.3,10.9-0.4c0.6,0,1.2,0.4,1.8,0.7c0.2,0.2,0.4,0.4,0.6,0.6
			c-1.9,0-3.9-0.1-5.8-0.1c-1.8,0-3.7,0.2-5.6,0.7C102,343.7,106.6,343.8,111.1,345.5z M101,355.9c1,0.5,2,1.1,3,1.6
			c5.1,2.4,9,6,11.1,11.3c0.2,0.5,0.5,0.8,0.8,1.3c0.2,0,0.4-0.1,0.6-0.1c0-0.6,0.2-1.4,0-1.8c-1.6-2.5-3-5.3-5.1-7.3
			C108.4,358.2,105,356.2,101,355.9c-0.7-0.2-1.3-0.7-1.9-0.7c-9.7-0.7-20.3,4.5-23,15.8c-1.5,6.4-0.3,12.2,3.7,17.4
			c1.2,1.5,2.6,2.9,3.9,4.3c0.2-0.1,0.3-0.3,0.5-0.4c-1-1.4-2-2.9-3.1-4.2c-3.6-4-4.7-8.9-4.2-13.8c0.7-7.6,4.6-13.4,11.8-16.6
			C92.5,355.8,96.7,355.6,101,355.9z M114.2,375.3c0.2-9.9-7.1-17.7-16.9-17.8c-10.8-0.1-18.9,7.3-19.3,18.4
			c-0.3,7.5,7.6,19.4,17.8,18.3C104.5,393.4,114.8,388.4,114.2,375.3z M85.5,393.5c2.2,1.8,4.2,3.6,7.2,3.5
			c3.8-0.1,7.4-0.1,11.1-1.7c2.8-1.2,5.4-2.3,7.4-4.7c3.9-4.7,6.4-10,5.9-16.4c-0.1-1.1-0.7-2.1-1-3.1c-0.2,0-0.3,0.1-0.5,0.1
			c0.5,8.1-0.8,15.7-8,20.5C100.7,396.4,93.2,397.4,85.5,393.5z M88.8,355.2c-6.5,0.9-12.6,7.5-12.5,12
			C78.5,361.1,83.1,357.6,88.8,355.2z M114.9,363c-2.7-4.9-7.1-7.2-12.2-8.5C107.2,356.6,111.6,359,114.9,363z M86.8,347.6
			c0.1,0.2,0.2,0.5,0.3,0.7c2.8-1.3,5.7-2.5,8.5-3.8c-0.1-0.2-0.2-0.4-0.3-0.6C92.5,345.1,89.6,346.3,86.8,347.6z M74.3,374.4
			c-0.7,3.1-0.6,6,1,8.8C75,380.2,74.7,377.3,74.3,374.4z M78.8,389.5c1,2,2.1,3.7,4.2,4.3C81.6,392.5,80.3,391.1,78.8,389.5z
			 M118.4,374c0.2,0,0.4-0.1,0.6-0.1c-0.3-1.8-0.6-3.6-0.9-5.4c-0.3,0-0.5,0.1-0.8,0.1C117.7,370.4,118,372.2,118.4,374z"/>
		<path d="M358,425.8c1.5,0.9,3.2,1.6,4.5,2.7c5.3,4.7,10.9,8.9,17.6,11.4c4.2,1.5,8.7,2.5,13.1,3.5c5.2,1.2,10.5,0.9,15.8,0.7
			c5.3-0.2,10.2-1.7,15.2-3.2c5.7-1.7,11-4.1,15.9-7.4c4.3-3,8.6-6.1,12.4-9.6c4.9-4.5,8.7-10.1,12.3-15.7c3-4.8,5.3-10,7.1-15.4
			c0.7-2.1,1.6-4,2.5-6c0.2,0,0.4,0,0.6,0c0,1,0.2,2,0,3c-1.4,6.4-4.8,11.8-7.8,17.5c-3.2,6.1-7.6,11.4-12.2,16.5
			c-2,2.2-4.5,3.9-6.9,5.8c-2.9,2.2-5.7,4.6-8.8,6.4c-3.4,2-7,3.5-10.6,5.1c-5.8,2.6-12,3.7-18.2,4.4c-4,0.5-8.2,0.2-12.2-0.2
			c-5-0.5-9.9-1.6-14.8-2.5c-1.6-0.3-3.2-1.1-4.7-1.7c-6.8-3-12.8-7.2-18.2-12.2c-0.9-0.8-1.9-1.7-2.8-2.5
			C357.7,426.2,357.9,426,358,425.8z"/>
		<path d="M108.7,343.5c-0.2-0.2-0.4-0.4-0.6-0.6c2.6,0.6,5.3,0.9,7.8,2c7.6,3.3,12.9,9.2,16.6,16.3c3.2,6.1,4.7,12.8,4.4,19.8
			c-0.3,8.1-2.9,15.5-7.5,22c-2.5,3.6-6.1,6.5-9.2,9.7c-0.2,0.2-0.5,0.2-1.2,0c0.3-0.7,0.5-1.7,1-2.1c3.6-2.9,6.7-6.3,9-10.1
			c1.9-3.2,3.5-6.6,4.7-10.2c2.3-7.3,2.1-14.8,0.1-22.3c-1.5-5.5-4-10.6-7.9-14.6c-4.3-4.4-9.2-8.1-15.6-9.3
			C109.9,344.2,109.3,343.8,108.7,343.5z"/>
		<path d="M78.3,328.7c-3.3,2-6.5,3.9-9.8,5.9c2.1-3.9,5.9-5,9.4-6.6C78,328.2,78.1,328.5,78.3,328.7z"/>
		<path d="M291.9,387.6c0.8,1,1.3,1.7,1.8,2.4c0,0.1-0.8,0.8-0.8,0.7c-0.7-0.5-1.4-1.1-2-1.7C290.9,389,291.4,388.4,291.9,387.6z"/>
		<path d="M380.6,368.4c2.1-3.9,4.4-7.3,7.9-9.8c3.5-2.4,7.5-3.1,11.6-3.5c-5.4-1.2-9.9,0.8-14.3,3.7c1.1-2.4,3.4-3.2,5.5-4
			c4.2-1.6,8.7-1.8,13-0.6c2.9,0.8,5.6,2.1,8.3,3.4c4,2.1,6,6,7.6,10c3.7,8.9,1.9,17.1-4.7,24c-3.2,3.3-7.2,5.2-12,5.9
			c-7.1,1-13.3-1.4-18.7-5.5c-3.4-2.6-6-6.1-6.7-10.8c-0.5-3.3-0.9-6.6-0.3-9.9c0.2-1,0.8-2,1.5-2.9c-1.5,4.9-0.8,9.7,0.4,14.4
			c0.8,3,2.7,5.3,4.8,7.3c3.6,3.4,8,5.6,13.1,5.7c2.6,0.1,5.3,0.4,7.7-0.2c6.5-1.5,11.3-5.2,13.7-11.6c0.2-0.7,0.2-1.5,0-2.3
			c-1.1,1.8-2.2,3.5-3.2,5.3c-2.2,4.1-6,6.3-10.3,7.3c-7.2,1.7-13.9-0.2-19.6-4.8c-5.4-4.3-7.2-10.3-6.3-17c0-0.1,0-0.3,0.1-0.4
			c0.4-0.8-0.6-2.2,1.1-2.2c0.1,0,0.4,1.6,0.2,2.4c-1.3,8.4,2.1,15,9.9,18.7c4.6,2.2,9.4,3,14.5,1.8c4.5-1,7.8-3.6,10.1-7.6
			c2.5-4.2,2.8-8.6,2.1-13.5c-0.9-6.1-4.3-10-9.2-12.5c-8.4-4.3-20.2-3.3-25.3,7.3C383,367.4,382.9,369.3,380.6,368.4z M419.3,380.9
			c2.9-2.8,1.8-11.9-1.9-17.1c-4-5.8-12.8-10.3-17-8.5C415.2,357.7,420.5,366.8,419.3,380.9z"/>
		<path d="M380,367c0.7-3.3,2.4-5.9,5.3-7.7C383.5,361.9,381.7,364.4,380,367z"/>
		<path d="M50.5,378.2c1.2,4.1,2.4,8.1,3.7,12.4C52.4,388.6,49.9,380,50.5,378.2z"/>
		<path d="M56.7,396.9c-0.9-1.6-1.7-3.2-2.6-4.7c0.2-0.1,0.5-0.3,0.7-0.4c0.8,1.6,1.6,3.2,2.3,4.8C57,396.7,56.8,396.8,56.7,396.9z"
			/>
	</g>
</g>
<rect x="71.8" y="143.5" fill="none" width="358.7" height="85.6"/>
<text display="none" transform="matrix(1 0 0 1 70 227)" font-family="'OpenSans-Light'" font-size="110px" letter-spacing="33">FOSS</text>
<rect x="46.8" y="33.4" fill="none" width="439" height="95.2"/>
<text display="none" transform="matrix(1 0 0 1 43 117)" font-family="'OpenSans-Semibold'" font-size="110px" letter-spacing="-2">ARCHEO</text>
</svg>
